<svg width="628" height="485" fill="none" xmlns="http://www.w3.org/2000/svg"><path d="M309.695 95.228c-4.052 0-8.23-2.786-11.522-7.725-2.532.886-5.065 1.393-7.344 1.393-5.697 0-7.976-2.786-8.862-4.559-.887-1.9-1.14-3.925-.507-6.078 0-.127.127-.254.127-.38 1.013-3.04 3.798-6.078 7.47-8.484-1.266-3.166-2.279-7.472-1.013-11.27v-.127c.886-2.406 2.406-4.052 4.431-4.939 1.013-.38 2.153-.633 3.292-.633 4.052 0 8.23 2.786 11.649 7.724 2.532-.886 5.064-1.392 7.343-1.392 5.698 0 7.977 2.785 8.863 4.558.886 1.9 1.14 3.926.507 6.079 0 .126-.127.253-.127.38-1.013 3.039-3.672 5.951-7.344 8.484 1.646 4.305 2.026 8.358 1.013 11.397-.886 2.532-2.405 4.178-4.431 5.065-.38.127-.633.253-1.013.253l-.38.127c-.633 0-1.266.127-2.152.127Z" fill="white"/><path d="M295.767 57.238c2.659 0 6.331 3.039 8.863 7.978.253.38.507.76.633 1.266.127 0 .127-.127.253-.127.254-.126.633-.38 1.013-.506 2.912-1.393 5.951-2.153 8.23-2.153 2.153 0 3.799.633 4.432 1.773.379.76.379 1.52.126 2.533-.886 2.406-3.798 5.318-7.85 7.344l-.506.254c-.253.126-.633.253-.887.506.38.507.634 1.013.76 1.393 2.026 3.799 2.912 7.978 2.026 10.384-.38 1.013-.886 1.646-1.646 2.026-.633.126-1.14.253-1.393.253-2.785 0-6.204-3.166-8.736-7.978-.253-.38-.507-.76-.633-1.266-.127 0-.127.127-.253.127-.254.126-.633.38-1.013.506-2.912 1.393-5.951 2.153-8.23 2.153-2.153 0-3.799-.633-4.432-1.773-.379-.76-.379-1.52-.126-2.533.886-2.406 3.798-5.318 7.85-7.344l.506-.254c.38-.126.633-.38 1.013-.506a10.994 10.994 0 0 0-.76-1.266c-2.025-3.926-2.912-7.978-2.025-10.51.38-1.014.886-1.647 1.646-2.027.379-.127.759-.253 1.139-.253Zm0-10.13c-1.899 0-3.672.38-5.318 1.139-2.279 1.013-5.444 3.166-7.09 7.724 0 .127-.127.254-.127.38-1.266 3.673-1.012 7.598-.126 11.017-2.532 2.153-5.065 5.066-6.331 8.738-.126.253-.253.633-.253.886-1.013 4.306-.127 7.472.886 9.498 0 0 0 .126.127.126 2.406 4.56 7.343 7.219 13.421 7.219 1.772 0 3.545-.254 5.444-.634 3.925 4.432 8.61 6.965 13.421 6.965 1.393 0 2.406-.253 3.166-.38h.253c.633-.127 1.393-.38 2.026-.633 2.279-1.013 5.444-3.166 7.217-7.851 0-.127 0-.127.126-.253 1.393-3.8 1.013-7.852.127-11.27 2.532-2.153 4.938-5.066 6.204-8.612.126-.253.253-.633.253-.886 1.013-4.306.127-7.471-.886-9.498 0 0 0-.126-.127-.126-2.406-4.559-7.343-7.218-13.421-7.218-1.772 0-3.545.253-5.444.633-3.925-4.432-8.737-6.965-13.548-6.965Zm288.047 213.754c-2.152 0-4.051-.507-5.697-1.646-2.279-1.393-3.925-3.673-4.685-6.459-.886.127-1.646.254-2.532.254-1.9 0-3.799-.507-5.318-1.393-2.406-1.393-4.178-3.673-4.938-6.585-.886.126-1.646.253-2.406.253-1.899 0-3.798-.506-5.317-1.393-2.533-1.393-4.179-3.672-5.065-6.965-1.393-5.445.253-12.789 4.432-19.754 4.304-6.965 10.002-11.777 15.446-13.043h.127c1.013-.254 1.899-.254 2.785-.254 2.153 0 3.925.507 5.571 1.647 2.279 1.393 3.925 3.672 4.685 6.458.886-.127 1.646-.253 2.532-.253 2.026 0 3.799.506 5.445 1.393 2.405 1.393 4.051 3.672 4.938 6.458.886-.127 1.646-.253 2.405-.253 1.899 0 3.799.506 5.318 1.392 2.532 1.393 4.178 3.673 5.065 6.965 1.392 5.445-.254 12.79-4.432 19.755-4.305 6.965-10.002 11.777-15.447 13.043l-.38.127c-.633.126-1.519.253-2.532.253Z" fill="white"/><path d="M570.647 208.816c1.013 0 2.025.253 2.785.759 2.659 1.52 3.545 5.319 2.659 10.004 2.532-1.899 5.065-3.039 7.217-3.039 1.013 0 2.026.253 2.912.76 2.659 1.52 3.672 5.318 2.659 10.004 2.532-1.9 5.064-3.039 7.217-3.039 1.013 0 2.026.253 2.912.759 1.266.76 2.152 2.027 2.659 3.799 1.139 4.053-.507 10.258-3.799 15.956-3.545 5.698-8.229 9.751-12.281 10.764-.633.126-1.14.253-1.646.253-1.139 0-2.026-.253-2.912-.886-2.659-1.52-3.545-5.319-2.659-10.004-2.532 1.899-5.064 3.039-7.217 3.039a5.875 5.875 0 0 1-2.912-.76c-2.659-1.393-3.672-5.318-2.659-10.004-2.532 1.9-5.064 3.039-7.217 3.039a5.884 5.884 0 0 1-2.912-.759c-1.266-.76-2.152-2.027-2.659-3.799-1.139-4.053.507-10.258 3.799-15.956 3.545-5.698 8.229-9.751 12.281-10.764.633 0 1.266-.126 1.773-.126Zm0-10.131c-1.266 0-2.533.127-3.799.38-.126 0-.253 0-.38.127-6.837 1.646-13.547 7.218-18.612 15.322 0 0 0 .127-.126.127-4.938 8.231-6.711 16.968-4.938 23.68 1.519 5.698 4.811 8.611 7.47 10.13 2.152 1.267 4.558 1.9 7.09 2.026a15.38 15.38 0 0 0 5.698 5.699c2.152 1.266 4.558 1.899 7.09 2.026 1.266 2.153 2.912 4.052 5.065 5.319 2.405 1.646 5.317 2.532 8.356 2.532 1.52 0 2.786-.253 3.419-.38h.253c.127 0 .253 0 .38-.126 6.837-1.647 13.547-7.218 18.612-15.323 0 0 0-.126.126-.126 4.938-8.231 6.711-16.969 4.938-23.681-1.519-5.698-4.811-8.611-7.47-10.13-2.152-1.266-4.558-1.9-7.09-2.026-1.393-2.28-3.165-4.179-5.571-5.572-2.152-1.266-4.685-2.026-7.344-2.153-1.266-2.152-3.038-4.052-5.191-5.318-2.026-1.647-4.938-2.533-7.976-2.533Zm-117.753-79.778c-2.153 0-4.179-1.14-5.445-2.913l-23.803-36.47c-1.266-1.646-1.266-3.419-1.266-4.052 0-.506.126-1.14.253-1.646.253-.633.76-2.406 2.532-3.546l.254-.127c4.558-3.039 17.979-11.903 33.805-12.916 6.331-12.157 17.093-20.64 25.323-25.706 1.013-.76 2.279-1.14 3.545-1.14 2.026 0 3.925.887 5.191 2.533.127.126.253.253.253.38l23.677 36.47c1.266 1.646 1.266 3.419 1.266 4.052 0 .506-.127 1.14-.253 1.646-.253.633-.76 2.406-2.532 3.546l-.127.126c-4.052 2.66-16.586 10.764-21.904 23.047-.38.76-.886 1.393-1.519 2.026-.38.254-1.013.76-1.646 1.14a6.54 6.54 0 0 1-4.052 1.393c-13.674 0-25.956 8.231-30.134 11.017-.126.127-.38.253-.506.38-.254.253-1.393.76-2.912.76Z" fill="white"/><path d="M488.218 35.583c.507 0 1.013.254 1.266.634l23.804 36.723c.253.253.253.76.253 1.14-.127.38-.253.76-.633 1.012-4.432 2.913-17.979 11.524-23.803 25.453-.507.38-1.013.76-1.393.76-.127.254-.507.633-1.14.633-15.193 0-28.614 8.865-32.919 11.777-.253.127-.506.253-.886.253-.507 0-1.013-.253-1.266-.633l-23.93-36.596c-.253-.254-.253-.76-.253-1.14.126-.38.253-.76.633-1.013 4.558-3.04 18.485-12.283 34.185-12.283h.253c6.331-14.563 20.258-23.68 24.943-26.466.38-.254.633-.254.886-.254Zm0-10.13c-2.279 0-4.431.633-6.33 1.9-8.357 5.191-18.866 13.422-25.829 25.199-15.827 1.9-28.868 10.384-33.426 13.423l-.253.127c-3.292 2.152-4.305 5.191-4.685 6.204-.38 1.014-.507 2.153-.507 3.166 0 2.786.76 5.066 2.153 6.965l23.803 36.343v.127c2.153 3.166 5.698 5.065 9.623 5.065 2.785 0 4.684-1.013 5.317-1.266.38-.127.76-.38 1.14-.633 3.798-2.533 15.194-10.131 27.222-10.131 2.405 0 4.811-.759 6.71-2.152a8.661 8.661 0 0 0 2.153-1.52c1.266-1.013 2.279-2.406 3.038-3.926 4.685-10.89 16.207-18.361 20.005-20.767l.127-.127s.126 0 .126-.127c3.292-2.152 4.305-5.191 4.559-6.204.379-1.013.506-2.153.506-3.166 0-2.66-.76-5.066-2.152-6.965l-23.55-36.343c-.127-.254-.38-.507-.634-.76-2.152-2.786-5.57-4.432-9.116-4.432Z" fill="white"/><path d="M426.939 475.376c-.507 0-1.393 0-2.28-.253-1.392-.253-2.658-.76-3.798-1.393-1.393.506-2.785.886-4.305.886-.506 0-1.266 0-2.279-.253-.886-.127-1.772-.506-2.659-.886-1.646.759-3.418 1.266-5.191 1.266-.506 0-1.393 0-2.405-.253-.76-.127-1.393-.38-2.026-.633a11.177 11.177 0 0 1-5.824 1.646c-.507 0-1.267 0-2.153-.254-5.064-.886-8.863-4.938-9.496-9.624H78.5a19.832 19.832 0 0 1-19.878-19.881V250.858l-25.956-17.982c-8.99-6.458-14.814-16.462-15.953-27.226-1.14-10.763 2.532-21.654 10.129-29.758l66.092-68.635c7.217-7.471 16.713-11.523 26.968-11.523 1.899 0 3.799.127 5.698.38 1.139-.127 2.152-.127 3.292-.127.886 0 1.772 0 2.659.127l22.79 1.646.127-9.37v-.887c-4.052-3.42-6.458-8.358-6.458-13.803v-.253c-.506-.76-.886-1.52-1.266-2.406a17.993 17.993 0 0 1-7.217-14.436c0-5.699 2.786-11.144 7.344-14.436.38-13.17 11.268-23.68 24.436-23.68 2.026 0 3.925.253 5.824.76 4.178-5.826 11.016-9.372 18.359-9.372 8.23 0 15.827 4.56 19.878 11.65a21.928 21.928 0 0 1 20.005 21.908c0 4.938-1.772 9.75-4.685 13.55 2.406 2.532 3.925 5.951 3.925 9.75 0 5.699-3.291 10.51-8.229 12.79-1.52 6.711-5.065 12.79-10.003 17.728a39.717 39.717 0 0 1-6.457 4.939l11.395.886c3.925.254 7.724 1.267 11.269 2.786 16.08 1.773 29.627 12.157 35.325 27.353l1.013 2.532c2.152 0 4.178.507 5.95 1.52 1.14-.506 2.406-.76 3.672-.886h.633c5.824 0 11.016 4.305 11.649 9.75.253 2.66.506 5.319.633 8.105h229.296c10.129 0 18.359 8.231 18.359 18.361v167.788c10.382 2.152 19.371 8.357 25.196 17.348l34.185 53.059c9.876 14.436 14.307 31.911 12.661 49.133 0 1.393-.38 2.659-1.139 3.672-1.013 1.393-2.659 2.153-4.432 2.153h-44.314c0 .127 0 .38-.127.507 0 .506-.126 1.013-.253 1.393-1.013 4.685-5.318 7.977-10.382 7.977-.507 0-1.393 0-2.279-.253-1.393-.253-2.659-.76-3.799-1.393-1.266.507-2.659.76-4.178.76-.506 0-1.393 0-2.279-.253-1.013-.127-1.899-.507-2.912-.887-1.519.76-3.292 1.267-5.191 1.267-.507 0-1.393 0-2.279-.254-.76-.126-1.52-.38-2.153-.633-1.646 1.013-3.671 1.52-5.824 1.52-.506 0-1.393 0-2.279-.254-4.938-.886-8.736-4.812-9.369-9.497h-70.27c0 .507-.127 1.013-.127 1.393v.253c-1.013 4.559-5.318 7.978-10.635 7.978Z" fill="white"/><path d="M195.491 14.69c7.596 0 14.18 4.812 16.586 11.65.506 0 .886-.127 1.393-.127 9.243 0 16.839 7.598 16.839 16.842a16.809 16.809 0 0 1-8.23 14.436c4.179.76 7.471 4.306 7.471 8.738 0 4.432-3.292 8.104-7.597 8.864-1.013 6.838-4.178 13.17-9.243 18.108-4.431 4.306-9.876 7.092-15.827 8.231l-.126 4.432 23.93 1.773c3.671.254 7.09 1.14 10.382 2.66 13.927 1.266 26.589 10.257 31.906 24.186l2.533 6.712c.886-.507 1.772-.76 2.912-.887h.253c2.406 0 4.431 1.14 5.571 2.786 1.139-1.266 2.659-1.899 4.305-2.026h.253c3.292 0 6.331 2.406 6.584 5.319.506 4.685.76 8.864.76 12.536h234.487c7.343 0 13.294 5.952 13.294 13.297v172.092c10.636 1.013 20.131 6.712 26.082 15.703l34.186 53.185c9.243 13.676 13.547 30.138 11.775 46.347.126.507-.127.76-.507.76h-48.999c-.126 2.786-.38 4.559-.506 5.065 0 .254 0 .38-.127.507v.126c-.506 2.66-2.785 4.179-5.571 4.179-.38 0-.886 0-1.266-.126-1.899-.254-3.419-1.393-4.431-2.786-1.013 1.393-2.659 2.152-4.559 2.152-.379 0-.886 0-1.266-.126-1.772-.253-3.165-1.14-4.178-2.406-.886 1.646-2.785 2.659-4.938 2.659-.38 0-.886 0-1.266-.127-1.646-.253-2.912-1.013-3.925-2.152-.886 1.899-2.785 2.912-5.064 2.912-.38 0-.887 0-1.267-.126-3.418-.507-5.824-3.546-5.444-6.585v-.127c0-.633.127-1.519.253-2.912h-79.892a42.71 42.71 0 0 1-.507 4.685v.38c0 .127 0 .253-.127.38v.38c-.506 2.532-2.785 4.052-5.57 4.052-.38 0-.887 0-1.267-.127-1.899-.253-3.545-1.393-4.558-2.912-1.013 1.266-2.785 2.152-4.811 2.152-.38 0-.76 0-1.139-.126-1.52-.253-3.039-1.013-4.052-2.153-1.14 1.52-3.039 2.406-5.065 2.406-.379 0-.886 0-1.266-.127-1.519-.253-2.912-1.139-3.798-2.152-1.013 1.899-2.912 3.039-5.191 3.039-.38 0-.76 0-1.266-.127-3.419-.506-5.825-3.545-5.445-6.585 0 0 .253-1.139.38-3.165H78.5a14.753 14.753 0 0 1-14.813-14.816V248.199l-28.235-19.502c-7.597-5.571-12.661-14.056-13.674-23.553-1.013-9.371 2.279-18.742 8.736-25.833l65.965-68.508c6.204-6.332 14.434-10.004 23.424-10.004 1.899 0 3.672.127 5.444.507 1.14-.127 2.279-.127 3.419-.127.759 0 1.519 0 2.279.127l28.108 2.026.253-14.816v-3.672c-3.798-2.28-6.457-6.332-6.457-11.144 0-.633 0-1.266.126-1.9l-.506-.506c-.886-1.013-1.393-2.28-1.773-3.546-3.798-2.28-6.457-6.331-6.457-11.143 0-5.192 3.039-9.624 7.47-11.65-.126-.634-.126-1.393-.126-2.027 0-10.763 8.736-19.374 19.371-19.374 2.913 0 5.571.633 8.104 1.773 3.038-6.332 9.242-10.638 16.333-10.638Zm0-10.131a27.85 27.85 0 0 0-20.385 8.864c-1.266-.126-2.532-.253-3.798-.253-15.194 0-27.729 11.523-29.375 26.213-4.684 4.305-7.47 10.51-7.47 16.968 0 6.839 3.039 13.297 8.23 17.602.127.254.253.507.38.633.253 5.572 2.659 10.764 6.331 14.69v2.786l-17.473-1.267c-1.013-.126-2.026-.126-3.039-.126-1.013 0-2.025 0-3.165.126a44.986 44.986 0 0 0-5.824-.38c-11.649 0-22.537 4.686-30.64 13.17L23.297 172.22l-.126.126c-8.483 9.118-12.662 21.401-11.396 33.684 1.266 12.284 7.724 23.554 17.853 30.772l.126.126 23.804 16.463v192.1c0 13.803 11.142 24.947 24.942 24.947h302.225c2.153 4.812 6.711 8.611 12.282 9.624 1.393.253 2.532.253 3.165.253 2.153 0 4.305-.38 6.204-1.267.127 0 .253.127.507.127 1.519.38 2.912.38 3.545.38 1.899 0 3.672-.253 5.318-.886.506.126.886.253 1.392.379 1.52.38 2.786.38 3.419.38 1.393 0 2.659-.126 3.925-.506 1.013.38 2.026.76 3.165.886 1.52.38 2.786.38 3.419.38 6.837 0 12.661-3.925 14.813-9.877H504.3c2.152 4.685 6.583 8.358 12.028 9.371 1.393.38 2.659.38 3.292.38 2.152 0 4.305-.38 6.204-1.14.253 0 .506.126.633.126 1.393.38 2.659.38 3.292.38 1.899 0 3.672-.253 5.318-.886.506.127 1.139.253 1.646.38 1.392.38 2.658.38 3.291.38a19.34 19.34 0 0 0 3.799-.38c1.013.38 2.026.76 3.165.886 1.393.38 2.659.38 3.292.38 6.837 0 12.535-3.925 14.814-9.877h40.263c3.292 0 6.33-1.52 8.356-4.052 1.52-1.9 2.279-4.179 2.279-6.585 1.646-18.362-3.039-36.85-13.547-52.173l-33.933-52.932c-5.824-8.99-14.433-15.449-24.436-18.488V172.22c0-12.917-10.509-23.427-23.423-23.427H296.021c-.126-1.14-.253-2.406-.379-3.546-1.013-7.978-8.23-14.309-16.713-14.309h-1.013c-1.013.126-2.026.253-2.912.506a10.533 10.533 0 0 0-2.659-.76c-6.457-16.462-21.145-27.985-38.617-30.138-3.672-1.52-7.47-2.406-11.269-2.786 3.799-4.432 6.584-9.624 8.23-15.196 5.444-3.419 8.99-9.37 8.99-16.209 0-3.545-1.013-6.964-2.786-9.877 2.279-4.052 3.545-8.61 3.545-13.423 0-13.17-9.496-24.187-22.03-26.593-5.191-7.218-13.675-11.903-22.917-11.903Z" fill="white"/><path fill-rule="evenodd" clip-rule="evenodd" d="M308.938 75.726c.76-.254 1.266-.634 2.026-1.013 5.317-2.66 8.736-6.712 7.47-8.991-1.266-2.28-6.457-2.026-11.902.633-.633.253-1.139.633-1.646.886-.253-.633-.506-1.14-.886-1.646-2.786-5.319-6.837-8.61-9.243-7.471-2.405 1.266-2.026 6.331.76 11.65.38.76.76 1.266 1.139 1.9-.759.253-1.266.632-2.025 1.012-5.318 2.66-8.737 6.712-7.471 8.991 1.267 2.28 6.458 2.026 11.902-.633.633-.253 1.14-.633 1.646-.886.253.633.506 1.14.886 1.646 2.786 5.318 6.837 8.61 9.243 7.471 2.406-1.266 2.026-6.331-.76-11.65-.379-.76-.633-1.393-1.139-1.9Z" fill="white"/><path d="M309.696 90.162c-2.786 0-6.204-3.166-8.737-7.978-.253-.38-.506-.76-.633-1.266-.126 0-.126.127-.253.127-.253.126-.633.38-1.013.506-5.697 2.786-11.268 2.913-12.661.38-.38-.76-.38-1.52-.127-2.532.886-2.406 3.799-5.319 7.85-7.345l.507-.253c.379-.127.633-.38 1.013-.507a11.268 11.268 0 0 0-.76-1.266c-2.026-3.926-2.912-7.978-2.026-10.51.38-1.014.886-1.647 1.646-2.027 2.786-1.266 7.09 2.026 10.129 7.725.253.38.507.76.633 1.266.127 0 .127-.127.253-.127.254-.126.633-.38 1.013-.506 5.698-2.786 11.269-2.913 12.662-.38.379.76.379 1.52.126 2.533-.886 2.406-3.798 5.318-7.85 7.344l-.506.254c-.254.126-.633.253-.887.506.38.507.633 1.013.76 1.393 2.026 3.799 2.912 7.978 2.026 10.384-.38 1.013-.886 1.646-1.646 2.026-.633.127-1.14.253-1.519.253Zm-9.117-10.637c.254 0 .507.127.633.38.254.633.507 1.14.887 1.52 2.785 5.445 6.584 8.104 8.609 7.218a2.01 2.01 0 0 0 1.013-1.267c.76-2.152-.126-5.951-2.025-9.497-.254-.76-.633-1.266-1.013-1.773-.127-.126-.127-.38-.127-.633s.253-.38.38-.38a4.69 4.69 0 0 0 1.393-.633l.633-.253c3.671-1.773 6.457-4.432 7.217-6.585.253-.633.253-1.267 0-1.52-1.013-1.773-5.698-1.773-11.142.887-.38.126-.633.253-.887.38-.253.126-.633.38-1.012.506h-.507l-.38-.38c-.253-.633-.506-1.013-.886-1.52-2.786-5.445-6.584-8.104-8.61-7.217-.506.253-.886.76-1.013 1.266-.759 2.153.127 5.951 2.026 9.497.38.76.76 1.266 1.14 1.9a.387.387 0 0 1 0 .506c-.127.127-.254.38-.38.38a4.678 4.678 0 0 0-1.393.633l-.633.254c-3.672 1.772-6.457 4.432-7.217 6.584-.253.634-.253 1.267 0 1.52 1.013 1.773 5.698 1.773 11.142-.886.38-.127.633-.254.886-.38.254-.127.633-.38 1.013-.507h.253Z" fill="black"/><path fill-rule="evenodd" clip-rule="evenodd" d="M566.596 235.536c-3.799 3.672-8.103 5.065-10.889 3.545-4.051-2.406-3.418-11.017 1.393-18.868 4.811-7.978 12.028-12.536 16.08-10.004 2.785 1.646 3.418 6.079 1.899 11.144 3.798-3.673 8.103-5.065 10.889-3.546 2.785 1.646 3.418 6.078 1.899 11.144 3.798-3.673 8.103-5.066 10.889-3.546 4.051 2.406 3.418 11.017-1.393 18.868-4.811 7.978-12.028 12.537-16.08 10.004-2.786-1.646-3.419-6.078-1.899-11.144-3.799 3.673-8.103 5.066-10.889 3.546-2.785-1.519-3.292-5.952-1.899-11.143Z" fill="white"/><path d="M583.814 255.797c-1.139 0-2.025-.254-2.912-.887-2.659-1.519-3.545-5.318-2.659-10.004-3.671 2.913-7.47 3.799-10.129 2.28-2.658-1.393-3.671-5.319-2.658-10.004-3.672 2.912-7.471 3.799-10.129 2.279-1.267-.76-2.153-2.026-2.659-3.799-1.14-4.052.506-10.257 3.798-15.955 3.545-5.699 8.23-9.751 12.282-10.764 1.772-.38 3.418-.253 4.558.633 2.658 1.52 3.545 5.319 2.658 10.004 3.672-2.913 7.471-3.799 10.129-2.279 2.659 1.519 3.672 5.318 2.659 10.004 3.672-2.913 7.47-3.799 10.129-2.28 1.266.76 2.153 2.026 2.659 3.799 1.14 4.052-.506 10.257-3.798 15.956-3.545 5.698-8.23 9.75-12.282 10.763-.506.127-1.013.254-1.646.254Zm-4.431-13.17c.127 0 .253 0 .38.127.253.126.38.379.253.759-1.393 5.066-.76 8.991 1.646 10.511 1.013.633 2.152.76 3.672.506 3.672-.886 8.356-4.938 11.522-10.257 3.291-5.318 4.684-11.143 3.671-14.942-.38-1.393-1.139-2.533-2.025-3.166-2.406-1.393-6.331 0-10.13 3.419-.253.253-.506.253-.759.127-.253-.127-.38-.38-.253-.76 1.392-5.066.759-8.991-1.646-10.511-2.406-1.266-6.331 0-10.129 3.419-.254.254-.507.254-.76.127s-.38-.38-.253-.76c1.392-5.065.759-8.991-1.646-10.51-1.013-.633-2.153-.76-3.672-.507-3.672.887-8.357 4.939-11.522 10.257-3.292 5.319-4.684 11.144-3.672 14.943.38 1.393 1.14 2.533 2.026 3.166 2.406 1.393 6.331 0 10.129-3.419.253-.254.507-.254.76-.127s.38.38.253.76c-1.393 5.065-.76 9.117 1.646 10.51 2.406 1.393 6.331 0 10.129-3.419.127-.253.253-.253.38-.253Z" fill="black"/><path d="M487.59 100.673c.379 0 .633-.254.759-.507 5.951-13.676 18.992-22.414 24.057-25.706.38-.253.506-.887.253-1.266L488.856 36.47c-.254-.38-.887-.506-1.266-.253-5.065 3.292-18.613 12.157-24.817 26.466" fill="white"/><path d="M487.587 101.179v-1.267c.127 0 .127-.126.253-.126 6.204-14.183 19.752-23.047 24.31-25.96l.127-.126v-.254l-23.804-36.723c0-.127-.253-.127-.379-.127-4.559 2.913-18.486 11.777-24.563 26.213l-1.14-.506c6.204-14.69 20.385-23.807 25.069-26.72.634-.506 1.52-.253 2.026.38l23.803 36.723c.254.254.254.76.254 1.14-.127.38-.254.76-.633 1.013-4.432 2.913-17.979 11.524-23.804 25.453-.633.507-1.012.887-1.519.887Z" fill="black"/><path d="M462.645 62.936c-15.573-.126-29.121 8.738-34.185 12.157-.38.253-.507.886-.254 1.266l23.93 36.597c.254.38.887.507 1.266.253 5.065-3.419 18.359-11.903 33.3-11.903.379 0 .633-.127.759-.507a1.078 1.078 0 0 0 0-.886l-24.056-36.597c-.253-.253-.507-.38-.76-.38Z" fill="white"/><path d="M452.896 113.842c-.506 0-1.012-.253-1.266-.633L427.7 76.612c-.253-.253-.253-.76-.253-1.14.127-.38.253-.76.633-1.012 4.558-3.04 18.486-12.284 34.186-12.284.506 0 1.013.127 1.393.507 0 0 0 .127.126.127l23.93 36.596c.253.507.253 1.14 0 1.393-.127.38-.506.887-1.266.887-15.194 0-28.615 8.864-32.919 11.776 0 .254-.254.38-.634.38Zm9.37-50.4c-15.447 0-28.995 8.992-33.553 12.03l-.126.127v.254l24.056 36.596c0 .127.253.127.38.127 4.432-3.039 18.106-12.03 33.552-12.03h.127v-.38l-23.803-36.47c-.127-.127-.253-.127-.253-.127-.127-.126-.254-.126-.38-.126Z" fill="black"/><path fill-rule="evenodd" clip-rule="evenodd" d="M471.128 356.849c0 13.55-11.016 24.44-24.437 24.44 13.548 0 24.437 11.017 24.437 24.44 0-13.55 11.015-24.44 24.436-24.44-13.421 0-24.436-11.017-24.436-24.44Z" fill="white"/><path d="M471.761 405.729h-1.266c0-13.17-10.762-23.807-23.804-23.807v-1.266c13.168 0 23.804-10.764 23.804-23.807h1.266c0 13.17 10.762 23.807 23.803 23.807v1.266c-13.041-.126-23.803 10.637-23.803 23.807Zm-19.625-24.44c9.369 2.153 16.839 9.497 18.992 18.995 2.152-9.371 9.496-16.842 18.992-18.995-9.37-2.153-16.84-9.497-18.992-18.995a25.104 25.104 0 0 1-18.992 18.995Z" fill="black"/><path d="m64.32 158.67-.76-1.013c.127-.127 8.737-6.205 15.194-14.183l1.013.76c-6.457 8.231-15.32 14.436-15.447 14.436Z" fill="white"/><path d="M214.482 218.186s42.163 3.166 69.891-26.846l-23.55-17.855-45.581 12.537-.76 32.164Z" fill="black"/><path d="M217.523 218.947c-2.026 0-3.166-.127-3.292-.127-.38 0-.633-.253-.633-.633l.886-32.165c0-.253.253-.506.506-.633l45.581-12.536c.127 0 .38 0 .507.126l23.55 17.855c.126.127.253.254.253.507s0 .38-.127.506c-23.17 24.947-56.722 27.1-67.231 27.1Zm-2.533-1.267c5.065.253 42.922.887 68.371-26.213l-22.79-17.222-44.821 12.284-.76 31.151Z" fill="black"/><path d="m284.374 191.341-21.778-56.604c-7.47-19.248-28.994-28.872-48.366-21.401-19.245 7.471-28.868 28.998-21.398 48.373l21.778 56.605 3.418-2.406c19.246-14.436 42.289-22.921 66.346-24.567Z" fill="white"/><path d="M214.61 218.82c-.253 0-.507-.253-.507-.38l-21.777-56.605c-7.597-19.501 2.152-41.535 21.777-49.006 19.499-7.598 41.529 2.153 49 21.781l21.777 56.604c.127.127 0 .38 0 .507 0 .126-.253.253-.506.253-24.057 1.646-46.974 10.13-65.966 24.313l-3.418 2.406c-.127.127-.254.127-.38.127Zm12.914-107.511c-4.304 0-8.736.887-13.167 2.533-18.866 7.345-28.488 28.619-21.145 47.614l21.524 55.971 2.786-1.9c18.992-14.182 41.782-22.667 65.839-24.44l-21.525-55.971c-5.571-14.689-19.498-23.807-34.312-23.807ZM82.934 252.63s51.151 20.515 101.796 27.986c50.646 7.471 70.777-.887 70.777-10.004 0-9.118-42.415-38.116-42.415-38.116l-92.808-2.533-37.35 22.667Z" fill="black"/><path d="M219.422 284.162c-8.989 0-20.511-.887-34.818-2.913-50.139-7.344-101.417-27.859-101.924-27.985-.253-.127-.38-.254-.38-.507s.127-.506.254-.633l37.35-22.794c.127-.126.254-.126.38-.126l92.807 2.659c.127 0 .254 0 .38.127 1.646 1.266 42.669 29.125 42.669 38.496 0 2.279-1.14 4.305-3.292 6.205-3.039 2.785-11.648 7.471-33.426 7.471ZM84.2 252.504c7.85 3.039 54.696 20.768 100.657 27.479 33.426 4.939 58.495 3.419 67.231-4.052 1.899-1.52 2.786-3.419 2.786-5.319 0-7.218-30.134-29.378-42.036-37.483l-92.427-2.659-36.212 22.034Z" fill="black"/><path d="m82.934 252.631 38.49-6.838c19.372-3.546 39.25-4.432 58.748-2.153 25.323 2.912 59.508 4.052 75.208 27.099l-7.09-130.557c1.266-16.336-11.142-30.645-27.475-31.785l-89.642-6.585c-16.333-1.266-30.64 11.144-31.78 27.479l-16.46 123.34Z" fill="white"/><path d="M255.378 271.372c-.253 0-.38-.127-.507-.253-13.927-20.515-43.428-23.68-66.978-26.086-2.659-.254-5.318-.634-7.85-.887-18.612-2.153-38.49-1.393-58.622 2.153l-38.49 6.965c-.253 0-.38 0-.506-.127-.127-.127-.254-.38-.127-.507l16.46-123.592c.633-8.105 4.305-15.449 10.382-20.768 6.204-5.318 13.927-7.851 22.031-7.218l89.642 6.585c8.103.633 15.446 4.305 20.764 10.384 5.318 6.205 7.85 13.929 7.217 22.034l7.09 130.557c0 .253-.126.507-.506.76.126 0 .126 0 0 0Zm-96.732-29.505c7.343 0 14.56.38 21.65 1.266 2.533.253 5.065.633 7.724.887 23.297 2.406 51.911 5.445 66.598 24.819l-6.964-128.531c.634-7.851-1.899-15.322-6.963-21.148-5.065-5.951-12.155-9.37-19.878-10.003l-89.642-6.585c-7.85-.633-15.321 1.899-21.145 6.964-5.951 5.066-9.369 12.157-10.002 19.882l-16.46 122.579 37.731-6.711c12.661-2.406 25.196-3.419 37.351-3.419Zm-1.137-173.106c6.837 0 12.281-5.445 12.281-12.283 0-6.838-5.444-12.284-12.281-12.284-6.837 0-12.281 5.446-12.281 12.284 0 6.838 5.444 12.283 12.281 12.283Z" fill="black"/><path d="M157.509 69.394c-7.091 0-12.915-5.825-12.915-12.917 0-7.091 5.824-12.916 12.915-12.916 7.09 0 12.914 5.825 12.914 12.916 0 7.092-5.824 12.917-12.914 12.917Zm0-24.567c-6.331 0-11.649 5.319-11.649 11.65 0 6.332 5.318 11.65 11.649 11.65 6.33 0 11.648-5.318 11.648-11.65 0-6.331-5.318-11.65-11.648-11.65Z" fill="black"/><path d="M165.99 85.856c6.838 0 12.282-5.445 12.282-12.283 0-6.838-5.444-12.283-12.282-12.283-6.837 0-12.281 5.445-12.281 12.283 0 6.838 5.571 12.283 12.281 12.283Z" fill="black"/><path d="M165.99 86.49c-7.091 0-12.915-5.826-12.915-12.917s5.824-12.79 12.915-12.79c7.09 0 12.914 5.825 12.914 12.917 0 7.091-5.824 12.79-12.914 12.79Zm0-24.567c-6.331 0-11.649 5.318-11.649 11.65 0 6.332 5.318 11.65 11.649 11.65 6.33 0 11.648-5.318 11.648-11.65 0-6.332-5.191-11.65-11.648-11.65Z" fill="black"/><path d="M220.563 74.713c4.558 0 8.356-3.672 8.356-8.358 0-4.685-3.671-8.357-8.356-8.357-4.558 0-8.356 3.672-8.356 8.357 0 4.686 3.798 8.358 8.356 8.358Z" fill="white"/><path d="M220.561 75.346a8.809 8.809 0 0 1-8.863-8.864 8.81 8.81 0 0 1 8.863-8.865 8.81 8.81 0 0 1 8.863 8.865 8.809 8.809 0 0 1-8.863 8.864Zm0-16.716c-4.179 0-7.724 3.546-7.724 7.725s3.545 7.725 7.724 7.725c4.178 0 7.723-3.546 7.723-7.725s-3.419-7.725-7.723-7.725Z" fill="black"/><path d="M177.766 125.619c10.003.127 18.359-7.851 18.486-17.855l.506-32.038c0-.633-.506-1.266-1.266-1.266l-33.932-.633c-.633 0-1.266.506-1.266 1.266l-.507 32.038c0 10.004 7.977 18.361 17.979 18.488Z" fill="white"/><path d="M178.021 126.126h-.253c-4.938 0-9.623-2.026-13.294-5.699-3.546-3.672-5.445-8.357-5.318-13.423l.506-32.037c0-1.013.887-1.773 1.773-1.773l33.932.633c1.013 0 1.773.886 1.773 1.773l-.507 32.038c.127 10.383-8.356 18.488-18.612 18.488Zm-.253-1.14c9.749.127 17.726-7.598 17.852-17.222l.507-32.038c0-.253-.253-.633-.633-.633l-33.933-.633c-.253 0-.633.253-.633.633l-.506 32.038c0 4.685 1.646 9.118 5.064 12.537 3.292 3.419 7.597 5.318 12.282 5.318Z" fill="black"/><path d="M163.08 75.6a5.595 5.595 0 0 1-2.025.76h-.127v-.38c-.506-2.28-.76-4.686-.633-7.092 0-3.672.76-6.965 1.773-10.257 3.671 1.266 6.204 4.685 6.204 8.738-.127 3.545-2.279 6.711-5.192 8.23Z" fill="black"/><path d="M160.928 76.866c-.38 0-.633-.254-.633-.633v-.127c-.507-2.406-.76-4.939-.633-7.218 0-3.293.633-6.712 1.772-10.384 0-.127.127-.253.38-.38a.386.386 0 0 1 .507 0c3.925 1.267 6.583 5.192 6.457 9.37-.127 3.673-2.279 6.966-5.571 8.612-.38.38-1.266.633-2.279.76Zm1.646-17.349a28.883 28.883 0 0 0-1.52 9.37c-.126 2.154.127 4.306.507 6.586.506-.127 1.013-.38 1.266-.633 2.785-1.393 4.685-4.433 4.811-7.598.127-3.293-2.026-6.459-5.064-7.725Z" fill="black"/><path d="M180.803 99.786c3.039 1.14 6.204 1.52 9.496 1.646 16.966.254 31.02-13.296 31.273-30.265.254-16.968-13.294-31.025-30.387-31.278-12.534-.253-23.55 7.218-28.488 17.982-1.519-.633-3.418-.887-5.317-.38-3.039.76-5.445 3.292-6.078 6.332-1.139 5.318 2.912 10.003 8.103 10.13h.634c.126 1.013-.254 33.431-.254 33.431" fill="white"/><path d="M160.547 107.384h-1.266c.127-11.904.253-29.379.253-32.798-2.785-.127-5.191-1.266-6.837-3.42-1.646-2.025-2.279-4.811-1.772-7.47.633-3.42 3.292-6.079 6.457-6.838 1.646-.507 3.418-.38 5.191.253 5.318-11.144 16.46-18.109 28.741-17.855 8.483.126 16.207 3.545 22.031 9.497 5.824 5.952 8.863 13.93 8.736 22.414-.127 8.358-3.545 16.209-9.496 22.034-6.077 5.825-13.927 8.864-22.41 8.737-3.672-.126-6.837-.759-9.75-1.646l.38-1.14c2.786 1.014 5.824 1.52 9.243 1.647 8.103.126 15.7-2.913 21.398-8.485a30.273 30.273 0 0 0 9.116-21.147c.126-8.105-2.912-15.702-8.61-21.528-5.698-5.825-13.168-8.99-21.144-9.117-11.902-.253-22.917 6.585-27.855 17.602-.127.253-.507.506-.76.38-1.646-.633-3.292-.76-4.938-.38-2.785.76-5.064 3.039-5.571 5.952-.506 2.279.127 4.558 1.52 6.458 1.392 1.773 3.671 2.912 6.077 3.039h.633c.38 0 .633.253.633.507.38.76 0 29.885 0 33.304Z" fill="black"/><path d="M160.928 61.29c-2.28 0-4.179 1.772-4.179 4.052 0 2.28 1.773 4.179 4.052 4.179" fill="white"/><path d="M160.801 70.28c-2.659 0-4.685-2.152-4.685-4.811 0-2.66 2.152-4.686 4.812-4.686v1.267c-2.026 0-3.673 1.52-3.673 3.545 0 2.026 1.52 3.672 3.546 3.672v1.014Zm45.074 2.533c1.14 0 2.153-1.013 2.153-2.28 0-1.266-1.013-2.279-2.153-2.279-1.14 0-2.153 1.013-2.153 2.28-.126 1.266.887 2.279 2.153 2.279Zm4.178-8.737c-.126-.127-2.912-3.166-7.217-.887l-.633-1.14c5.191-2.785 8.736 1.14 8.736 1.14l-.886.887Zm-24.815 9.118c1.139 0 2.152-1.014 2.152-2.28 0-1.266-1.013-2.28-2.152-2.28-1.14 0-2.153 1.014-2.153 2.28 0 1.266.886 2.28 2.153 2.28Zm4.175-8.739c-.127-.126-2.912-3.165-7.217-.886l-.633-1.14c5.191-2.786 8.736 1.14 8.736 1.14l-.886.886Zm1.523 27.1c-6.205-1.267-5.446-7.092-5.446-7.218l1.267.253c0 .253-.76 4.685 4.432 5.825l-.253 1.14Z" fill="black"/><path d="m198.659 68.508.76 10.764c0 1.646-1.266 3.166-3.166 3.166h-.506" fill="white"/><path d="M196.253 83.07h-.506v-1.266h.506a2.54 2.54 0 0 0 2.533-2.533l-.76-10.764 1.266-.126.76 10.764c0 2.152-1.773 3.925-3.799 3.925Zm-.762-33.557a17.023 17.023 0 0 0 17.093-17.095 17.023 17.023 0 0 0-17.093-17.096 17.023 17.023 0 0 0-17.093 17.096c0 9.497 7.724 17.095 17.093 17.095Z" fill="black"/><path d="M195.491 50.146c-9.749 0-17.726-7.978-17.726-17.728 0-9.75 7.977-17.729 17.726-17.729 9.749 0 17.726 7.978 17.726 17.729 0 9.75-7.977 17.728-17.726 17.728Zm0-34.19a16.429 16.429 0 0 0-16.46 16.462 16.428 16.428 0 0 0 16.46 16.462c9.116 0 16.46-7.345 16.46-16.462 0-9.118-7.217-16.462-16.46-16.462Z" fill="black"/><path d="M171.31 61.543a18.697 18.697 0 0 0 18.738-18.741A18.697 18.697 0 0 0 171.31 24.06a18.698 18.698 0 0 0-18.739 18.742 18.698 18.698 0 0 0 18.739 18.741Z" fill="black"/><path d="M171.309 62.176c-10.762 0-19.371-8.738-19.371-19.375s8.736-19.374 19.371-19.374c10.762 0 19.372 8.737 19.372 19.374 0 10.637-8.61 19.375-19.372 19.375Zm0-37.61c-10.002 0-18.232 8.231-18.232 18.235s8.23 18.235 18.232 18.235c10.003 0 18.233-8.23 18.233-18.235 0-10.004-8.23-18.235-18.233-18.235Zm42.162 34.824c8.99 0 16.207-7.344 16.207-16.208 0-8.99-7.344-16.209-16.207-16.209s-16.206 7.345-16.206 16.209c0 8.99 7.217 16.209 16.206 16.209Z" fill="black"/><path d="M213.471 60.024c-9.243 0-16.84-7.598-16.84-16.842 0-9.245 7.597-16.842 16.84-16.842 9.243 0 16.839 7.598 16.839 16.842s-7.596 16.842-16.839 16.842Zm0-32.545c-8.736 0-15.7 6.965-15.7 15.703 0 8.737 6.964 15.702 15.7 15.702 8.736 0 15.7-7.091 15.7-15.702s-6.964-15.703-15.7-15.703Z" fill="black"/><path d="M533.295 173.739v271.878a14.158 14.158 0 0 1-14.181 14.183H78.501c-7.85 0-14.18-6.331-14.18-14.183V173.739c0-7.851 6.33-14.183 14.18-14.183h440.613c7.85 0 14.181 6.332 14.181 14.183Z" fill="white"/><path d="M519.114 460.433H78.501a14.753 14.753 0 0 1-14.814-14.816V173.739a14.753 14.753 0 0 1 14.814-14.816h440.613a14.753 14.753 0 0 1 14.813 14.816v271.878a14.753 14.753 0 0 1-14.813 14.816ZM78.501 160.189c-7.47 0-13.675 6.205-13.675 13.676v271.879c0 7.471 6.205 13.676 13.675 13.676h440.613c7.47 0 13.674-6.205 13.674-13.676V173.739c0-7.472-6.204-13.677-13.674-13.677H78.501v.127Z" fill="black"/><path d="M533.294 186.529H64.32v-14.31c0-6.964 5.698-12.663 12.662-12.663H520.76c6.963 0 12.661 5.699 12.661 12.663v14.31h-.127Z" fill="#3F2AFF"/><path d="M533.927 187.162H63.687v-14.943c0-7.345 5.95-13.296 13.294-13.296H520.76c7.343 0 13.294 5.951 13.294 13.296v14.943h-.127Zm-468.974-1.267h467.835v-13.676c0-6.585-5.444-12.03-12.028-12.03H76.981c-6.584 0-12.028 5.445-12.028 12.03v13.676Z" fill="#3F2AFF"/><path d="M502.402 179.817h-11.141c-.38 0-.634-.253-.634-.633v-11.777c0-.38.254-.633.634-.633h11.141c.38 0 .633.253.633.633v11.777c0 .38-.253.633-.633.633Zm-10.635-1.266h10.002v-10.637h-10.002v10.637Zm-9.495 0H471.13v1.266h11.142v-1.266Zm39.627-11.65-11.142 11.777.886.886 11.142-11.777-.886-.886Z" fill="black"/><path d="m511.643 166.901-.886.886 11.142 11.777.886-.886-11.142-11.777Z" fill="black"/><path d="M353.887 338.614H104.08a14.158 14.158 0 0 1-14.181-14.183v-95.227c0-7.851 6.33-14.183 14.181-14.183h249.807c7.85 0 14.18 6.332 14.18 14.183v95.227c0 7.725-6.33 14.183-14.18 14.183Z" fill="white"/><path d="M353.886 339.247H104.079a14.753 14.753 0 0 1-14.814-14.816v-95.227a14.753 14.753 0 0 1 14.814-14.816h249.807c8.23 0 14.814 6.585 14.814 14.816v95.227c0 8.104-6.711 14.816-14.814 14.816ZM104.079 215.528c-7.47 0-13.674 6.205-13.674 13.676v95.227c0 7.471 6.204 13.676 13.674 13.676h249.807c7.47 0 13.674-6.205 13.674-13.676v-95.227c0-7.471-6.204-13.676-13.674-13.676H104.079Z" fill="black"/><path d="M149.531 240.601h-39.503c-2.279 0-4.051-1.773-4.051-4.053 0-2.279 1.772-4.052 4.051-4.052h39.503c2.279 0 4.052 1.773 4.052 4.052 0 2.28-1.773 4.053-4.052 4.053Z" fill="white"/><path d="M149.531 241.234h-39.503c-2.659 0-4.685-2.026-4.685-4.686 0-2.659 2.026-4.685 4.685-4.685h39.503c2.659 0 4.685 2.026 4.685 4.685 0 2.66-2.026 4.686-4.685 4.686Zm-39.503-8.231c-1.899 0-3.545 1.519-3.545 3.545 0 1.9 1.519 3.546 3.545 3.546h39.503c1.899 0 3.545-1.519 3.545-3.546 0-1.899-1.519-3.545-3.545-3.545h-39.503Z" fill="black"/><path d="M140.162 320.506h-30.134c-2.279 0-4.051-1.773-4.051-4.053 0-2.279 1.772-4.052 4.051-4.052h30.134c2.279 0 4.052 1.773 4.052 4.052 0 2.28-1.773 4.053-4.052 4.053Z" fill="white"/><path d="M140.162 321.138h-30.134c-2.659 0-4.685-2.026-4.685-4.685s2.026-4.685 4.685-4.685h30.134c2.659 0 4.684 2.026 4.684 4.685s-2.025 4.685-4.684 4.685Zm-30.134-8.231c-1.899 0-3.545 1.52-3.545 3.546 0 1.899 1.519 3.546 3.545 3.546h30.134c1.899 0 3.545-1.52 3.545-3.546 0-1.9-1.519-3.546-3.545-3.546h-30.134Z" fill="black"/><path d="M192.075 320.506h-30.134c-2.279 0-4.052-1.773-4.052-4.053 0-2.279 1.773-4.052 4.052-4.052h30.134c2.279 0 4.051 1.773 4.051 4.052.127 2.28-1.772 4.053-4.051 4.053Z" fill="white"/><path d="M192.074 321.138h-30.133c-2.659 0-4.685-2.026-4.685-4.685s2.026-4.685 4.685-4.685h30.133c2.659 0 4.685 2.026 4.685 4.685.127 1.266-.38 2.279-1.266 3.292-.76.887-2.152 1.393-3.419 1.393Zm-30.133-8.231c-1.9 0-3.546 1.52-3.546 3.546 0 1.899 1.52 3.546 3.546 3.546h30.133c1.013 0 1.9-.38 2.659-1.14.633-.633 1.013-1.393.887-2.406 0-2.026-1.52-3.546-3.546-3.546h-30.133Z" fill="black"/><path d="M345.275 288.341h-42.542c-3.671 0-6.71-3.04-6.71-6.712v-42.548c0-3.672 3.039-6.712 6.71-6.712h42.542c3.672 0 6.711 3.04 6.711 6.712v42.548c0 3.672-2.912 6.712-6.711 6.712Z" fill="#FEBCB4"/><path d="M368.065 376.477V459.8H89.77v-83.323c0-7.852 6.33-14.183 14.181-14.183h249.807c7.977-.127 14.307 6.331 14.307 14.183Z" fill="white"/><path d="M368.065 460.433H89.77c-.38 0-.633-.253-.633-.633v-83.324a14.753 14.753 0 0 1 14.813-14.816h249.808c8.23 0 14.813 6.585 14.813 14.816V459.8c.127.38-.126.633-.506.633Zm-277.662-1.266h277.156V376.35c0-7.472-6.204-13.677-13.675-13.677H103.95c-7.47 0-13.674 6.205-13.674 13.677v82.817h.127Z" fill="black"/><path d="M149.531 387.873h-39.503c-2.279 0-4.051-1.773-4.051-4.052 0-2.28 1.772-4.052 4.051-4.052h39.503c2.279 0 4.052 1.772 4.052 4.052 0 2.279-1.773 4.052-4.052 4.052Z" fill="white"/><path d="M149.531 388.507h-39.503c-2.659 0-4.685-2.027-4.685-4.686s2.026-4.685 4.685-4.685h39.503c2.659 0 4.685 2.026 4.685 4.685s-2.026 4.686-4.685 4.686Zm-39.503-8.232c-1.899 0-3.545 1.52-3.545 3.546s1.519 3.546 3.545 3.546h39.503c1.899 0 3.545-1.52 3.545-3.546s-1.519-3.546-3.545-3.546h-39.503Z" fill="black"/><path d="M345.275 435.614h-42.542c-3.671 0-6.71-3.04-6.71-6.712v-42.548c0-3.672 3.039-6.712 6.71-6.712h42.542c3.672 0 6.711 3.04 6.711 6.712v42.548c0 3.672-2.912 6.712-6.711 6.712Z" fill="#FEBCB4"/><path d="M155.482 232.75s-2.279 39.509-37.097 52.552l-7.977-24.06 13.801-25.96 21.398-.633 9.875-1.899Z" fill="black"/><path d="M118.385 285.935h-.254l-.379-.38-7.977-24.06v-.506l13.801-25.96c.126-.253.253-.38.506-.38l21.398-.633 9.622-1.9c.254 0 .38 0 .507.127.126.127.253.38.253.507.127.38-2.659 40.142-37.477 53.185.126 0 .126 0 0 0Zm-7.344-24.693 7.723 23.3c30.894-11.903 35.579-45.461 36.085-51.033l-8.863 1.773-21.144.633-13.801 25.327Z" fill="black"/><path d="M170.169 261.748c1.266-.253 2.659-1.013 3.545-2.153 1.773-2.532 1.266-5.951-1.266-7.724-.506-.38-11.268-8.105-27.348-5.319-3.039.507-5.065 3.419-4.432 6.332.507 3.039 3.419 5.065 6.331 4.559 11.268-1.9 18.992 3.419 19.118 3.419 1.14.76 2.659 1.139 4.052.886Z" fill="white"/><path d="M169.284 262.381c-1.266 0-2.406-.38-3.419-1.013 0 0-.126-.126-.253-.126-2.532-1.393-9.369-4.812-18.612-3.293-1.519.253-3.292-.126-4.558-1.139s-2.279-2.406-2.532-3.926c-.38-1.52 0-3.292 1.013-4.559 1.012-1.266 2.405-2.279 3.925-2.532 16.459-2.913 27.728 5.318 27.854 5.445 2.786 2.026 3.292 5.825 1.266 8.611a5.869 5.869 0 0 1-3.798 2.406c-.253.126-.506.126-.886.126Zm-2.912-2.152c0 .126.126.126 0 0 1.139.759 2.532 1.013 3.671.886 1.267-.253 2.406-1.013 3.166-1.899 1.519-2.153 1.139-5.319-1.14-6.839-.126-.126-10.888-7.977-26.842-5.191-1.266.253-2.405 1.013-3.292 2.026-.759 1.139-1.012 2.406-.759 3.672s1.013 2.406 2.026 3.292c1.139.76 2.405 1.14 3.671.887 9.623-1.773 16.84 1.646 19.499 3.166Zm-54.064-14.943-.633 1.013 44.947 30.772.633-1.013-44.947-30.772Z" fill="black"/><path d="M167.511 283.909c6.457-9.371 4.052-22.287-5.318-28.746l-44.947-30.898c-9.37-6.458-22.284-4.052-28.742 5.319-6.457 9.371-4.051 22.287 5.318 28.745l45.834 31.152" fill="white"/><path d="m139.149 289.987-45.834-31.152c-9.622-6.711-12.154-20.007-5.444-29.632 6.71-9.624 20.005-12.156 29.627-5.445l44.948 30.899c9.623 6.711 12.155 20.007 5.444 29.631l-1.013-.759c6.205-8.991 3.925-21.654-5.191-27.986l-44.947-30.898c-8.99-6.205-21.651-3.926-27.982 5.192-6.204 8.991-3.925 21.654 5.191 27.985l45.834 31.152-.633 1.013Z" fill="black"/><path d="m135.098 286.694 23.676 15.956c1.013.76 2.153 1.013 3.292 1.013 1.646 0 3.419-.886 4.305-2.406 1.646-2.533 1.14-5.952-1.393-7.724l-16.206-11.144" fill="white"/><path d="M161.939 304.17c-1.013 0-2.405-.254-3.672-1.14l-23.676-15.956.759-1.013 23.677 15.956c1.013.76 2.153.886 2.912.886 1.52 0 3.039-.886 3.799-2.152 1.519-2.28 1.012-5.319-1.267-6.838l-16.206-11.144.76-1.013 16.206 11.143c2.786 1.9 3.545 5.826 1.519 8.611-1.012 1.52-2.912 2.66-4.811 2.66Z" fill="black"/><path d="m145.734 282.769 22.537 14.689c1.013.76 2.153 1.013 3.292 1.013 1.646 0 3.419-.886 4.305-2.406 1.646-2.533 1.14-5.952-1.392-7.725l-24.943-16.208" fill="white"/><path d="M171.561 299.105c-1.013 0-2.406-.254-3.672-1.14l-22.537-14.689.633-1.013 22.537 14.689c1.013.76 2.153.886 2.912.886 1.52 0 3.039-.886 3.799-2.152 1.519-2.28 1.013-5.319-1.266-6.839l-24.943-16.208.633-1.014 24.943 16.209c2.785 2.026 3.545 5.825 1.519 8.611-.76 1.52-2.659 2.66-4.558 2.66Z" fill="black"/><path d="m159.027 266.433 17.726 12.284c1.013.759 2.152 1.013 3.292 1.013 1.646 0 3.418-.887 4.305-2.406 1.646-2.533 1.139-5.952-1.393-7.725l-24.183-16.715" fill="white"/><path d="M180.046 280.236c-1.012 0-2.405-.253-3.671-1.139l-17.726-12.284.76-1.013 17.725 12.284c1.013.759 2.026.886 2.912.886 1.52 0 3.039-.886 3.799-2.153 1.519-2.279 1.013-5.318-1.266-6.838l-24.31-16.715.76-1.013 24.183 16.715c2.785 1.9 3.545 5.825 1.519 8.611-.886 1.646-2.785 2.659-4.685 2.659Z" fill="black"/><path d="m149.659 272.259 24.057 16.462c1.013.759 2.152 1.013 3.292 1.013 1.646 0 3.418-.887 4.304-2.406 1.646-2.533 1.14-5.952-1.392-7.725l-24.816-16.209" fill="white"/><path d="M177.006 290.24c-1.013 0-2.406-.253-3.672-1.14l-24.057-16.462.76-1.013 24.056 16.462c1.013.76 2.026.887 2.913.887 1.519 0 3.038-.887 3.798-2.153 1.519-2.28 1.013-5.319-1.266-6.838l-24.816-16.209.633-1.013 24.816 16.209c2.785 2.026 3.545 5.825 1.519 8.611-.886 1.646-2.785 2.659-4.684 2.659Z" fill="black"/><path d="m118.385 285.302-82.551-57.111c-7.597-5.445-12.535-13.803-13.548-23.174-1.013-9.244 2.28-18.615 8.736-25.326l65.966-68.508c12.534-13.043 33.426-13.043 45.96 0 11.775 12.283 11.902 31.658.127 44.068l-39.757 41.788 52.038 35.711c-15.826 12.789-28.108 29.505-35.451 48.5l-1.52 4.052Z" fill="white"/><path d="M118.385 285.935c-.127 0-.253 0-.38-.127l-82.552-57.111c-7.596-5.572-12.66-14.056-13.674-23.553-1.013-9.371 2.28-18.742 8.737-25.833l65.965-68.508c6.204-6.332 14.434-10.004 23.423-10.004 8.863 0 17.22 3.546 23.424 10.004 12.028 12.536 12.155 32.291.126 44.954l-39.25 41.282 51.405 35.33c.127.127.253.254.253.507s-.126.38-.253.506c-15.826 12.79-27.981 29.379-35.198 48.247l-1.52 4.052c-.126 0-.253.254-.506.254Zm1.773-183.87c-8.61 0-16.587 3.419-22.538 9.498L31.655 180.07c-6.33 6.712-9.37 15.829-8.61 24.82 1.013 8.991 5.825 17.349 13.295 22.667l81.918 56.605 1.266-3.419c7.217-18.615 19.372-35.33 34.946-48.247l-51.279-34.95c-.126-.127-.253-.254-.253-.507 0-.126 0-.38.127-.506l39.756-41.789a31.328 31.328 0 0 0-.126-43.308c-6.078-5.952-14.054-9.371-22.537-9.371Z" fill="black"/><path d="m88.25 202.358-1.013-.76c1.52-1.773 6.33-2.279 10.762-2.786 2.026-.253 4.811-.506 5.571-.886-.127-.127-.127-.127-.38-.254-4.052-2.786-12.535-1.266-12.535-1.266l-.253-1.266c.38-.127 8.863-1.52 13.548 1.393.253.253 1.139.759 1.013 1.519-.254 1.14-2.279 1.267-6.584 1.773-3.925.507-8.99 1.013-10.13 2.533Z" fill="black"/><path d="M285.262 171.84c-.633 2.406-3.292 3.799-6.204 3.419-3.165-.507-5.318-3.166-4.938-5.952 0-.126 1.266-9.75-.253-22.287-.38-2.786 1.899-5.065 4.938-5.192 3.165-.127 5.951 2.026 6.204 4.812 1.646 13.803.38 24.187.253 24.567.127.253.127.506 0 .633Z" fill="white"/><path d="M280.197 175.891c-.379 0-.886 0-1.266-.127-3.418-.506-5.824-3.545-5.444-6.584v-.127c.253-2.406 1.139-11.144-.253-22.034-.127-1.266.253-2.786 1.139-3.799 1.14-1.266 2.659-1.899 4.305-2.026 3.419-.127 6.457 2.279 6.837 5.319 1.52 13.296.507 23.426.253 24.693 0 .253 0 .633-.126.886-.507 2.28-2.786 3.799-5.445 3.799Zm-1.012-33.431h-.254c-1.392 0-2.659.633-3.545 1.52-.76.886-1.013 1.773-.886 2.912 1.266 11.017.633 19.882.253 22.288v.126c-.38 2.406 1.646 4.812 4.432 5.192 2.658.507 4.937-.886 5.444-2.912 0-.127 0-.127.126-.254v-.506c.254-.887 1.267-11.144-.253-24.313-.253-2.153-2.659-4.053-5.317-4.053Z" fill="black"/><path d="M275.004 171.08c-.633 2.406-3.292 3.799-6.204 3.419-3.165-.507-5.318-3.166-4.938-5.952 0-.127 1.266-9.751-.253-22.287-.38-2.786 1.899-5.066 4.938-5.192 3.165-.127 5.951 2.026 6.204 4.812 1.646 13.803.38 24.187.253 24.566.127.254.127.38 0 .634Z" fill="white"/><path d="M269.939 175.258c-.38 0-.886 0-1.266-.127-3.419-.506-5.824-3.545-5.444-6.584v-.127c.253-2.406 1.139-11.144-.254-22.034-.126-1.266.254-2.786 1.14-3.799 1.139-1.266 2.659-1.899 4.305-2.026 3.545-.127 6.457 2.279 6.837 5.318 1.519 13.297.506 23.427.253 24.694 0 .253 0 .506-.127.759-.379 2.28-2.658 3.926-5.444 3.926Zm-1.013-33.557h-.253c-1.393 0-2.659.633-3.545 1.519-.76.887-1.013 1.773-.886 2.913 1.266 11.017.633 19.881.253 22.287v.127c-.38 2.406 1.646 4.812 4.431 5.191 2.659.507 4.938-.886 5.445-2.912v-.76c.253-.886 1.266-11.143-.254-24.313-.126-2.153-2.532-4.052-5.191-4.052Z" fill="black"/><path d="M264.749 171.08c-.633 2.406-3.292 3.799-6.204 3.419-3.165-.507-5.318-3.166-4.938-5.952 0-.127 1.266-9.751-.253-22.287-.38-2.786 1.899-5.066 4.938-5.192 3.165-.127 5.951 2.026 6.204 4.812 1.646 13.803.38 24.187.253 24.566v.634Z" fill="white"/><path d="M259.684 175.258c-.38 0-.886 0-1.266-.127-3.418-.506-5.824-3.545-5.444-6.584v-.127c.253-2.406 1.139-11.144-.253-22.034-.127-1.266.253-2.786 1.139-3.799 1.14-1.266 2.659-1.899 4.305-2.026 3.545-.127 6.457 2.279 6.837 5.318 1.519 13.297.506 23.427.253 24.694 0 .253 0 .633-.126.886-.507 2.153-2.912 3.799-5.445 3.799Zm-1.139-33.557h-.254c-1.392 0-2.658.633-3.545 1.519-.759.887-1.013 1.773-.886 2.913 1.266 11.017.633 19.881.253 22.287v.127c-.38 2.406 1.646 4.812 4.432 5.191 2.659.507 4.938-.886 5.444-2.912 0-.127 0-.127.127-.253v-.507c.253-.886 1.266-11.143-.254-24.313-.253-2.153-2.658-4.052-5.317-4.052Z" fill="black"/><path d="M254.495 171.84c-.633 2.406-3.292 3.799-6.204 3.419-3.166-.507-5.318-3.166-4.938-5.952 0-.126 1.266-9.75-.253-22.287-.38-2.786 1.899-5.065 4.937-5.192 3.166-.127 5.951 2.026 6.204 4.812 1.646 13.803.38 24.187.254 24.567.126.253.126.506 0 .633Z" fill="white"/><path d="M249.43 175.891c-.38 0-.886 0-1.266-.127-3.419-.506-5.824-3.545-5.445-6.584v-.127c.254-2.406 1.14-11.144-.253-22.034-.126-1.266.253-2.786 1.14-3.799 1.139-1.266 2.659-1.899 4.304-2.026 3.419-.127 6.458 2.279 6.838 5.319 1.519 13.296.506 23.426.253 24.693 0 .253 0 .633-.127.886-.506 2.28-2.785 3.799-5.444 3.799Zm-1.14-33.431h-.253c-1.393 0-2.659.633-3.545 1.52-.76.886-1.013 1.773-.886 2.912 1.266 11.017.633 19.882.253 22.288v.126c-.38 2.406 1.646 4.812 4.431 5.192 2.659.507 4.938-.886 5.445-2.912 0-.127 0-.127.126-.254v-.506c.254-.887 1.266-11.144-.253-24.313-.253-2.153-2.659-4.053-5.318-4.053Z" fill="black"/><path d="m446.944 400.537-47.733 37.103-.254.253-2.405 1.9c-.38.38-.886.633-1.266 1.013.126.886.253 1.52.38 2.406.126.38.126.76.253 1.14.633 3.672 1.392 7.344 2.279 11.27.253 1.393.633 2.786 1.013 4.179h-70.017l-1.266-8.105c-1.013-5.951-1.14-11.903-.507-17.728 1.899-18.615 11.269-35.964 26.209-47.614.506-.38 1.14-.886 1.519-1.266l49.886-38.749c5.571-4.306 12.028-6.712 18.612-7.092.886-.126 1.646-.126 2.532-.126h.38c8.863.126 17.726 3.672 24.183 10.383a25.45 25.45 0 0 1 2.406 2.786c11.522 15.07 8.736 36.724-6.204 48.247Z" fill="white"/><path d="M399.21 460.433h-70.017c-.253 0-.633-.253-.633-.506l-1.266-8.105c-1.013-5.825-1.139-11.777-.506-17.855 1.899-18.868 11.522-36.343 26.462-47.993.253-.254.506-.38.886-.634.253-.253.507-.379.76-.633l49.885-38.749c5.571-4.306 12.029-6.838 18.866-7.218.886-.127 1.646-.127 2.532-.127h.38c9.369.127 18.232 3.799 24.689 10.637a25.342 25.342 0 0 1 2.406 2.786c11.648 15.323 8.863 37.23-6.204 49.007l-47.86 37.103-.253.253-2.406 1.9c-.126.126-.379.38-.633.506-.126.127-.253.127-.38.253 0 .38.127.634.127.887.127.38.127.886.253 1.266 0 .127.127.38.127.507 0 .126 0 .253.127.506.506 3.039 1.139 5.952 1.772 8.991l.507 2.279c.253 1.267.506 2.28.759 3.546l.253.76c0 .127 0 .38-.126.506-.127 0-.253.127-.507.127Zm-69.637-1.266h68.751c-.253-1.267-.633-2.28-.886-3.546l-.507-2.279c-.759-3.166-1.266-6.205-1.772-8.991 0-.127-.127-.38-.127-.507 0-.126 0-.253-.126-.506-.127-.507-.127-1.013-.254-1.266-.126-.38-.126-.887-.253-1.267 0-.253 0-.38.127-.506.253-.254.506-.38.759-.633.254-.127.38-.254.507-.38l2.659-2.153 47.733-37.103c14.687-11.271 17.346-32.671 6.077-47.361-.759-1.013-1.519-1.772-2.405-2.785-6.204-6.459-14.688-10.131-23.804-10.258h.127c-.886 0-1.646 0-2.406.127-6.584.38-12.914 2.786-18.359 6.965l-49.885 38.749c-.253.253-.506.38-.76.633a3.834 3.834 0 0 1-.886.633c-14.56 11.397-24.056 28.619-26.082 47.234-.633 5.952-.507 11.777.506 17.602l1.266 7.598Z" fill="black"/><path d="m383.639 454.735-1.139-.506c2.152-5.445 9.875-9.118 13.294-10.637-2.279-.633-6.837-1.013-12.788 2.026l-.633-1.14c8.863-4.685 15.067-1.646 15.447-1.519.253.126.38.379.38.633 0 .253-.127.506-.38.506-.253.127-11.649 4.306-14.181 10.637Z" fill="black"/><path d="m540.892 370.271-3.039 65.216-.886 16.968v1.52l-.253 5.952H398.073l.253-4.179.886-17.602v-.38l1.646-35.33 1.773-38.496c.633-12.41 9.749-22.287 21.397-24.313.76-.127 1.393-.254 2.153-.254h.126c1.14-.126 2.279-.126 3.419-.126l20.891 1.013 35.198 1.646 4.685.253 10.889.507 11.142.506 3.925.253c1.772.127 3.545.38 5.191.887.886.253 1.519.506 2.406.76.506.126 1.012.38 1.519.633l2.279 1.139c8.103 4.179 13.548 13.297 13.041 23.427Z" fill="white"/><path d="M536.84 460.434H398.073c-.127 0-.38-.127-.507-.254-.127-.126-.127-.253-.127-.506l.254-4.179.886-17.602v-.38l3.545-73.7c.633-12.536 9.623-22.793 21.904-24.946.76-.127 1.393-.253 2.279-.253h.127c1.139-.127 2.279-.127 3.418-.127l20.891 1.013 50.772 2.406 11.142.507 3.925.253c2.026.127 3.672.38 5.318.886.506.127.886.254 1.266.38.38.127.76.254 1.266.38l1.14.38.506.253c.38.254.76.38 1.266.633.38.254.887.38 1.266.634 8.737 4.685 13.928 14.182 13.548 24.313l-3.039 65.215-.886 16.969v1.393l-.253 5.952c-.507.126-.76.38-1.14.38Zm-138.134-1.267h137.628l.253-6.711.886-16.969 3.039-65.215c.506-9.624-4.558-18.615-12.788-23.174-.38-.127-.76-.38-1.139-.506-.38-.254-.887-.38-1.267-.634-.126 0-.379-.126-.506-.253-.38-.127-.76-.253-1.013-.38-.506-.126-.886-.253-1.266-.38-.38-.126-.886-.253-1.266-.38-1.519-.506-3.165-.759-5.065-.886l-3.925-.253-26.588-1.267-55.963-2.659c-1.14 0-2.153 0-3.292.127h-.253c-.76 0-1.267.126-2.026.253-11.775 2.026-20.385 11.777-21.018 23.68l-3.545 73.7v.38l-.886 21.527Z" fill="black"/><path d="M605.465 459.674h-72.169c1.266-2.153 2.532-4.432 3.671-6.459.127-.126.127-.253.254-.506-.127-.127-.127-.253-.254-.38-.253-.38-.506-.633-.633-1.013l-34.565-53.565c-10.256-15.956-5.698-37.103 10.256-47.487 4.178-2.659 8.736-4.306 13.294-5.065 1.646-.254 3.545-.38 5.318-.38 11.142 0 22.284 5.571 28.868 15.702l34.185 53.185c9.369 13.55 13.548 30.012 11.775 45.968Z" fill="white"/><path d="M605.466 460.307h-72.169c-.254 0-.38-.126-.507-.38-.126-.253-.126-.506 0-.633.76-1.266 1.393-2.533 2.153-3.799.506-1.013 1.013-1.773 1.519-2.659 0 0 0-.127.127-.127 0 0 0-.126-.127-.126-.127-.127-.127-.254-.253-.254-.127-.253-.38-.506-.507-.759l-34.565-53.566c-10.382-16.209-5.698-37.863 10.382-48.373 4.178-2.659 8.737-4.432 13.548-5.192 1.646-.253 3.545-.38 5.444-.38 11.902 0 22.917 5.952 29.374 15.956l34.186 53.185c9.243 13.676 13.547 30.138 11.775 46.347.253.507 0 .76-.38.76Zm-71.03-1.266h70.65a68.157 68.157 0 0 0-11.648-45.081l-34.186-53.186c-6.204-9.624-16.966-15.449-28.488-15.449-1.772 0-3.671.127-5.191.38-4.558.76-8.863 2.406-13.041 4.939-15.573 10.13-20.131 31.025-10.002 46.6l34.565 53.566s0 .126.127.126c0 .127.126.38.38.507.126.127.126.253.253.253.126.127.126.253.253.253.253.254.253.507.127.76 0 .127 0 .127-.127.127 0 .126-.127.253-.253.38-.507.886-1.013 1.646-1.393 2.659-.886 1.266-1.393 2.279-2.026 3.166Z" fill="black"/><path d="M542.286 455.241c-3.672 0-6.078-1.139-6.205-1.266a.695.695 0 0 1-.379-.633c0-.253.126-.507.379-.507.127 0 13.168-4.685 16.08-12.03l1.14.507c-2.532 6.332-11.522 10.637-15.194 12.157 2.406.759 7.977 1.266 14.814-2.28l.633 1.14c-4.558 2.279-8.356 2.912-11.268 2.912ZM433.397 295.685a11.349 11.349 0 0 0 11.396-11.397 11.35 11.35 0 0 0-11.396-11.397 11.35 11.35 0 0 0-11.395 11.397c-.126 6.332 5.065 11.397 11.395 11.397Zm63.687 23.808c8.737 0 15.827-7.092 15.827-15.829 0-8.738-7.09-15.829-15.827-15.829-8.736 0-15.826 7.091-15.826 15.829 0 8.737 7.09 15.829 15.826 15.829Z" fill="black"/><path d="M497.084 319.998c-8.989 0-16.333-7.344-16.333-16.335s7.344-16.336 16.333-16.336c8.99 0 16.333 7.345 16.333 16.336s-7.343 16.335-16.333 16.335Zm0-31.531c-8.356 0-15.194 6.838-15.194 15.196s6.838 15.196 15.194 15.196c8.356 0 15.194-6.838 15.194-15.196s-6.838-15.196-15.194-15.196Z" fill="black"/><path d="M504.426 332.409a9.62 9.62 0 0 0 9.623-9.624 9.619 9.619 0 0 0-9.623-9.624 9.619 9.619 0 0 0-9.622 9.624 9.62 9.62 0 0 0 9.622 9.624Z" fill="black"/><path d="M504.426 333.042a10.214 10.214 0 0 1-10.256-10.257 10.214 10.214 0 0 1 10.256-10.257 10.214 10.214 0 0 1 10.256 10.257 10.214 10.214 0 0 1-10.256 10.257Zm0-19.248c-4.938 0-8.989 4.052-8.989 8.991s4.051 8.991 8.989 8.991c4.938 0 8.99-4.052 8.99-8.991s-4.052-8.991-8.99-8.991Z" fill="black"/><path d="M506.959 344.945c4.305 0 7.85-3.545 7.85-7.851 0-4.305-3.545-7.851-7.85-7.851s-7.85 3.546-7.85 7.851c0 4.432 3.545 7.851 7.85 7.851Z" fill="black"/><path d="M506.961 345.578c-4.685 0-8.483-3.672-8.483-8.484 0-4.686 3.671-8.485 8.483-8.485 4.811 0 8.483 3.673 8.483 8.485 0 4.812-3.799 8.484-8.483 8.484Zm0-15.702c-3.925 0-7.217 3.292-7.217 7.218 0 3.925 3.292 7.218 7.217 7.218s7.217-3.293 7.217-7.218c0-3.926-3.292-7.218-7.217-7.218Z" fill="black"/><path d="M505.061 356.849c3.546 0 6.458-2.913 6.458-6.458 0-3.546-2.912-6.459-6.458-6.459-3.545 0-6.457 2.913-6.457 6.459-.127 3.545 2.786 6.458 6.457 6.458Z" fill="black"/><path d="M505.059 357.482a7.08 7.08 0 0 1-7.09-7.092 7.079 7.079 0 0 1 7.09-7.091 7.079 7.079 0 0 1 7.09 7.091c0 4.052-3.165 7.092-7.09 7.092Zm0-13.043a5.944 5.944 0 0 0-5.951 5.951 5.944 5.944 0 0 0 5.951 5.952 5.944 5.944 0 0 0 5.951-5.952c-.127-3.292-2.659-5.951-5.951-5.951Z" fill="black"/><path d="M502.022 362.927a3.675 3.675 0 0 0 3.672-3.672 3.675 3.675 0 0 0-3.672-3.672 3.674 3.674 0 0 0-3.671 3.672 3.674 3.674 0 0 0 3.671 3.672Z" fill="#FEBCB4"/><path d="M498.73 370.905a4.81 4.81 0 0 0 4.812-4.812 4.81 4.81 0 0 0-4.812-4.812 4.81 4.81 0 0 0-4.811 4.812 4.81 4.81 0 0 0 4.811 4.812Z" fill="black"/><path d="M498.73 371.538a5.404 5.404 0 0 1-5.444-5.445 5.404 5.404 0 0 1 5.444-5.445 5.404 5.404 0 0 1 5.444 5.445 5.404 5.404 0 0 1-5.444 5.445Zm0-9.624c-2.279 0-4.178 1.9-4.178 4.179 0 2.28 1.899 4.179 4.178 4.179s4.178-1.899 4.178-4.179c.127-2.279-1.899-4.179-4.178-4.179Z" fill="black"/><path d="M428.965 305.689a8.214 8.214 0 0 0 8.23-8.231 8.214 8.214 0 0 0-8.23-8.231 8.214 8.214 0 0 0-8.23 8.231c.127 4.559 3.799 8.231 8.23 8.231Z" fill="white"/><path d="M428.965 306.322c-4.811 0-8.736-3.925-8.736-8.737s3.925-8.738 8.736-8.738c4.811 0 8.736 3.926 8.736 8.738.127 4.685-3.925 8.737-8.736 8.737Zm0-16.462c-4.178 0-7.597 3.419-7.597 7.598s3.419 7.598 7.597 7.598c4.178 0 7.597-3.419 7.597-7.598s-3.292-7.598-7.597-7.598Z" fill="black"/><path d="M467.583 357.102c-9.749-.38-17.346-8.611-16.966-18.362l1.139-28.745c.127-1.899 1.646-3.546 3.672-3.419l31.78-3.926-1.266 37.357c-.38 9.877-8.61 17.475-18.359 17.095Z" fill="white"/><path d="M468.342 357.735h-.76c-4.938-.253-9.369-2.279-12.661-5.825-3.418-3.672-5.064-8.231-4.811-13.17l1.139-28.745c.127-2.28 2.026-4.053 4.179-3.926l31.653-3.925c.253 0 .38 0 .506.126.127.127.253.253.253.507l-1.266 37.356c-.253 4.939-2.279 9.498-5.824 12.79-3.545 3.166-7.85 4.812-12.408 4.812Zm-13.168-50.526c-1.519 0-2.785 1.266-2.912 2.786l-1.139 28.745c-.127 4.559 1.392 8.864 4.558 12.283 3.165 3.42 7.343 5.319 11.901 5.446 4.558.253 8.863-1.393 12.282-4.559 3.418-3.166 5.318-7.345 5.444-11.904l1.266-36.596-31.02 3.799h-.38Z" fill="black"/><path d="M484.422 309.362c.633.38 1.266.633 2.026.886h.126v-.253c.634-2.153.887-4.432 1.013-6.838.127-3.546-.253-6.838-1.266-10.004-3.672 1.013-6.204 4.305-6.33 8.231-.38 3.292 1.519 6.332 4.431 7.978Z" fill="black"/><path d="M486.574 310.755h-.38a15.532 15.532 0 0 1-2.153-.887c-3.292-1.773-5.191-5.065-4.811-8.737.127-4.053 2.912-7.725 6.837-8.738.38-.127.633.127.76.38 1.013 3.039 1.266 6.458 1.266 10.257-.127 2.913-.506 5.065-1.013 6.965v.127c.127.379-.126.633-.506.633Zm-.633-16.969a8.212 8.212 0 0 0-5.445 7.471c-.38 3.166 1.266 6.079 4.052 7.472.38.253.886.506 1.266.633.506-1.773.76-3.673.886-6.332.38-3.292 0-6.458-.759-9.244Z" fill="black"/><path d="M465.938 332.029c-2.912.886-6.204 1.266-9.242 1.266-16.46-.633-29.501-14.436-28.868-31.025.633-16.462 14.434-29.505 31.02-28.872 12.281.507 22.537 8.231 26.715 18.742 1.013-.38 1.899-.507 3.039-.507 4.431.127 7.977 3.926 7.85 8.485-.127 4.432-3.925 7.977-8.483 7.851h-.633l-1.266 30.392" fill="white"/><path d="M486.573 338.107h-1.266l1.266-30.391c0-.38.253-.633.633-.633h.633c4.179.126 7.724-3.166 7.85-7.218 0-2.027-.759-3.926-2.025-5.446-1.267-1.393-3.292-2.279-5.192-2.406-1.139 0-1.899.127-2.785.507-.38.126-.633 0-.76-.38-4.178-10.764-14.56-17.982-26.209-18.488-16.206-.633-29.88 12.156-30.513 28.365-.633 16.209 12.155 29.885 28.361 30.519 3.292 0 6.331-.38 8.99-1.267l.379 1.267c-2.785.886-6.077 1.266-9.369 1.266-16.84-.633-30.134-14.816-29.501-31.658.633-16.842 14.814-30.139 31.653-29.505 11.902.506 22.538 7.724 27.096 18.615a8.97 8.97 0 0 1 2.658-.38c2.279.126 4.432 1.139 6.078 2.786 1.519 1.646 2.406 3.925 2.406 6.205-.127 2.279-1.14 4.432-2.786 6.078-1.646 1.519-3.925 2.406-6.204 2.406l-1.393 29.758Z" fill="black"/><path d="M487.209 295.558c2.28.127 3.926 1.9 3.799 4.179-.126 2.28-1.899 3.926-4.178 3.799" fill="white"/><path d="M487.083 304.297h-.253l.126-1.267c1.013 0 1.773-.253 2.533-.886.633-.633 1.14-1.393 1.14-2.406.126-1.9-1.267-3.546-3.293-3.672l.127-1.267c2.659.127 4.558 2.153 4.432 4.812a5.964 5.964 0 0 1-1.393 3.293c-1.14 1.013-2.153 1.393-3.419 1.393Zm-43.302-1.647c.127-1.266-.76-2.533-1.9-2.659-1.139-.127-2.279.886-2.406 2.152-.126 1.267.76 2.533 1.9 2.66 1.14.126 2.279-.76 2.406-2.153Zm-6.078-7.091-.886-.887s3.798-3.545 8.863-.506l-.633 1.14c-4.052-2.66-7.217.126-7.344.253Zm26.969 9.118c.127-1.267-.76-2.533-1.899-2.66-1.14-.126-2.28.887-2.406 2.153-.127 1.266.759 2.533 1.899 2.659 1.266.127 2.279-.759 2.406-2.152Zm-5.951-7.092-.886-.887s3.798-3.545 8.863-.506l-.633 1.139c-4.052-2.532-7.217.127-7.344.254Zm-3.547 27.606-.126-1.267c5.318-.633 5.065-5.445 5.065-5.698l1.266-.127c-.253.254.127 6.332-6.205 7.092Zm-4.81-9.878c-.633 0-2.152-.126-3.165-1.139-.633-.633-.887-1.267-.76-2.28.127-.886.506-1.519 1.14-2.026.886-.633 1.899-.76 2.659-.76l1.013-9.497 1.266.127-1.013 10.13c0 .127-.126.38-.253.38s-.253.127-.507.127c0 0-1.393-.253-2.279.506-.38.254-.633.76-.633 1.267 0 .633.126 1.013.38 1.266.633.76 2.026.76 2.406.76l.126 1.266c-.126-.127-.253-.127-.38-.127Zm-13.8-58.757c-10.129-1.773-19.625 4.939-21.397 14.943-1.773 10.004 4.938 19.628 14.94 21.401 10.003 1.772 19.625-4.939 21.398-14.943" fill="black"/><path d="M433.398 293.786c-1.139 0-2.279-.126-3.418-.38-10.382-1.899-17.346-11.776-15.447-22.16 1.899-10.384 11.775-17.222 22.157-15.449l-.253 1.266c-9.623-1.646-18.992 4.685-20.765 14.436-1.772 9.624 4.685 18.995 14.434 20.768 9.623 1.772 18.992-4.686 20.765-14.436l1.266.253c-1.013 4.938-3.672 9.371-7.977 12.283-3.165 2.28-6.963 3.419-10.762 3.419Z" fill="black"/><path d="M444.033 284.162c.38.759.759 1.266 1.139 2.026 5.191 8.357 14.814 13.676 25.323 12.663 14.814-1.266 25.702-14.436 24.309-29.125-1.266-14.816-15.7-14.69-30.513-13.423-11.142 1.013-18.612-2.533-21.904 7.344" fill="black"/><path d="M468.089 299.611c-9.37 0-18.486-4.938-23.55-13.043-.254-.38-.38-.76-.633-1.139-.254-.38-.38-.76-.634-1.14l1.14-.507c.127.38.38.76.506 1.013.254.38.38.76.633 1.14 5.192 8.358 14.941 13.296 24.69 12.283 6.964-.633 13.421-3.925 17.852-9.37 4.432-5.446 6.584-12.157 6.078-19.122-1.266-14.183-14.814-14.183-29.881-12.79a55.057 55.057 0 0 1-7.85.127c-6.837-.127-11.268-.253-13.674 6.711l-1.14-.379c2.533-7.852 7.977-7.725 14.814-7.598 2.279 0 4.938.126 7.724-.127 15.067-1.266 29.754-1.266 31.02 13.93.633 7.218-1.52 14.436-6.204 20.007-4.685 5.699-11.269 9.118-18.612 9.751-.633.253-1.52.253-2.279.253Z" fill="black"/><path d="M475.811 257.442c-1.013-11.017-10.762-19.121-21.651-18.235-11.015 1.013-19.118 10.764-18.232 21.654.253 2.027.76 3.926 1.393 5.826.633 1.392 1.266 2.785 2.279 4.052 1.139 1.393 2.279 2.786 3.672 3.799" fill="black"/><path d="M442.894 275.045c-1.266-1.14-2.532-2.406-3.672-3.926-1.013-1.266-1.646-2.659-2.405-4.179a17.813 17.813 0 0 1-1.393-5.952c-1.013-11.27 7.47-21.274 18.739-22.413 5.444-.507 10.888 1.266 15.067 4.812 4.178 3.545 6.837 8.611 7.343 13.929l-1.266.127c-.506-5.192-2.912-9.751-6.837-13.17-3.925-3.419-8.99-4.939-14.054-4.432-10.762 1.013-18.612 10.384-17.599 21.147.253 1.9.759 3.799 1.392 5.699.633 1.393 1.266 2.786 2.153 3.925 1.139 1.393 2.279 2.786 3.545 3.673l-1.013.76Zm50.137 23.933c8.356 0 15.194-6.838 15.194-15.196s-6.838-15.196-15.194-15.196c-8.356 0-15.194 6.838-15.194 15.196s6.711 15.196 15.194 15.196Z" fill="black"/><path d="M493.031 299.611c-8.737 0-15.827-7.091-15.827-15.829 0-8.737 7.09-15.829 15.827-15.829 8.736 0 15.826 7.092 15.826 15.829 0 8.738-7.217 15.829-15.826 15.829Zm0-30.391c-8.104 0-14.561 6.458-14.561 14.562 0 8.105 6.457 14.563 14.561 14.563 8.103 0 14.56-6.458 14.56-14.563 0-8.104-6.584-14.562-14.56-14.562Z" fill="black"/><path d="M471.761 276.311c2.785 2.406 6.204 3.799 9.496 4.052 4.937.38 10.129-1.393 13.674-5.572 6.077-6.711 5.444-17.221-1.393-23.3-6.711-6.078-17.219-5.445-23.297 1.393" fill="black"/><path d="M482.524 280.996h-1.266c-3.545-.253-6.964-1.773-9.876-4.179l.887-1.013c2.658 2.279 5.95 3.672 9.116 3.926 5.064.379 10.002-1.52 13.167-5.319 2.786-3.166 4.179-7.218 3.926-11.397-.254-4.179-2.153-8.231-5.318-11.017-3.166-2.786-7.217-4.179-11.395-3.925-4.179.253-8.23 2.152-11.016 5.318l-1.013-.886c3.039-3.546 7.217-5.445 11.775-5.825 4.558-.254 8.863 1.266 12.282 4.178 3.418 3.04 5.444 7.219 5.824 11.777.253 4.559-1.266 8.865-4.178 12.284-3.166 4.052-7.85 6.078-12.915 6.078Z" fill="black"/><path d="M555.581 466.132c-.633 2.406-3.292 3.799-6.204 3.419-3.166-.507-5.318-3.166-4.938-5.952 0-.126 1.266-9.75-.254-22.287-.379-2.786 1.9-5.065 4.938-5.192 3.039-.127 5.951 2.026 6.204 4.812 1.646 13.803.38 24.187.254 24.567v.633Z" fill="white"/><path d="M550.516 470.184c-.38 0-.887 0-1.266-.126-3.419-.507-5.825-3.546-5.445-6.585v-.127c.254-2.406 1.14-11.143-.253-22.034-.127-1.266.253-2.786 1.14-3.799 1.139-1.266 2.658-1.899 4.304-2.026 3.419-.126 6.458 2.28 6.838 5.319 1.519 13.296.506 23.427.253 24.693 0 .253 0 .38-.127.506v.127c-.38 2.533-2.785 4.052-5.444 4.052Zm-1.14-33.557h-.253c-1.393 0-2.659.633-3.545 1.519-.76.887-1.013 1.773-.886 2.913 1.266 11.017.633 19.881.253 22.287v.127c-.38 2.406 1.646 4.812 4.431 5.192 2.533.506 4.938-.887 5.445-2.913 0-.126 0-.253.126-.253v-.507c.253-.886 1.266-11.143-.253-24.313-.253-2.026-2.659-4.052-5.318-4.052Z" fill="black"/><path d="M545.322 465.246c-.633 2.406-3.292 3.799-6.204 3.419-3.165-.507-5.317-3.166-4.938-5.952 0-.127 1.267-9.751-.253-22.287-.38-2.786 1.899-5.066 4.938-5.192 3.165-.127 5.951 2.026 6.204 4.812 1.646 13.803.38 24.187.253 24.566v.634Z" fill="white"/><path d="M540.257 469.297c-.38 0-.886 0-1.266-.126-3.419-.507-5.824-3.546-5.445-6.585v-.127c.254-2.406 1.14-11.143-.253-22.034-.126-1.266.253-2.786 1.14-3.799 1.139-1.266 2.659-1.899 4.305-2.026 3.418-.126 6.457 2.28 6.837 5.319 1.646 13.803.38 24.313.253 24.82-.127.253-.127.379-.127.379v.127c-.379 2.533-2.659 4.052-5.444 4.052Zm-1.14-33.43h-.253c-1.393 0-2.659.633-3.545 1.519-.76.887-1.013 1.773-.886 2.913 1.266 11.017.633 19.881.253 22.287v.126c-.38 2.406 1.646 4.813 4.431 5.192 2.533.507 4.938-.886 5.445-2.912 0-.127 0-.507.253-.887.127-.886 1.266-11.017-.253-24.186-.38-2.153-2.786-4.052-5.445-4.052Z" fill="black"/><path d="M534.94 465.372c-.633 2.406-3.291 3.799-6.204 3.419-3.165-.506-5.317-3.165-4.937-5.951 0-.127 1.266-9.751-.254-22.288-.38-2.785 1.9-5.065 4.938-5.191 3.039-.127 5.951 2.026 6.204 4.812 1.646 13.802.38 24.186.253 24.566.127.253 0 .507 0 .633Z" fill="white"/><path d="M529.878 469.425c-.38 0-.887 0-1.267-.127-3.418-.507-5.824-3.546-5.444-6.585v-.127c.253-2.406 1.14-11.143-.253-22.033-.127-1.267.253-2.786 1.139-3.799 1.14-1.267 2.659-1.9 4.305-2.027 3.419-.126 6.457 2.28 6.837 5.319 1.52 13.296.507 23.427.254 24.693 0 .253-.127.38-.127.507v.126c-.38 2.533-2.659 4.053-5.444 4.053Zm-1.14-33.431h-.253c-1.393 0-2.659.633-3.545 1.519-.76.887-1.013 1.773-.887 2.913 1.267 11.017.633 19.881.254 22.287v.127c-.38 2.406 1.646 4.812 4.431 5.192 2.532.506 4.938-.887 5.444-2.913 0-.127 0-.253.127-.253v-.507c.253-.886 1.266-11.143-.253-24.313-.253-2.153-2.659-4.052-5.318-4.052Z" fill="black"/><path d="M524.686 466.132c-.633 2.406-3.292 3.799-6.204 3.419-3.165-.507-5.318-3.166-4.938-5.952 0-.126 1.266-9.75-.253-22.287-.38-2.786 1.899-5.065 4.938-5.192 3.165-.127 5.951 2.026 6.204 4.812 1.646 13.803.38 24.187.253 24.567v.633Z" fill="white"/><path d="M519.621 470.184c-.38 0-.886 0-1.266-.126-3.418-.507-5.824-3.546-5.444-6.585v-.127c.253-2.406 1.139-11.143-.253-22.034-.127-1.266.253-2.786 1.139-3.799 1.14-1.266 2.659-1.899 4.305-2.026 3.418-.126 6.457 2.28 6.837 5.319 1.646 13.929.38 24.313.253 24.82-.126.253-.126.379-.126.379v.127c-.38 2.533-2.659 4.052-5.445 4.052Zm-1.139-33.557h-.254c-1.392 0-2.658.633-3.545 1.519-.759.887-1.013 1.773-.886 2.913 1.266 11.017.633 19.881.253 22.287v.127c-.38 2.406 1.646 4.812 4.432 5.192 2.532.506 4.938-.887 5.444-2.913 0-.126 0-.506.253-.886.127-.887 1.266-11.017-.253-24.187-.38-2.026-2.785-4.052-5.444-4.052Z" fill="black"/><path d="M432.639 459.8c-.127 3.546-.507 5.572-.507 5.825 0 .127-.126.38-.126.634-.633 2.406-3.292 3.798-6.204 3.419-2.026-.38-3.672-1.647-4.432-3.293-.38-.886-.506-1.646-.38-2.533 0 0 .253-1.392.38-3.798.127-1.52.127-3.673.127-5.952 0-3.546-.127-7.851-.76-12.537-.127-1.013.127-1.773.507-2.659.886-1.393 2.405-2.533 4.431-2.659 3.165-.127 5.951 2.026 6.204 4.812 1.013 7.724 1.013 14.309.76 18.741Z" fill="white"/><path d="M426.941 470.311c-.38 0-.886 0-1.266-.127-2.153-.38-4.052-1.773-4.938-3.672-.38-1.013-.633-1.9-.38-2.913 0 0 .253-1.393.38-3.799.126-1.519.126-3.672.126-5.951 0-2.913-.126-7.472-.759-12.41-.127-1.266.253-2.153.506-3.039 1.14-1.773 2.912-2.913 4.938-3.04 3.419-.126 6.457 2.28 6.837 5.319 1.013 8.738.887 15.576.633 18.868a57.232 57.232 0 0 1-.506 5.445v.38c0 .127 0 .253-.127.38v.38c-.38 2.659-2.659 4.179-5.444 4.179Zm-.886-33.558h-.254c-1.646.127-3.165 1.013-3.925 2.406-.253.634-.506 1.267-.379 2.28.633 5.065.759 9.624.759 12.663 0 2.279 0 4.305-.126 5.952-.127 2.406-.38 3.799-.38 3.799-.127.759 0 1.393.38 2.152.759 1.393 2.279 2.533 3.925 2.913 2.532.506 4.937-.886 5.444-2.913 0-.253.127-.379.127-.506s0-.253.126-.633c.127-.887.38-2.66.507-5.319.126-3.292.379-10.13-.633-18.615-.507-2.152-2.913-4.179-5.571-4.179Z" fill="black"/><path d="M422.257 459.801c-.127 3.039-.38 4.812-.507 4.938 0 .127-.126.38-.126.634-.127.379-.254.633-.38.886-1.013 1.773-3.292 2.912-5.824 2.533-1.9-.38-3.546-1.393-4.305-2.913-.507-.886-.76-1.899-.633-2.912 0 0 .126-1.14.253-3.04.126-1.646.253-3.799.253-6.585 0-3.545-.127-7.851-.76-12.663-.126-.759 0-1.393.254-2.152.759-1.773 2.405-3.04 4.684-3.166 2.533-.127 4.812 1.266 5.824 3.419.254.506.38 1.013.38 1.393 1.266 8.231 1.266 15.196.887 19.628Z" fill="white"/><path d="M416.43 469.424c-.38 0-.76 0-1.14-.126-2.025-.38-3.798-1.52-4.811-3.166a5.1 5.1 0 0 1-.76-3.293s.127-1.139.254-3.039c.126-1.393.253-3.672.253-6.585 0-2.912-.127-7.471-.76-12.536-.126-.76 0-1.52.253-2.406.887-2.026 2.786-3.419 5.192-3.546 2.658-.126 5.317 1.267 6.33 3.673.253.633.38 1.139.38 1.646 1.393 9.624 1.14 16.968.886 19.628-.126 2.532-.253 4.179-.506 4.938 0 .127 0 .254-.127.38v.507c-.126.38-.253.633-.38 1.013-.633 1.773-2.658 2.912-5.064 2.912Zm-.886-33.43h-.254c-2.025.126-3.545 1.139-4.178 2.785-.253.76-.253 1.267-.253 1.773.633 5.192.76 9.751.76 12.79 0 2.913-.127 5.192-.254 6.585a75.702 75.702 0 0 1-.253 3.039c-.126.887.127 1.773.507 2.533.759 1.266 2.152 2.279 3.925 2.659 2.152.38 4.178-.633 5.191-2.153.126-.253.253-.38.253-.76 0-.126.127-.379.127-.506s0-.253.126-.38c.127-.38.253-1.899.38-4.685.253-2.66.633-9.878-.886-19.502 0-.506-.127-.886-.38-1.266-.76-1.773-2.659-2.912-4.811-2.912Zm5.824 28.238c0 .127 0 .127 0 0 0 .127 0 .127 0 0Z" fill="black"/><path d="M411.999 459.801c-.127 3.039-.38 4.812-.506 5.065 0 .127-.127.38-.127.633 0 .127-.127.253-.127.38-.886 2.153-3.292 3.546-6.077 3.039-1.773-.38-3.292-1.266-4.052-2.659-.633-1.013-1.013-2.026-.759-3.292 0 0 .126-1.267.253-3.166.126-1.646.253-3.799.253-6.458 0-3.546-.127-7.852-.76-12.664-.126-.633 0-1.266.127-1.773.633-1.899 2.406-3.419 4.811-3.545 2.406-.127 4.558 1.266 5.698 3.039.38.633.506 1.14.633 1.773 1.013 8.231.886 15.196.633 19.628Z" fill="white"/><path d="M406.43 469.551c-.38 0-.887 0-1.267-.127-1.899-.38-3.545-1.393-4.431-2.913-.886-1.266-1.14-2.406-.886-3.672 0 0 .126-1.266.253-3.039.127-1.393.253-3.672.253-6.458 0-2.913-.126-7.472-.76-12.537-.126-.76 0-1.266.127-2.026.76-2.279 2.786-3.799 5.444-3.926 2.533-.126 4.938 1.267 6.204 3.293.38.76.634 1.266.76 2.026.76 6.458 1.013 13.17.633 19.755-.126 2.026-.253 4.432-.506 5.191v.507c0 .253-.127.38-.127.507v.126c-1.013 2.026-3.165 3.293-5.697 3.293Zm-.887-33.558h-.253c-2.026.127-3.672 1.266-4.178 3.166-.127.506-.253 1.14-.127 1.52.633 5.318.76 9.75.76 12.789 0 2.786-.127 5.066-.253 6.459-.127 1.899-.254 3.165-.254 3.165-.253 1.013 0 1.9.633 2.913.76 1.266 2.026 2.026 3.672 2.406 2.279.38 4.558-.633 5.318-2.533 0-.126.127-.253.127-.253 0-.253.126-.38.126-.507 0-.126 0-.253.127-.379 0-.127.253-1.647.38-4.812.38-6.459.126-13.17-.633-19.502-.127-.633-.254-1.139-.507-1.519-1.266-1.9-3.039-2.913-4.938-2.913Z" fill="black"/><path d="M401.747 459.8c-.127 3.546-.507 5.572-.507 5.826 0 .126-.126.379-.126.633-.76 2.406-3.292 3.799-6.204 3.419-3.166-.507-5.318-3.166-4.938-5.952 0 0 .253-1.393.38-3.799.126-1.519.126-3.546.126-5.825 0-2.026-.126-4.305-.253-6.838-.126-1.266-.253-2.786-.38-4.179 0-.506-.126-1.013-.126-1.52-.38-2.785 1.899-5.065 4.938-5.191 1.519-.127 3.165.506 4.178 1.393l.253.253c.38.38.76.76 1.013 1.139.38.634.76 1.267.76 2.027 1.139 7.597 1.139 14.182.886 18.614Z" fill="white"/><path d="M396.173 470.311c-.379 0-.759 0-1.266-.127-3.418-.507-5.824-3.546-5.444-6.585 0 0 .253-1.393.38-3.799.126-1.519.126-3.546.126-5.825 0-1.773-.126-3.926-.253-6.205v-.633c-.126-1.266-.253-2.786-.38-4.179v-.76c0-.253-.126-.633-.126-1.013-.127-1.266.253-2.659 1.139-3.672 1.14-1.266 2.659-1.9 4.305-2.026 1.646-.127 3.419.506 4.685 1.519l.253.254c.38.379.76.759 1.14 1.266.379.633.886 1.393.886 2.406 1.139 7.851 1.139 14.563.886 18.741a57.265 57.265 0 0 1-.506 5.446v.38c0 .126 0 .253-.127.379v.38c-.76 2.533-3.039 4.053-5.698 4.053Zm-1.012-33.558h-.38c-1.393 0-2.786.633-3.545 1.52-.76.886-1.013 1.773-.887 2.912 0 .38 0 .633.127.887v.759c.127 1.393.253 2.913.38 4.179v.76c.126 2.279.253 4.306.253 6.205 0 2.279 0 4.179-.127 5.825-.126 2.406-.379 3.799-.379 3.799-.38 2.406 1.645 4.812 4.431 5.192 2.532.506 4.811-.76 5.444-2.913 0-.253.127-.379.127-.506s0-.253.127-.633c.126-.887.379-2.66.506-5.319.253-4.179.253-10.89-.886-18.615 0-.759-.38-1.266-.633-1.773-.254-.253-.507-.633-.887-1.013l-.253-.253c-.886-.506-2.152-1.013-3.418-1.013Z" fill="black"/><path d="M446.818 417.759h-1.899c-10.382 0-18.739-8.484-18.739-18.742v-22.034h39.503v22.034c-.126 10.258-8.483 18.742-18.865 18.742Z" fill="#3F2AFF"/><path d="M452.011 384.581h-25.955v1.266h25.955v-1.266Z" fill="black"/></svg>