<svg width="628" height="484" fill="none" xmlns="http://www.w3.org/2000/svg"><path fill-rule="evenodd" clip-rule="evenodd" d="M239.806 473.511c-.506 0-1.393 0-2.406-.253a9.993 9.993 0 0 1-3.798-1.516c-1.393.505-2.912.885-4.431.885a8.779 8.779 0 0 1-2.28-.253c-.886-.127-1.772-.506-2.658-.885-1.646.758-3.419 1.264-5.318 1.264-.507 0-1.393 0-2.406-.253-.759-.126-1.393-.379-2.152-.632-1.773 1.011-3.672 1.643-5.824 1.643-.507 0-1.267 0-2.153-.253-5.064-.884-8.989-4.928-9.496-9.73h-56.089c-2.786 0-5.318-2.148-5.571-4.802l-1.266-8.088c-1.013-6.066-1.14-12.637-.507-19.335 2.026-20.472 12.535-39.301 28.615-51.812a4.13 4.13 0 0 1 1.013-.758c.126-.126.253-.253.379-.253.127-.126.254-.126.254-.252l21.777-16.934v-9.099l.253-2.527c1.013-11.5 2.026-24.643 8.61-36.901.886-1.895 2.026-3.664 3.165-5.56-4.938-2.654-11.015-5.939-17.092-9.478l-.38-.252c-1.52-.885-2.533-2.275-2.786-3.918-.126-.505-.126-1.011-.126-1.39 0-.505.126-1.011.253-1.516l20.764-68.241-28.614-2.148h-.127c-1.013 0-2.785-.253-4.178-2.148-.38-.379-.633-.885-.886-1.39-2.659-6.572-4.432-13.522-5.318-20.725-32.286-6.192-76.854-19.714-113.445-49.411-4.812-3.918-9.623-8.088-14.054-12.511-1.266-.379-2.406-1.137-3.545-1.895l-.38-.379-.507-.506c-.126-.126-9.242-9.351-17.852-23.631 0 0 0-.127-.127-.127-2.785-5.307-1.266-12.005 3.672-15.29-.253-.38-.76-1.264-.76-1.264-3.038-5.434-1.266-12.385 3.925-15.544-1.14-2.022-2.279-4.044-3.165-5.813-1.393-2.78-1.646-5.94-.633-8.72.886-2.906 3.039-5.307 5.824-6.57 1.646-.759 3.419-1.265 5.065-1.265 1.266 0 2.405.253 3.545.632 2.532.885 4.811 2.528 6.077 4.929v-.506c-.253-6.318 4.685-11.626 10.889-11.879h.633c2.785 0 5.571 1.138 7.597 3.16 2.152 2.022 3.418 4.675 3.672 7.708v.127c.253 6.192 2.279 14.911 5.824 24.516.506.379.886.884 1.266 1.39l1.52 1.895c4.684 1.896 8.862 5.94 12.66 11.753.507.758.887 1.516 1.267 2.4 27.601 24.011 63.813 35.258 90.655 40.44.633-1.264 1.012-2.149 1.266-2.654l.126-.127c1.013-1.895 2.912-3.159 5.065-3.159.38 0 .759 0 1.139.126l60.648 4.55c6.331.505 12.661 2.401 18.232 5.434.633.126 1.14.253 1.646.379l24.057 5.687c-.76-1.011-1.52-1.896-2.279-3.033-3.925-5.94-6.204-12.637-6.331-19.461-3.672-2.654-5.951-6.824-5.951-11.5 0-4.802 2.406-9.099 6.204-11.626-1.519-3.033-2.406-6.445-2.406-9.857 0-12.132 9.876-22.115 22.158-22.115.886 0 1.772 0 2.659.126 4.304-5.055 10.635-7.961 17.346-7.961 9.242 0 17.219 5.308 20.891 13.395h.886c13.674 0 24.689 10.995 24.689 24.643 0 1.39-.126 2.906-.379 4.296 3.038 3.286 4.811 7.709 4.811 12.132 0 6.95-4.052 13.269-10.256 16.302-.633.884-1.392 1.769-2.279 2.527-1.013 5.055-4.178 9.478-8.736 12.132-.886 4.423-1.899 9.477-2.659 13.9l1.013.253c4.305-6.698 11.015-10.236 19.752-10.236 7.343 0 14.56 2.527 19.371 4.676 3.292-2.275 7.091-3.539 11.142-3.539 7.344 0 14.054 4.297 17.346 10.616h.76c2.279 0 4.685.379 7.09 1.263 7.724 2.78 13.168 9.731 13.928 17.692.506 5.181-.887 10.236-3.799 14.28-.126.126-.126.253-.253.379-.126.127-.253.253-.38.506-.759.884-1.519 1.642-2.405 2.527-.507.632-1.266 1.39-1.52 1.896-.126.126-.126.379-.253.505 4.432 2.528 7.217 7.203 7.09 12.511v.126c-.126 3.665-1.646 7.077-4.304 9.604-1.52 1.517-3.166 2.528-5.065 3.286l-.253 17.692 17.599-1.39c.886-.127 1.899-.127 2.785-.127 4.052 0 7.977.632 11.775 2.022 3.166.127 6.458.759 9.496 1.643l55.71 16.049a5.388 5.388 0 0 1 2.912 1.769c1.266 1.264 1.52 2.654 1.52 3.665 0 .632.253 4.802 0 11.121l36.464 10.615-11.015-33.362a12.508 12.508 0 0 1-1.393-2.148c-.127-.379-.253-.632-.38-1.011-.633-1.517-4.811-9.731-18.232-21.357-2.279-2.022-3.545-4.802-3.798-7.708-.254-2.907.886-5.813 2.912-8.088 2.152-2.401 5.191-3.791 8.356-3.791.506 0 .886 0 1.393.126-1.773-5.939-3.292-12.005-4.178-17.313-1.14-6.065 3.038-11.879 9.116-13.016h.506c1.013-4.17 4.432-7.582 8.863-8.467h.38c.506 0 .886-.126 1.393-.126 1.392 0 2.785.253 4.178.632h.126c.634.253 1.267.505 1.773.884 1.266-1.011 2.912-1.642 4.558-1.895h.38c.506 0 .886-.127 1.393-.127 1.392 0 2.785.253 4.178.632.127 0 .253.127.38.127 3.418 1.516 5.824 4.423 6.584 8.087.633-.252 1.392-.379 2.152-.505h1.393c1.899 0 3.418.379 4.431.758.253.127.507.126.633.253 3.545 1.769 5.825 5.055 6.331 8.846 1.773 13.521 8.736 34.373 9.116 35.257a5.07 5.07 0 0 1 .38 1.896l19.118 58.13c0 .127.127.253.127.379l.38 1.138c0 .126.127.379.127.505 4.684 17.692-.507 36.648-13.675 49.538l-.126.126c-9.876 9.225-22.664 14.28-35.832 14.28-4.938 0-9.749-.758-14.054-2.022l-48.746-14.027c-2.659 3.285-5.571 5.813-8.863 7.708-.126.127-.379.253-.506.253h-.127c-.759.379-1.519.506-2.279.506-.759 0-1.392-.127-2.025-.506l-3.039-.884 12.534 58.509c.38.885.634 1.643.76 2.528.633 3.538-.633 7.582-3.545 10.741-1.393 1.643-3.925 3.918-8.23 6.192a158.478 158.478 0 0 1 3.799 19.082 50.799 50.799 0 0 1-.38 15.165c-.38 1.643-1.393 3.033-2.912 3.665a5.8 5.8 0 0 1-2.659.631H375.535v.506c0 .379-.127.758-.127 1.137-.886 4.802-5.317 8.214-10.635 8.214-.507 0-1.393 0-2.279-.252-1.393-.253-2.659-.759-3.799-1.39-1.266.505-2.785.758-4.178.758-.506 0-1.392 0-2.279-.253-1.013-.126-2.026-.505-2.912-.885-1.519.759-3.418 1.264-5.318 1.264-.506 0-1.392 0-2.279-.253-.759-.126-1.519-.379-2.279-.631a11.19 11.19 0 0 1-5.824 1.642c-.506 0-1.393 0-2.279-.252-5.064-.885-8.863-4.929-9.369-9.605h-71.283c0 .506-.127 1.011-.127 1.391v.252c-1.013 5.055-5.444 8.467-10.762 8.467Z" fill="white"/><path d="M44.314 51.433c1.52 0 2.912.632 4.052 1.769 1.266 1.137 1.9 2.654 2.026 4.423.38 9.604 4.304 21.357 6.71 27.802.507.252 1.013.505 1.393 1.137.886 1.01 1.646 2.022 2.532 3.033 3.419 1.137 7.47 4.044 11.522 10.362.506.758.886 1.517 1.013 2.401 29.121 25.906 67.485 37.785 98.125 43.345 1.646-3.917 2.912-6.192 2.912-6.192.127-.126.253-.253.506-.253h.254l61.027 4.676c6.077.379 11.775 2.275 16.84 5.308.759.126 1.519.252 2.279.505l40.516 9.604.633-3.285c-5.571-2.275-10.509-6.192-13.928-11.374-3.925-5.939-5.95-12.763-5.444-19.587-3.545-1.264-5.951-4.549-5.951-8.467 0-4.928 4.052-8.972 8.99-8.972h.38c-3.419-3.16-5.571-7.582-5.571-12.51 0-9.352 7.723-17.061 17.092-17.061 1.646 0 3.292.253 4.812.758 3.165-5.055 8.736-8.467 15.193-8.467 8.483 0 15.574 5.94 17.473 13.901 1.392-.379 2.912-.505 4.431-.505 10.889 0 19.625 8.72 19.625 19.587 0 2.022-.38 4.044-.886 5.94 3.165 2.401 5.318 6.192 5.318 10.488 0 5.687-3.672 10.489-8.737 12.258-.506 1.138-1.392 2.275-2.405 3.033-.38.253-.633.506-1.013.758-.38 5.182-3.799 9.605-8.483 11.374a1258.419 1258.419 0 0 1-4.178 21.104l9.495 2.274c3.672-8.34 10.383-10.994 17.093-10.994 7.977 0 16.207 3.665 20.132 5.687 2.659-2.654 6.33-4.423 10.382-4.423 6.837 0 12.535 4.928 14.054 11.247 1.266-.379 2.659-.632 4.052-.632 1.646 0 3.418.253 5.317 1.011 5.698 2.022 10.003 7.329 10.636 13.395.38 4.044-.76 7.835-2.912 10.868-.127.127-.254.253-.38.506-.633.758-1.393 1.516-2.153 2.274-1.012 1.138-1.899 2.149-2.405 3.16a46.234 46.234 0 0 0-1.899 5.939c4.811.379 8.483 4.423 8.356 9.225-.127 2.401-1.139 4.676-2.785 6.319-1.646 1.642-4.052 2.527-6.331 2.527-.127.758-.253 1.39-.38 2.275.127.252.127.632.127.884l-.38 24.264 23.17-1.896c.76 0 1.519-.126 2.406-.126 3.798 0 7.343.631 10.888 1.895 3.039.126 6.078.506 9.117 1.39l55.962 16.049c.127 0 .254.127.38.253.127.126.254.253.254.505 0 .759.253 6.572-.127 14.66l43.808 12.637c.38.126.633.126.886.126.887 0 1.646-.379 2.279-1.011.887-.885 1.14-2.022.76-3.033l-12.408-37.911c-.507-.506-1.013-1.011-1.266-1.769v-.127c-.127-.379-3.672-9.857-19.878-23.884-1.267-1.137-1.9-2.527-2.026-4.296-.127-1.643.506-3.16 1.646-4.423 1.139-1.39 2.912-2.022 4.558-2.022.886 0 1.772.252 2.532.632.506.252 1.013.505 1.519.884 2.659 2.275 4.812 4.297 6.711 6.319-2.786-8.341-6.964-21.231-8.61-30.835-.633-3.412 1.646-6.571 4.938-7.203h.886c.887 0 1.646.126 2.533.379.633.253 1.139.506 1.646.885-.127-.885-.38-1.769-.507-2.654-.633-3.412 1.646-6.571 4.938-7.203h.886c.887 0 1.646.126 2.533.379 1.899.758 3.418 2.401 3.798 4.676 0 .126 0 .252.127.379.126-2.78 2.279-5.308 5.191-5.813h.886c.886 0 1.646.126 2.532.379 1.899.885 3.292 2.527 3.672 4.802.38 2.654 1.266 6.571 2.659 12.005-.127-.632-.127-1.263-.253-1.895-.38-3.412 2.026-6.445 5.317-6.951h.633c1.14 0 2.153.253 2.786.506 1.899 1.011 3.292 2.78 3.545 4.928 1.773 14.28 9.243 36.269 9.37 36.521l-.254.127 19.752 60.026c.127.253.127.379.253.632 0 .252.127.379.127.632 4.431 16.049-.38 33.361-12.155 44.861-8.736 8.214-20.385 12.89-32.413 12.89-4.305 0-8.61-.632-12.535-1.769l-52.417-15.038c-2.533 3.917-5.698 7.203-9.496 9.225-.127 0-.127.126-.254.126.127-.126 0-.126-.126-.126h-.127l-11.522-3.286 14.434 67.356c.253.505.507 1.011.633 1.516.38 2.148-.506 4.676-2.279 6.698-1.519 1.643-4.558 4.296-10.509 6.824 1.9 5.687 3.546 13.269 4.938 22.494.633 4.549.507 8.972-.38 13.521-.126 0-.379.253-.633.253H370.976c-.127 2.78-.38 4.423-.507 4.929 0 .252 0 .379-.127.505v.253c-.506 2.527-2.785 4.17-5.57 4.17-.38 0-.887 0-1.267-.126-1.899-.253-3.545-1.39-4.558-2.78-1.013 1.39-2.659 2.148-4.684 2.148-.38 0-.887 0-1.266-.126-1.773-.253-3.292-1.138-4.179-2.401-1.013 1.769-2.785 2.653-5.064 2.653-.38 0-.887 0-1.266-.126-1.646-.253-3.039-1.011-3.925-2.148-.887 1.895-2.912 3.033-5.191 3.033-.38 0-.887 0-1.267-.127-3.418-.505-5.824-3.538-5.444-6.698v-.126c0-.632.127-1.643.253-2.906h-81.159c-.126 2.274-.379 3.917-.506 4.802v.379c0 .126 0 .253-.127.379v.379c-.506 2.527-2.785 4.17-5.571 4.17-.379 0-.886 0-1.266-.126-1.899-.253-3.545-1.39-4.558-2.907-1.013 1.264-2.785 2.149-4.811 2.149-.38 0-.76 0-1.14-.127-1.646-.252-3.038-1.011-4.051-2.148-1.266 1.516-3.039 2.401-5.065 2.401-.38 0-.886 0-1.266-.126-1.646-.253-2.912-1.138-3.925-2.149-1.013 1.896-3.039 3.033-5.191 3.033-.38 0-.76 0-1.266-.126-3.419-.506-5.824-3.538-5.444-6.698 0 0 .253-1.137.379-3.159H140.54c-.253 0-.633-.253-.633-.506l-1.393-8.214c-1.013-5.813-1.139-11.878-.506-18.071 1.899-19.082 11.648-36.774 26.842-48.4.253-.252.506-.379.886-.632.253-.252.507-.379.76-.631l23.803-18.45v-11.121l.253-2.401c1.013-11.626 2.026-23.884 8.103-35.005a59.302 59.302 0 0 1 6.204-9.604c-13.674-7.077-22.283-12.258-22.537-12.384-.253-.127-.253-.253-.253-.506-.126-.126-.126-.253-.126-.379l22.537-74.306-35.072-2.654h-.253c-.127 0-.254-.252-.38-.379-3.166-7.835-4.685-15.67-5.318-23.126-35.072-6.318-79.006-19.84-114.964-49.158-5.192-4.17-10.003-8.467-14.561-13.142-1.013-.127-2.026-.632-2.912-1.391l-.127-.126-.38-.379c-1.012-1.011-9.242-9.604-17.092-22.62-1.646-3.033-.76-7.077 2.152-8.72 1.013-.505 2.026-.885 3.039-.885.76 0 1.52.127 2.279.38-1.52-2.275-3.165-4.676-4.811-7.33-1.646-3.033-.76-7.077 2.152-8.72 1.013-.631 2.152-1.01 3.419-1.01.38 0 .886 0 1.392.126.38.126.633.253 1.013.379-2.532-3.918-4.938-8.088-6.963-11.879-.76-1.516-1.013-3.16-.38-4.802.506-1.643 1.646-2.907 3.165-3.665a5.89 5.89 0 0 1 2.912-.758 5.09 5.09 0 0 1 1.9.38c1.645.505 2.911 1.642 3.671 3.158 4.052 7.835 10.635 17.44 15.32 23.758-2.659-7.582-5.697-18.07-6.204-27.549-.126-3.538 2.532-6.445 6.078-6.571.506-.758.633-.758.76-.758ZM361.48 257.796l13.927-1.137v-2.907h-1.899c-4.432-.126-8.23-1.895-11.269-4.549l-.759 8.593ZM44.314 41.323h-1.013c-5.824.253-10.888 3.538-13.547 8.34-.507-.252-1.013-.378-1.52-.631-1.646-.632-3.418-.885-5.19-.885-2.406 0-4.939.632-7.218 1.77a16.274 16.274 0 0 0-8.356 9.477c-1.52 4.044-1.14 8.467.886 12.51.38.76.76 1.517 1.266 2.402C5.571 78.856 4.305 85.3 6.584 91.24a16.775 16.775 0 0 0-1.773 18.829c0 .126.127.126.127.253 8.863 14.911 18.232 24.263 18.612 24.642l.253.253.127.126.126.126c.253.253.507.506.886.759 1.267 1.011 2.533 1.769 3.799 2.274 4.305 4.297 8.99 8.341 13.674 12.132 29.121 23.631 67.738 40.818 112.052 49.79 1.013 6.318 2.786 12.511 5.065 18.324.38 1.011.886 1.895 1.646 2.653 2.785 3.539 6.457 4.044 7.977 4.044l22.157 1.643-18.865 62.301c-.254 1.011-.38 1.896-.38 2.906 0 .632 0 1.391.253 2.275.506 3.159 2.406 5.813 5.318 7.456l.253.126a825.98 825.98 0 0 0 12.661 7.077 5.928 5.928 0 0 0-.633 1.264c-6.964 13.142-8.23 27.422-9.116 38.796l-.253 2.401v.126c0 .506-.127 1.137-.127 7.077l-19.878 15.417-.38.379s-.127 0-.127.127a7.294 7.294 0 0 0-1.266 1.011c-17.092 13.395-28.234 33.488-30.387 55.224-.759 7.203-.506 14.153.633 20.724l1.266 7.835c.634 5.182 5.192 9.225 10.636 9.225h52.291c2.152 4.929 6.711 8.72 12.408 9.731 1.393.253 2.532.253 3.165.253 2.153 0 4.305-.379 6.331-1.264.127 0 .38.126.507.126 1.519.379 2.912.379 3.545.379 1.899 0 3.671-.252 5.444-.884.507.126.886.253 1.393.379 1.519.379 2.785.379 3.418.379 1.393 0 2.659-.126 3.925-.505 1.013.379 2.026.758 3.166 1.011 1.519.379 2.785.379 3.418.379 6.837 0 12.662-4.044 14.941-9.984h63.433a16.501 16.501 0 0 0 12.154 9.478c1.393.379 2.659.379 3.292.379 2.279 0 4.432-.379 6.331-1.263.253 0 .506.126.76.126 1.519.379 2.659.379 3.292.379 1.899 0 3.671-.253 5.444-.885.633.127 1.139.253 1.773.38 1.392.379 2.658.379 3.291.379 1.267 0 2.533-.127 3.799-.379 1.013.379 2.152.758 3.292.884 1.393.379 2.659.379 3.292.379 6.837 0 12.661-3.917 14.813-9.857h108.888c1.646 0 3.291-.379 4.811-1.137 2.912-1.39 5.064-4.044 5.697-7.329 1.013-5.561 1.267-11.121.507-16.681v-.127c-.886-6.066-1.899-11.247-3.039-15.922 2.532-1.643 4.558-3.412 6.204-5.308 3.799-4.297 5.445-9.731 4.685-14.912-.127-1.137-.507-2.148-.886-3.285l-10.889-50.675c1.139-.126 2.152-.506 3.165-1.011 0 0 .127 0 .127-.126.253-.127.506-.253.633-.38 2.912-1.642 5.571-3.664 7.976-6.318l45.708 13.142c4.811 1.517 10.129 2.275 15.447 2.275 14.56 0 28.487-5.56 39.376-15.67l.127-.126c14.434-14.027 20.131-34.752 15.067-54.213 0-.253-.127-.379-.127-.632-.127-.632-.253-1.137-.506-1.769 0-.127-.127-.253-.127-.253l-18.865-57.372c-.127-.885-.254-1.896-.633-2.781-1.013-2.906-7.217-22.241-8.863-34.12-.633-5.434-4.052-10.109-9.116-12.637-.38-.252-.887-.379-1.267-.505-1.266-.506-3.418-1.011-6.077-1.011h-.253c-1.773-3.159-4.432-5.56-7.724-7.077-.253-.126-.506-.253-.886-.379-1.899-.632-3.798-.885-5.697-.885-.634 0-1.267 0-1.9.127-.253 0-.506.126-.886.126-1.393.253-2.659.632-3.925 1.264h-.127c-1.899-.632-3.798-.885-5.697-.885-.633 0-1.266 0-1.899.127-.254 0-.507.126-.887.126a16.473 16.473 0 0 0-11.775 9.099c-7.47 2.527-12.281 10.236-10.762 18.323.633 3.792 1.646 7.835 2.786 12.006-2.659.884-5.065 2.527-7.091 4.675-2.912 3.286-4.431 7.583-4.178 11.879.253 4.17 2.279 8.088 5.445 10.994l.126.127c12.028 10.362 15.953 17.692 16.84 19.335.126.505.38 1.011.633 1.516.38.758.886 1.516 1.393 2.275l7.723 23.378-23.55-6.824c0-4.423-.127-7.203-.127-7.582-.126-1.643-.633-4.423-2.912-6.824-1.393-1.643-3.292-2.78-5.444-3.286l-55.457-16.428c-3.292-.884-6.583-1.516-10.002-1.769-4.178-1.39-8.483-2.022-12.788-2.022-1.013 0-2.026 0-3.165.126h-.127l-12.028 1.011.127-8.972c1.392-.758 2.532-1.769 3.671-2.906 3.419-3.412 5.571-8.088 5.698-13.017v-.252a19.011 19.011 0 0 0-5.065-13.396c.254-.252.633-.632.887-1.011.126-.252.379-.379.506-.632.127-.126.253-.252.253-.379 3.672-5.054 5.318-11.373 4.812-17.692v-.126c-1.013-9.857-7.724-18.45-17.22-21.862-2.279-.758-4.431-1.264-6.71-1.517-4.558-6.444-12.028-10.741-20.132-10.741a24.352 24.352 0 0 0-11.521 2.907c-5.192-2.149-12.029-4.171-18.992-4.171-3.925 0-7.471.632-10.636 1.769 2.786-2.78 4.811-6.318 5.951-10.109.38-.379.76-.758 1.013-1.264 7.217-4.044 11.901-11.752 11.901-20.219 0-4.929-1.645-9.731-4.558-13.648.127-.885.127-1.769.127-2.78 0-15.67-12.155-28.56-27.602-29.571a27.92 27.92 0 0 0-23.929-13.522c-7.344 0-14.181 2.78-19.372 7.835h-.633c-14.941 0-27.222 12.132-27.222 27.17 0 2.906.506 5.813 1.393 8.467-3.166 3.412-5.191 7.961-5.191 13.016 0 5.434 2.279 10.362 6.077 13.901.38 4.17 1.393 8.34 3.039 12.258l-12.282-2.907c-.38-.126-.759-.126-1.013-.253-5.95-3.285-12.788-5.181-19.625-5.686l-60.394-4.55c-.506-.126-1.14-.126-1.773-.126-3.798 0-7.343 2.022-9.242 5.181-25.323-5.055-58.116-15.796-83.565-37.532-.38-.758-.76-1.39-1.266-2.148-4.052-6.192-8.61-10.615-13.8-13.143-.254-.253-.507-.505-.634-.758-.253-.38-.633-.758-.886-1.137-3.166-8.72-4.938-16.429-5.191-21.862v-.38c-.254-4.296-2.153-8.214-5.191-10.994a15.961 15.961 0 0 0-11.016-4.423Z" fill="white"/><path fill-rule="evenodd" clip-rule="evenodd" d="M485.307 147.096c-1.392 0-2.785-.632-3.798-1.643l-32.286-35.384c-1.266-1.39-1.646-3.159-1.14-4.928l14.434-45.747c.507-1.769 2.026-3.032 3.799-3.412l46.973-10.236c.38-.126.76-.126 1.139-.126 1.393 0 2.786.632 3.799 1.643l32.286 35.384c1.266 1.39 1.646 3.159 1.14 4.928l-14.561 45.62c-.506 1.769-2.026 3.033-3.798 3.412l-46.847 10.236c-.506.126-.76.253-1.14.253Z" fill="white"/><path d="m514.302 50.675 32.287 35.383-14.561 45.62-46.847 10.236-32.286-35.383 14.434-45.62 46.973-10.236Zm0-10.11c-.759 0-1.392.126-2.152.253l-46.974 10.236c-3.545.758-6.457 3.412-7.47 6.824l-14.434 45.62c-1.139 3.412-.253 7.203 2.153 9.857l32.286 35.383c1.899 2.149 4.685 3.286 7.47 3.286.76 0 1.393-.126 2.153-.253l46.846-10.236c3.546-.758 6.458-3.412 7.471-6.824l14.56-45.62c1.14-3.412.253-7.203-2.152-9.856L521.772 43.85c-1.899-2.022-4.684-3.286-7.47-3.286Z" fill="white"/><path fill-rule="evenodd" clip-rule="evenodd" d="M149.53 66.218c-4.938 0-9.623-1.516-13.674-4.296-5.445-3.791-8.99-9.352-10.003-15.544-2.279-13.016 6.457-25.653 19.499-28.054l41.149-7.456a23.349 23.349 0 0 1 4.178-.38c4.938 0 9.749 1.517 13.927 4.297 5.445 3.791 8.99 9.352 10.003 15.67 2.279 13.017-6.457 25.654-19.499 28.055l-41.149 7.456c-1.646.252-3.165.252-4.431.252Z" fill="white"/><path d="M190.552 15.544c3.925 0 7.723 1.137 11.015 3.412 4.178 2.906 7.09 7.33 7.977 12.258 1.772 10.362-5.065 20.345-15.447 22.24l-41.149 7.457c-1.266.252-2.279.252-3.545.252-3.925 0-7.724-1.263-10.889-3.411-4.178-2.907-7.091-7.33-7.977-12.259-1.772-10.362 5.065-20.345 15.447-22.24l41.149-7.457c1.266-.126 2.406-.252 3.419-.252Zm0-10.11c-1.646 0-3.419.126-5.065.38h-.126l-41.15 7.455h-.126c-15.827 2.906-26.336 18.197-23.55 33.994 1.266 7.582 5.571 14.28 12.028 18.829h.127c4.938 3.412 10.635 5.181 16.586 5.181 1.393 0 3.292 0 5.444-.379l41.023-7.456h.126c15.827-2.906 26.336-18.197 23.55-33.994-1.266-7.582-5.571-14.28-12.028-18.829 0 0-.126 0-.126-.126-4.812-3.286-10.636-5.055-16.713-5.055Z" fill="white"/><path fill-rule="evenodd" clip-rule="evenodd" d="M93.695 314.411c-5.317 0-11.521-4.803-15.953-12.385-4.305 1.896-8.61 2.907-12.408 2.907-6.71 0-9.37-3.16-10.382-5.055-.76-1.517-1.52-3.918-.507-7.077 1.393-4.549 5.951-9.225 12.282-12.763-3.039-6.445-4.052-12.764-2.66-17.313 1.014-3.286 3.04-4.802 4.559-5.56 1.266-.632 2.532-.885 3.925-.885 5.318 0 11.522 4.802 15.953 12.384 4.305-1.895 8.61-2.906 12.408-2.906 6.711 0 9.37 3.159 10.382 5.055.76 1.516 1.52 3.917.507 7.076-1.393 4.55-5.951 9.225-12.282 12.764 3.039 6.445 4.052 12.763 2.659 17.313-1.013 3.285-3.038 4.802-4.558 5.56-1.14.505-2.532.885-3.925.885Z" fill="white"/><path d="M72.803 261.208c3.672 0 8.863 4.676 12.408 11.626.506.885.886 1.643 1.266 2.528.76-.506 1.646-.885 2.406-1.39 4.305-2.149 8.736-3.286 12.155-3.286 2.912 0 5.064.758 5.95 2.401 1.9 3.539-3.165 9.731-11.268 13.775-1.14.505-2.153 1.011-3.165 1.39.632.884 1.266 1.895 1.645 2.906 4.305 8.088 4.812 15.923 1.14 17.818a3.508 3.508 0 0 1-1.646.38c-3.672 0-8.863-4.676-12.408-11.627a23.45 23.45 0 0 1-1.266-2.527c-.76.506-1.646.885-2.406 1.39-4.305 2.148-8.736 3.286-12.155 3.286-2.912 0-5.064-.759-5.95-2.401-1.9-3.539 3.165-9.731 11.268-13.775 1.14-.505 2.153-1.011 3.165-1.39-.633-.884-1.266-1.895-1.646-2.906-4.304-8.088-4.81-15.923-1.14-17.819a3.52 3.52 0 0 1 1.647-.379Zm0-10.109c-2.153 0-4.305.505-6.204 1.39-3.419 1.643-5.951 4.675-7.217 8.593-1.52 4.676-1.14 10.615 1.14 16.807-4.179 2.907-8.99 7.33-10.89 13.269-1.139 3.791-.886 7.709.887 10.994 1.266 2.401 5.318 7.709 14.814 7.709 3.292 0 6.71-.632 10.382-1.769 4.431 6.066 10.762 11.247 17.852 11.247a14.85 14.85 0 0 0 6.204-1.39c3.419-1.643 5.951-4.676 7.217-8.593 1.52-4.676 1.14-10.616-1.139-16.808 4.178-2.906 8.989-7.329 10.889-13.269 1.139-3.791.886-7.708-.887-10.994-1.266-2.401-5.317-7.709-14.813-7.709-3.292 0-6.71.632-10.383 1.77-4.431-6.066-10.762-11.247-17.852-11.247Z" fill="white"/><path d="M182.954 292.548s47.86 28.687 97.112 44.357c49.253 15.67 70.777 10.615 72.296 1.516 1.646-9.099-36.085-44.735-36.085-44.735l-92.3-17.692-41.023 16.554Z" fill="black"/><path d="M331.344 347.646c-10.636 0-26.969-2.275-51.405-10.11-48.746-15.543-96.859-44.229-97.239-44.356-.253-.126-.379-.379-.253-.632 0-.252.127-.505.38-.505l41.149-16.681h.38l92.301 17.692c.126 0 .253.126.253.126 1.646 1.517 37.857 36.016 36.211 45.241-.38 2.148-1.899 4.297-4.431 5.687-2.406 1.642-7.47 3.538-17.346 3.538ZM184.22 292.675c7.343 4.296 51.278 29.57 95.972 43.724 32.413 10.362 57.609 12.89 67.738 6.824 2.153-1.39 3.419-2.906 3.799-4.928 1.266-7.204-25.196-34.247-35.705-44.23l-91.921-17.439-39.883 16.049Z" fill="black"/><path d="M227.65 446.468h116.231l-11.902-95.031a38.799 38.799 0 0 0 0-5.434c-.253-6.319-1.392-12.511-3.165-18.45-1.14-3.538-2.532-7.077-4.305-10.489 0 0 0-.126-.127-.126-2.025-4.17-4.558-8.088-7.47-11.5-4.178-5.181-8.989-9.983-14.813-14.027-.254-.127-.38-.379-.633-.506-1.013-.758-1.9-1.39-3.039-1.895-1.013-.632-2.026-1.264-3.166-1.769l-.759-.379a66.607 66.607 0 0 0-19.119-6.825h-.126c-.507-.126-.887-.126-1.393-.252-2.406-.506-4.938-.758-7.47-1.011-1.013-.127-1.773-.127-2.786-.127-1.646 0-3.038-.126-4.558 0-2.152.127-4.431.253-6.584.506-11.901 1.516-23.423 5.939-33.172 13.142-3.419 2.401-6.458 5.182-9.37 8.341-4.178 4.423-7.85 9.351-10.762 14.912-6.33 11.752-7.09 24.642-8.23 37.279-.253 2.654.634 64.196.76 93.767l35.958-.126Z" fill="black"/><path d="M227.649 447.226h-35.705c-.38 0-.633-.253-.633-.632 0-13.269-.253-33.362-.507-51.054-.253-22.115-.379-41.323-.253-42.839l.253-2.401c1.013-11.627 2.026-23.884 8.104-35.005 2.785-5.434 6.457-10.489 10.888-15.038 3.166-3.412 6.204-6.192 9.496-8.467 9.749-7.203 21.398-11.753 33.426-13.269 2.153-.253 4.432-.379 6.584-.505 1.139-.127 2.026 0 3.039 0h1.646c1.013 0 1.772 0 2.912.126 2.785.253 5.064.505 7.47 1.011.253 0 .506.126.633.126.253 0 .38 0 .633.127 6.711 1.263 13.294 3.538 19.372 6.95l.759.379c1.14.632 2.153 1.264 3.166 1.769 1.266.632 2.152 1.264 3.039 1.896.126 0 .253.253.379.253l.127.126c5.571 3.917 10.635 8.593 14.94 14.153 2.786 3.412 5.191 7.077 7.47 11.5.127.127.254.253.254.379 1.772 3.539 3.165 7.077 4.305 10.489 1.772 6.066 2.912 12.384 3.165 18.577a40.926 40.926 0 0 1 0 5.56l11.775 94.652c0 .126 0 .379-.127.505-.126.126-.253.253-.506.253H227.902c0 .379-.127.379-.253.379Zm-35.072-1.264h34.692c.126-.126.253-.126.38-.126H343.12l-11.775-94.273c.126-1.895.126-3.791 0-5.434-.254-6.192-1.393-12.258-3.166-18.323-1.139-3.412-2.405-6.824-4.178-10.363-.126 0-.126-.126-.126-.253a59.836 59.836 0 0 0-7.344-11.499c-4.305-5.434-9.243-10.11-14.687-13.901-.127 0-.253-.253-.38-.379l-.127-.127c-1.012-.758-1.899-1.39-3.038-1.895-1.013-.632-2.026-1.264-3.166-1.769l-.759-.379c-6.078-3.286-12.408-5.561-18.992-6.824h-.127c-.253 0-.38-.127-.633-.127s-.506-.126-.76-.126c-2.279-.506-4.684-.758-7.343-1.011-1.013-.127-1.773-.127-2.786-.127h-4.558c-2.152.127-4.431.253-6.584.506-11.901 1.516-23.296 5.939-32.919 13.016-3.165 2.275-6.204 4.929-9.243 8.214-4.304 4.55-7.85 9.478-10.635 14.786-5.824 10.994-6.964 22.873-7.977 34.499l-.253 2.401c-.127 1.516.127 21.483.253 42.713.507 17.818.633 37.532.76 50.801Z" fill="black"/><path d="m182.954 292.548 39.63-.632c20.005-.379 39.883 1.896 59.128 7.33 24.69 6.95 58.749 13.774 70.777 39.175l14.054-131.299c3.925-16.049-6.078-32.351-22.284-36.142l-88.502-21.104c-16.08-3.918-32.413 6.066-36.212 22.241l-36.591 120.431Z" fill="white"/><path d="M352.363 339.053a.698.698 0 0 1-.633-.379c-10.762-22.747-39.63-30.582-62.926-36.9-2.533-.759-4.938-1.391-7.471-2.022-18.738-5.182-38.49-7.709-59.001-7.33l-39.63.632c-.253 0-.38-.126-.507-.253-.126-.126-.126-.379-.126-.505l36.591-120.305a29.285 29.285 0 0 1 13.801-18.956c6.963-4.296 15.193-5.56 23.17-3.665l88.376 21.104c7.976 1.769 14.813 6.698 18.992 13.775 4.305 6.95 5.571 15.164 3.671 23.126l-13.8 131.299c.126.126-.127.379-.507.379 0 0 .127 0 0 0ZM226.51 291.285c19.119 0 37.731 2.401 55.203 7.329 2.406.632 4.938 1.39 7.47 2.022 22.917 6.192 51.152 13.901 62.8 35.637l13.801-129.278c1.773-7.708.633-15.543-3.545-22.241-4.178-6.697-10.635-11.5-18.232-13.142l-88.376-21.104c-7.723-1.769-15.573-.632-22.284 3.538-6.71 4.17-11.522 10.615-13.168 18.197l-36.338 119.674 38.744-.632h3.925Zm-51.152-151.898s-21.144 37.153-5.698 75.317l26.462-13.775 8.23-47.01-28.994-14.532Z" fill="black"/><path d="M169.66 215.336h-.253c-.127 0-.254-.253-.38-.379-15.194-38.038 5.571-75.444 5.697-75.823.127-.253.507-.379.887-.253l28.867 14.659c.254.127.38.38.38.632l-8.23 47.01c0 .253-.126.379-.379.506l-26.463 13.774c.127-.126 0-.126-.126-.126Zm5.951-75.064c-2.406 4.549-19.245 38.795-5.571 73.674l25.576-13.269 8.103-46.252-28.108-14.153Z" fill="black"/><path d="M49.125 142.42c70.65 57.372 170.801 54.213 175.612 54.213 12.661-.506 22.537-11.121 22.031-23.758-.507-12.637-11.142-22.494-23.803-21.988-1.646 0-111.167 2.78-164.85-63.944-2.786-3.412-6.964 2.022-8.61 2.78-3.039 1.517-2.912 2.149-9.37 7.33-9.875 8.087-25.702 8.719-17.725 18.576 8.23 10.11 17.219 18.956 26.715 26.791Z" fill="white"/><path d="M220.306 197.138c-22.03 0-108.887-3.412-171.56-54.339-10.003-8.088-18.992-17.06-26.842-26.791-1.9-2.274-2.659-4.423-2.152-6.066.76-3.159 4.81-4.928 9.369-7.329 3.418-1.643 7.344-3.538 10.635-6.066 2.66-2.022 4.179-3.412 5.192-4.423 1.645-1.516 2.279-2.022 4.304-3.033.38-.126 1.013-.632 1.646-1.263 1.646-1.39 3.545-2.907 5.445-2.78.886.126 1.646.505 2.279 1.39 51.025 63.311 152.822 63.69 164.217 63.564h.253c6.204-.253 12.281 1.896 16.839 6.192 4.685 4.297 7.344 10.11 7.597 16.302.507 12.89-9.622 23.884-22.663 24.39h-.127c-1.013.252-2.406.252-4.432.252Zm-170.8-55.224c67.864 55.098 164.217 54.213 175.105 54.087 12.408-.506 22.031-10.868 21.524-23.126-.253-5.939-2.785-11.5-7.09-15.544-4.431-4.043-10.002-6.192-15.953-5.939h-.253c-11.522.126-113.699-.253-165.103-64.07-.507-.505-1.013-.885-1.52-.885-1.52-.126-3.292 1.39-4.558 2.402-.76.631-1.393 1.137-1.9 1.39-1.645.884-2.278 1.39-3.924 2.78-1.14 1.01-2.659 2.275-5.191 4.423-3.292 2.654-7.344 4.675-10.889 6.192-4.431 2.022-8.23 3.917-8.736 6.445-.38 1.516.38 3.033 1.899 5.055a183.466 183.466 0 0 0 26.589 26.79Z" fill="black"/><path d="m169.66 214.704 61.154 4.676c20.891 1.642 38.996-14.028 40.642-34.752 1.646-20.725-14.054-38.923-34.818-40.565l-61.154-4.676.886 4.17c4.305 23.884 2.153 48.526-6.71 71.147Z" fill="white"/><path d="M233.726 220.138c-1.013 0-1.899 0-2.912-.126l-61.154-4.676c-.253 0-.38-.127-.506-.253a.382.382 0 0 1 0-.505c8.736-22.368 11.141-47.01 6.583-70.768l-.886-4.17c0-.253 0-.379.127-.506.126-.126.38-.252.506-.252l61.154 4.675c10.256.758 19.625 5.434 26.209 13.269 6.711 7.835 10.003 17.692 9.116 27.928-1.519 19.967-18.359 35.384-38.237 35.384Zm-63.306-5.813 60.394 4.549c20.511 1.643 38.364-13.774 40.01-34.246.759-9.857-2.406-19.461-8.863-27.044-6.457-7.582-15.447-12.005-25.449-12.889l-60.395-4.676.76 3.412c4.431 23.884 2.279 48.274-6.457 70.894Z" fill="black"/><path d="M49.758 97.053c1.646 1.39 3.925 1.642 5.95.884 2.913-1.39 4.179-4.675 2.913-7.582-.127-.253-8.23-18.703-8.863-32.856-.127-3.16-2.786-5.56-5.951-5.434-3.165.126-5.57 2.78-5.444 5.94.76 16.301 9.496 36.015 9.876 36.9.38.884.76 1.516 1.519 2.148Z" fill="white"/><path d="M53.429 99.075c-1.52 0-2.912-.506-4.052-1.517-.76-.632-1.393-1.516-1.646-2.4v-.127c-1.646-3.538-9.116-21.736-9.876-37.027-.126-3.538 2.533-6.445 6.078-6.571 1.646-.126 3.292.505 4.558 1.643 1.266 1.137 1.9 2.654 2.026 4.423.506 14.027 8.61 32.35 8.61 32.603 1.392 3.286 0 6.95-3.166 8.34-.76.38-1.646.633-2.532.633Zm-9.37-46.378h-.253c-2.785.126-4.938 2.527-4.938 5.307.76 14.912 8.23 33.11 9.75 36.521v.127c.38.884.886 1.516 1.519 1.895 1.52 1.264 3.545 1.517 5.318.758 2.532-1.263 3.671-4.17 2.532-6.697-.127-.127-8.23-18.703-8.863-33.11 0-1.39-.633-2.653-1.646-3.538a5.409 5.409 0 0 0-3.419-1.263Z" fill="black"/><path d="M40.769 100.97c2.025 1.643 4.937 1.643 7.217 0 2.405-1.895 2.912-5.56 1.012-8.088-.253 0-14.18-17.944-20.89-30.96-1.52-2.78-4.939-3.918-7.724-2.401-2.786 1.516-3.925 4.928-2.406 7.708 7.217 14.027 21.398 32.098 22.03 32.857.127.252.38.505.76.884Z" fill="white"/><path d="M44.313 102.866c-1.52 0-2.785-.506-3.925-1.517l.506-.505-.633.505c-.38-.379-.633-.631-.886-1.137-1.013-1.39-14.814-18.83-21.904-32.856-.76-1.517-1.013-3.16-.38-4.802.507-1.643 1.646-2.907 3.165-3.665 1.52-.758 3.166-1.011 4.812-.38 1.646.506 2.912 1.644 3.672 3.16 6.71 13.269 20.51 30.96 20.637 31.087 1.14 1.39 1.52 2.907 1.393 4.676-.253 1.643-1.14 3.159-2.279 4.297-1.392.758-2.785 1.137-4.178 1.137Zm-3.165-2.401c1.772 1.516 4.431 1.516 6.457 0 2.152-1.643 2.532-4.929.886-7.203 0 0-14.18-17.945-21.017-31.214-.634-1.264-1.646-2.022-2.913-2.527-1.392-.38-2.659-.253-3.925.379s-2.025 1.643-2.532 2.906c-.38 1.39-.253 2.654.38 3.918 7.47 14.406 21.777 32.603 21.904 32.73 0 0 .127.126.127.253.126.252.38.505.633.758Z" fill="black"/><path d="M31.779 127.761c2.152 1.769 5.444 1.643 7.723-.379 2.279-2.149 2.279-5.813.127-8.214-.127-.127-7.977-8.214-15.32-20.472-1.646-2.654-5.192-3.539-7.977-1.896-2.659 1.643-3.545 5.055-1.9 7.961 8.23 13.648 16.714 22.242 17.093 22.621-.126.126.127.252.254.379Z" fill="white"/><path d="M35.324 129.656c-1.52 0-2.785-.505-4.052-1.516l-.126-.126a135.57 135.57 0 0 0-.38-.379c-1.013-1.011-9.243-9.605-17.093-22.621-1.646-3.033-.76-7.077 2.153-8.72 2.912-1.642 6.837-.758 8.736 2.149 7.47 12.258 15.193 20.346 15.193 20.346 1.267 1.263 1.773 2.906 1.773 4.549 0 1.643-.76 3.286-1.9 4.549-1.012 1.264-2.658 1.769-4.304 1.769Zm-3.165-2.401c1.899 1.643 4.938 1.517 6.837-.379 1.013-1.011 1.646-2.148 1.646-3.664a5.055 5.055 0 0 0-1.52-3.665s-7.976-8.088-15.32-20.472c-1.52-2.275-4.811-3.16-7.09-1.643-2.28 1.516-3.165 4.676-1.646 7.077 8.23 13.648 16.84 22.367 16.966 22.367l.127.127c-.127.126 0 .252 0 .252Z" fill="black"/><path d="M34.437 111.08c2.152 1.769 5.444 1.643 7.723-.379 2.28-2.149 2.28-5.813.127-8.214-.127 0-7.977-8.088-15.32-20.346-1.646-2.78-5.191-3.665-7.977-1.896-2.659 1.643-3.545 5.055-1.9 7.962 8.23 13.648 16.714 22.241 17.094 22.62l.253.253Z" fill="white"/><path d="M37.982 112.975c-1.52 0-2.785-.505-4.051-1.516l-.127-.126c-.127 0-.253-.127-.253-.127 0-.126-8.737-8.972-17.093-22.747-1.646-3.032-.76-7.076 2.152-8.72 1.393-.884 3.039-1.263 4.812-.884 1.646.38 3.165 1.517 4.051 2.907 6.964 11.5 14.56 19.461 15.194 20.093 0 0 .126 0 .126.126 2.406 2.528 2.406 6.571-.126 8.972-1.393 1.517-3.039 2.022-4.685 2.022Zm-3.165-2.401c1.899 1.643 4.938 1.517 6.837-.379 2.026-1.895 2.026-5.181.127-7.329-1.773-1.517-9.117-9.857-15.447-20.346-.76-1.264-1.9-2.022-3.292-2.401-1.393-.38-2.66-.126-3.799.632-2.405 1.516-3.165 4.675-1.646 7.077 7.724 12.889 15.827 21.356 16.84 22.367l.38.379Z" fill="black"/><path d="M70.65 108.047c2.66-1.643 3.419-5.307 1.646-7.961-1.899-3.033-8.23-12.258-16.713-10.489-9.37 1.896-12.534 15.796-13.294 20.093-.38 2.022.506 4.17 2.026 5.434.76.632 1.646 1.011 2.659 1.264 3.165.505 6.077-1.643 6.583-4.676.76-4.549 2.786-9.478 4.305-10.742.633.379 2.28 1.517 4.938 5.434" fill="white"/><path d="M47.859 117.146c-.38 0-.633 0-1.013-.127a6.273 6.273 0 0 1-2.912-1.39c-1.773-1.516-2.66-3.917-2.28-6.066.76-4.296 3.926-18.45 13.801-20.598 4.179-.885 10.636.253 17.346 10.741 1.013 1.391 1.393 3.033 1.013 4.803-.38 1.642-1.392 3.159-2.785 4.043l-.633-1.011a4.93 4.93 0 0 0 2.152-3.285c.253-1.39 0-2.654-.886-3.791-4.938-7.962-10.636-11.5-16.08-10.236-9.116 1.895-12.155 16.681-12.661 19.587-.38 1.769.38 3.665 1.772 4.929.633.505 1.393.884 2.406 1.137a5.221 5.221 0 0 0 5.824-4.17c.76-4.55 2.786-9.731 4.558-11.121.253-.126.507-.253.76 0 1.646 1.011 3.292 2.78 5.065 5.687l-1.013.632c-1.646-2.401-2.913-4.171-4.305-4.929-1.266 1.517-3.039 5.813-3.799 9.983-.506 3.033-3.165 5.182-6.33 5.182Zm297.161 14.532c6.837 0 12.408-5.56 12.408-12.384 0-6.824-5.571-12.384-12.408-12.384s-12.408 5.56-12.408 12.384c0 6.824 5.571 12.384 12.408 12.384Z" fill="black"/><path d="M345.02 132.31c-7.217 0-13.041-5.813-13.041-13.016s5.824-13.016 13.041-13.016c7.217 0 13.041 5.813 13.041 13.016 0 7.077-5.824 13.016-13.041 13.016Zm0-24.895c-6.457 0-11.775 5.308-11.775 11.753 0 6.444 5.318 11.752 11.775 11.752 6.457 0 11.775-5.308 11.775-11.752.127-6.319-5.318-11.753-11.775-11.753Z" fill="black"/><path d="M345.273 136.481c1.139-6.824-3.545-13.143-10.256-14.28-6.837-1.138-13.167 3.538-14.307 10.236-1.14 6.824 3.545 13.142 10.256 14.28 6.837 1.137 13.167-3.539 14.307-10.236Z" fill="black"/><path d="M332.992 147.475c-7.217 0-13.041-5.813-13.041-13.017 0-7.203 5.824-13.016 13.041-13.016 7.217 0 13.041 5.813 13.041 13.016 0 7.204-5.824 13.017-13.041 13.017Zm0-24.769c-6.457 0-11.775 5.308-11.775 11.752 0 6.445 5.318 11.753 11.775 11.753 6.457 0 11.775-5.308 11.775-11.753 0-6.444-5.318-11.752-11.775-11.752Z" fill="black"/><path d="M280.446 124.602a8.341 8.341 0 0 0 8.357-8.341c0-4.676-3.799-8.34-8.357-8.34a8.341 8.341 0 1 0 0 16.681Z" fill="white"/><path d="M280.447 125.233c-4.938 0-8.99-4.043-8.99-8.972 0-4.928 4.052-8.972 8.99-8.972 4.937 0 8.989 4.044 8.989 8.972a8.934 8.934 0 0 1-8.989 8.972Zm0-16.807c-4.305 0-7.85 3.539-7.85 7.835 0 4.297 3.545 7.835 7.85 7.835 4.304 0 7.85-3.538 7.85-7.835 0-4.296-3.546-7.835-7.85-7.835Z" fill="black"/><path d="M310.96 183.49c-10.003-1.769-16.587-11.499-14.687-21.356l5.95-31.846c.127-.632.76-1.137 1.393-1.011l33.806 6.319c.633.126 1.139.758 1.013 1.39l-5.951 31.845c-2.026 9.857-11.648 16.428-21.524 14.659Z" fill="white"/><path d="M314.252 184.375c-1.14 0-2.279-.126-3.419-.379-4.938-1.011-9.369-3.791-12.155-7.962-2.785-4.17-3.925-9.225-2.912-14.279l5.951-31.846c.253-1.011 1.14-1.643 2.026-1.516l33.805 6.318c1.013.253 1.646 1.138 1.52 2.022l-5.951 31.846c-1.899 9.477-10.002 15.796-18.865 15.796Zm-10.889-54.592c-.253 0-.506.252-.633.505l-5.824 31.846c-.887 4.675 0 9.351 2.659 13.269 2.658 3.917 6.71 6.571 11.521 7.455 9.496 1.77 18.866-4.675 20.765-14.279l5.951-31.846c0-.253-.254-.632-.507-.632l-33.932-6.318c.127 0 .127 0 0 0Z" fill="black"/><path d="M335.65 136.86c.633.505 1.267.884 1.9 1.137v-.253c1.013-2.148 1.646-4.549 2.025-6.95.633-3.539.76-7.077.38-10.489-3.925.506-7.217 3.412-7.976 7.456-.38 3.665 1.013 7.203 3.671 9.099Z" fill="black"/><path d="M337.677 138.629h-.254c-.759-.253-1.519-.632-2.025-1.264-2.913-2.022-4.432-5.939-3.799-9.73.76-4.297 4.178-7.456 8.357-7.962.126 0 .379 0 .506.127.127.126.253.252.253.379.38 3.538.254 7.076-.38 10.615-.633 2.906-1.266 4.928-2.025 6.95v.127c0 .252-.127.379-.254.505-.126.253-.253.253-.379.253Zm1.899-17.566a8.984 8.984 0 0 0-6.837 6.824c-.633 3.286.759 6.698 3.292 8.467.379.379.759.632 1.266.758.759-1.769 1.393-3.791 1.772-6.445.633-3.285.76-6.444.507-9.604Z" fill="black"/><path d="M313.113 157.332c-3.166.505-6.458.379-9.75-.253-16.966-3.159-27.981-19.461-24.816-36.269 3.166-16.933 19.499-27.928 36.465-24.768 12.535 2.274 21.777 11.752 24.689 23.505 1.646-.379 3.545-.127 5.191.758 2.786 1.39 4.812 4.423 4.812 7.582 0 5.434-4.938 9.352-10.003 8.341-.253 0-.38-.127-.633-.127-.253 1.011-6.457 32.983-6.457 32.983" fill="white"/><path d="m333.119 169.084-1.267-.253c.254-1.39 6.205-31.971 6.458-32.982.126-.253.38-.506.633-.506s.38 0 .506.127h.253c2.279.505 4.685-.127 6.458-1.643 1.772-1.517 2.785-3.791 2.785-6.192 0-2.907-1.772-5.687-4.431-6.951-1.646-.758-3.292-1.011-4.938-.758-.38.126-.633-.126-.76-.505-2.785-11.753-12.281-20.852-24.183-23-8.103-1.516-16.206.253-22.917 4.802-6.71 4.676-11.395 11.5-12.788 19.588-1.519 8.087.254 16.049 4.812 22.746 4.684 6.698 11.521 11.247 19.625 12.764 3.292.632 6.583.758 9.496.253l.253 1.263c-3.166.506-6.458.379-10.003-.253-8.23-1.642-15.573-6.192-20.384-13.268-4.812-7.077-6.584-15.418-4.938-23.758 1.646-8.214 6.33-15.544 13.294-20.346 7.09-4.802 15.447-6.571 23.93-4.928 12.028 2.148 21.777 11.499 24.943 23.378 1.646-.252 3.418.127 5.064.885 3.039 1.516 5.065 4.802 5.065 8.088 0 2.78-1.266 5.307-3.292 7.076-2.026 1.643-4.812 2.401-7.47 1.896-.633 3.665-4.305 22.241-6.204 32.477Z" fill="black"/><path d="M340.714 123.212c2.279.505 3.799 2.653 3.419 4.928-.38 2.148-2.659 3.791-4.938 3.412" fill="white"/><path d="M339.829 132.184h-.76l.253-1.264c.886.127 1.773-.126 2.659-.632.886-.631 1.393-1.39 1.519-2.274.38-1.896-1.013-3.791-2.912-4.17l.253-1.264c2.533.632 4.305 3.033 3.925 5.56-.253 1.264-1.012 2.275-1.899 3.033-1.139.758-2.026 1.011-3.038 1.011Zm-43.429-8.467c.253-1.264-.506-2.527-1.646-2.78-1.139-.253-2.406.505-2.659 1.769-.253 1.264.507 2.528 1.646 2.78 1.266.253 2.406-.505 2.659-1.769Zm2.278-7.077c-3.798-3.033-7.217-.758-7.343-.632l-.76-1.011s4.305-3.033 8.736.632l-.633 1.011Zm17.98 11.753c.253-1.264-.507-2.528-1.646-2.78-1.14-.253-2.406.505-2.659 1.769-.253 1.263.506 2.527 1.646 2.78 1.266.253 2.406-.506 2.659-1.769Zm2.404-7.077c-3.798-3.033-7.217-.758-7.343-.632l-.76-1.011s4.305-3.033 8.736.632l-.633 1.011Zm-14.052 25.78h-.253v-1.264c5.191.126 5.571-4.676 5.571-4.802h1.266c0 .252-.38 6.066-6.584 6.066Z" fill="black"/><path d="m301.718 122.832-2.912 10.489c-.38 1.643.76 3.412 2.406 3.791l.506.127" fill="white"/><path d="m301.591 137.87-.507-.126c-2.026-.505-3.292-2.401-2.912-4.549l2.912-10.489 1.266.379-2.912 10.489c-.253 1.39.633 2.654 1.899 3.033l.507.126-.253 1.137Zm27.727-47.136c1.646-9.351-4.684-18.324-14.054-19.966-9.369-1.643-18.359 4.675-20.005 14.027-1.646 9.351 4.685 18.324 14.054 19.966 9.37 1.643 18.359-4.675 20.005-14.027Z" fill="black"/><path d="M312.226 105.646c-9.876 0-17.979-8.088-17.979-17.945 0-9.856 8.103-17.944 17.979-17.944s17.979 8.087 17.979 17.944-8.103 17.945-17.979 17.945Zm0-34.626c-9.243 0-16.713 7.456-16.713 16.681 0 9.226 7.47 16.681 16.713 16.681 9.243 0 16.713-7.456 16.713-16.68 0-9.226-7.344-16.681-16.713-16.681Z" fill="black"/><path d="M334.13 121.821c10.509 0 18.992-8.466 18.992-18.955 0-10.489-8.483-18.956-18.992-18.956s-18.992 8.467-18.992 18.956c0 10.489 8.483 18.955 18.992 18.955Z" fill="black"/><path d="M334.13 122.453c-10.888 0-19.625-8.719-19.625-19.587s8.737-19.588 19.625-19.588c10.889 0 19.625 8.72 19.625 19.588s-8.863 19.587-19.625 19.587Zm0-38.037c-10.129 0-18.358 8.214-18.358 18.323 0 10.11 8.229 18.324 18.358 18.324 10.129 0 18.359-8.214 18.359-18.324 0-10.11-8.23-18.323-18.359-18.323Zm-41.908 26.664c9.116 0 16.46-7.33 16.46-16.428 0-9.099-7.344-16.428-16.46-16.428s-16.46 7.329-16.46 16.428c0 9.098 7.47 16.428 16.46 16.428Z" fill="black"/><path d="M292.222 111.712c-9.369 0-17.093-7.709-17.093-17.06 0-9.352 7.724-17.06 17.093-17.06s17.093 7.708 17.093 17.06c0 9.351-7.597 17.06-17.093 17.06Zm0-32.857c-8.736 0-15.826 7.077-15.826 15.797 0 8.719 7.09 15.796 15.826 15.796s15.827-7.077 15.827-15.796c.126-8.72-6.964-15.797-15.827-15.797Zm57.228 378.986h139.148a38.968 38.968 0 0 0 .379-13.269c-1.266-8.214-3.671-21.862-7.976-29.57a71.411 71.411 0 0 0-11.016-14.786c-2.912-3.033-6.077-5.813-9.496-8.214-9.875-7.077-21.397-11.373-33.299-12.637a57.432 57.432 0 0 0-6.584-.379c-1.519 0-3.038 0-4.558.126-1.013 0-1.772.127-2.785.253a82.705 82.705 0 0 0-7.47 1.137c-.507.127-.887.127-1.393.253h-.127c-6.457 1.517-12.914 3.791-18.992 7.203l-.759.379c-1.14.632-2.026 1.264-3.166 1.77-1.012.631-2.025 1.39-3.038 2.022-.254.126-.38.252-.633.505-5.571 4.17-10.509 8.846-14.561 14.28-2.785 3.665-5.191 7.709-7.217 11.626 0 .126-.126.126-.126.126-1.646 3.412-3.039 6.951-4.052 10.489-1.773 5.94-2.785 12.258-2.912 18.45 0 1.643 0 3.539.127 5.182.506.252.506 4.802.506 5.054Z" fill="black"/><path d="M488.599 458.473H349.451c-.379 0-.633-.253-.633-.632 0-2.274-.126-4.296-.126-4.675 0-.127-.127-.127-.127-.253-.127-1.643-.127-3.539-.127-5.181.127-6.319 1.14-12.764 2.913-18.577.886-3.033 2.152-6.445 4.051-10.615 0-.126.127-.126.127-.253 2.026-4.17 4.558-8.214 7.217-11.626 4.051-5.307 8.863-10.109 14.687-14.406.126-.253.38-.379.76-.506 1.139-.884 2.152-1.642 3.038-2.022.633-.379 1.14-.631 1.646-1.01.507-.38 1.14-.632 1.646-1.011l.76-.38c5.697-3.285 12.155-5.686 19.118-7.203h.127c.253 0 .506-.126.76-.126.253 0 .379 0 .633-.126 2.659-.506 5.064-.885 7.597-1.138h.253c.886-.126 1.646-.252 2.532-.252 1.519-.127 3.039-.127 4.558-.127 2.152 0 4.432.127 6.711.379 12.154 1.39 23.803 5.687 33.552 12.764 3.165 2.148 6.457 4.928 9.623 8.214 4.431 4.675 8.229 9.73 11.141 14.912 3.292 5.813 5.951 15.796 8.104 29.823.633 4.549.506 8.972-.38 13.522-.507.252-.76.505-1.013.505Zm-138.515-1.137h138.008c.76-4.17.887-8.341.254-12.511-1.899-13.522-4.812-23.758-7.85-29.318-2.912-5.181-6.584-10.11-10.889-14.785a54.202 54.202 0 0 0-9.369-8.088c-9.623-6.824-21.018-11.247-33.046-12.511a57.172 57.172 0 0 0-6.458-.379c-1.519 0-3.038 0-4.558.127-.886 0-1.646.126-2.405.252h-.38a98.54 98.54 0 0 0-7.47 1.138c-.254 0-.507.126-.76.126s-.38 0-.633.126h-.127c-6.837 1.643-13.167 3.918-18.865 7.077l-.76.379c-.506.253-1.139.632-1.646.885-.506.379-1.139.632-1.646 1.011-.759.505-1.772 1.264-2.912 2.022a.986.986 0 0 0-.506.505c-5.698 4.297-10.509 8.973-14.561 14.154-2.658 3.412-5.064 7.456-7.09 11.5 0 .126-.127.252-.253.379-1.773 4.043-3.039 7.203-3.925 10.236a68.365 68.365 0 0 0-2.912 18.323c0 1.643 0 3.412.126 4.929.507.253.633 1.39.633 4.423Zm123.447-120.811 20.638 5.94c23.17-11.753 20.764-70.894 20.764-70.894l-.38.126-31.273 12.637s-10.002 13.396-5.318 29.571c1.013 3.286-3.418 14.28-4.431 22.62Z" fill="black"/><path d="m494.168 343.097-20.764-5.94c-.253-.126-.507-.379-.507-.632.507-3.791 1.646-8.214 2.533-12.005 1.266-4.549 2.279-8.719 1.772-10.362-4.684-16.302 5.318-29.95 5.445-30.076l.253-.253 31.526-12.764c.127 0 .38 0 .507.127.127.126.253.253.253.505.38 2.401 2.406 59.647-21.018 71.4.127 0 .254 0 0 0Zm-20.004-6.951 19.878 5.687c20.891-10.994 20.384-62.174 20.258-69.504l-30.64 12.384c-1.013 1.517-9.37 14.154-5.065 28.939.633 1.896-.506 5.94-1.773 10.995-1.012 3.791-2.152 7.961-2.658 11.499Z" fill="black"/><path d="M568.87 350.173c11.775 0 23.296-4.675 31.906-13.016 11.648-11.499 16.333-28.433 12.028-44.356-.126-.379-.253-.884-.38-1.264l-23.929-72.536c-4.179-12.511-17.6-19.335-30.134-15.165-9.496 3.159-8.737 14.786-9.37 24.137-.253 3.033-6.837 2.906-5.697 5.939l20.005 60.785c1.012 2.78-1.646 5.56-4.685 4.802l-69.257-20.093c-13.041-3.791-26.716 4.044-29.881 17.439-2.912 12.511 4.938 25.021 17.346 28.56l79.513 22.873c4.178 1.264 8.483 1.895 12.535 1.895Z" fill="white"/><path d="M568.87 350.805c-4.305 0-8.61-.632-12.535-1.769l-79.513-22.873c-12.915-3.665-20.765-16.555-17.726-29.318 1.646-6.572 5.571-12.005 11.522-15.417 5.824-3.412 12.661-4.297 19.118-2.275l69.258 20.093c1.266.379 2.279 0 3.165-.885.886-.884 1.14-2.022.76-3.033l-20.005-60.784c-.76-2.022 1.266-3.033 2.912-3.791 1.393-.632 2.659-1.264 2.785-2.275.127-1.137.127-2.148.127-3.412.38-8.467.886-18.197 9.623-21.23 6.204-2.022 12.788-1.643 18.612 1.39 5.824 3.033 10.129 8.088 12.155 14.28l23.929 72.537c.127.252.127.379.254.632 0 .252.126.379.126.631 4.432 16.049-.38 33.362-12.155 44.862-8.736 7.835-20.258 12.637-32.412 12.637Zm-85.971-71.652c-4.051 0-8.103 1.137-11.648 3.159-5.444 3.286-9.369 8.341-10.889 14.786-2.785 12.131 4.685 24.389 16.966 27.927l79.513 22.874c3.925 1.263 8.23 1.769 12.282 1.769 11.775 0 22.917-4.676 31.526-12.89 11.522-11.373 16.08-27.928 11.902-43.724 0-.127-.127-.379-.253-.632 0-.253-.127-.379-.127-.632l-24.183-72.41c-1.899-5.94-6.077-10.742-11.522-13.522-5.444-2.78-11.775-3.286-17.852-1.39-7.977 2.654-8.357 11.499-8.736 20.093 0 1.263-.127 2.274-.127 3.412-.127 1.769-1.899 2.654-3.545 3.412-1.773.884-2.659 1.39-2.279 2.274l20.005 60.785c.506 1.516.126 3.159-1.013 4.423-1.14 1.263-2.786 1.643-4.432 1.263l-69.257-20.093c-2.026-.505-4.178-.884-6.331-.884Z" fill="black"/><path d="M559.249 306.702c0-4.17 4.178-9.099 4.178-9.099s-1.393 3.16-.126 6.572" fill="white"/><path d="M559.882 306.702h-1.266c0-4.297 4.178-9.225 4.305-9.478.253-.253.507-.253.76-.126.253.126.38.505.253.758 0 0-1.266 3.033-.127 6.066l-1.139.379c-.507-1.517-.633-2.78-.507-4.044-1.013 1.895-2.279 4.297-2.279 6.445Z" fill="black"/><path d="M578.367 220.391c-2.153-6.192-7.85-22.368-9.496-33.615-.38-1.895-1.646-3.538-3.292-4.296-1.013-.38-1.9-.506-3.039-.38-3.039.506-5.065 3.286-4.685 6.319 1.773 12.005 7.47 28.56 9.749 35.131" fill="white"/><path d="M567.098 223.929c-2.912-8.214-8.103-23.758-9.749-35.257-.507-3.286 1.772-6.445 5.064-7.077 1.266-.127 2.279 0 3.419.379 1.899.884 3.292 2.527 3.672 4.802.886 5.308 3.165 15.544 9.496 33.488l-1.14.379c-6.331-18.071-8.61-28.307-9.496-33.741-.38-1.642-1.519-3.159-2.912-3.791-.886-.379-1.646-.505-2.659-.379-2.659.506-4.558 2.907-4.178 5.56 1.646 11.5 6.837 26.917 9.749 35.005l-1.266.632Z" fill="black"/><path d="M567.352 222.665c-.126-.252-8.229-21.483-10.762-35.51-.379-1.895-1.646-3.538-3.418-4.17-1.013-.379-1.899-.506-3.039-.379-3.039.505-4.938 3.412-4.558 6.445 2.659 14.911 10.129 36.774 10.509 37.785" fill="white"/><path d="M555.449 227.088c-.76-1.769-7.976-23.378-10.509-37.784-.633-3.412 1.646-6.572 4.938-7.204 1.266-.126 2.279 0 3.419.38 1.899.758 3.418 2.401 3.798 4.675 2.406 14.027 10.636 35.131 10.762 35.384l-1.139.506c-.127-.127-8.23-21.483-10.762-35.637-.38-1.643-1.52-3.159-3.039-3.665-.886-.379-1.773-.505-2.786-.379-2.532.379-4.431 3.033-4.051 5.687 2.532 14.406 9.749 35.763 10.509 37.658l-1.14.379Z" fill="black"/><path d="M556.084 226.709c-2.406-6.824-7.217-20.851-8.99-31.087-.38-1.896-1.646-3.538-3.418-4.17-1.013-.379-1.899-.506-3.039-.379-3.039.505-4.938 3.412-4.558 6.444 2.659 14.912 11.268 38.038 11.522 39.049" fill="white"/><path d="M547.092 236.945c-.126-.252-8.862-23.884-11.521-39.175-.633-3.412 1.646-6.571 4.938-7.203 1.266-.126 2.279 0 3.418.379 1.899.759 3.419 2.401 3.798 4.676 1.773 10.11 6.458 23.758 8.99 30.961l-1.14.379c-2.532-7.33-7.216-20.978-8.989-31.214-.38-1.642-1.519-3.159-3.039-3.664-.886-.379-1.772-.506-2.785-.379-2.532.379-4.432 3.032-4.052 5.686 2.659 15.165 11.522 38.67 11.522 38.922l-1.14.632Z" fill="black"/><path d="M592.927 232.143c-.127-.253-7.597-22.494-9.37-36.647-.253-1.896-1.519-3.539-3.165-4.423-.886-.379-1.899-.632-3.039-.506-3.039.379-5.191 3.159-4.938 6.192 1.013 7.709 3.292 17.187 5.445 24.895" fill="white"/><path d="M592.421 232.396c-.126-.126-7.596-22.494-9.369-36.9-.253-1.643-1.266-3.16-2.786-3.918-.506-.253-1.645-.632-2.658-.505-2.659.379-4.685 2.78-4.432 5.434 1.14 8.214 3.545 18.071 5.445 24.768l-1.267.379c-1.899-6.824-4.558-16.807-5.444-25.021-.38-3.412 2.026-6.445 5.318-6.95 1.519-.127 2.659.252 3.418.505 1.9 1.011 3.292 2.78 3.546 4.928 1.772 14.28 9.242 36.269 9.369 36.522l-1.14.758Z" fill="black"/><path d="M560.389 253.247c-.127 1.895-1.266 3.791-3.166 4.676-2.785 1.39-6.077.126-7.47-2.528 0-.126-3.545-9.857-20.131-24.263-2.279-2.022-2.532-5.434-.507-7.835 1.646-1.895 4.432-2.401 6.458-1.39.506.253.886.505 1.392.885 8.23 7.076 11.775 12.005 15.7 17.06l2.279 2.906" fill="white"/><path d="M554.817 258.934c-2.279 0-4.558-1.264-5.571-3.412v-.127c-.126-.379-3.672-9.857-19.878-23.884-1.266-1.137-1.899-2.527-2.026-4.296-.126-1.643.507-3.16 1.646-4.423 1.773-2.022 4.938-2.654 7.217-1.517.507.253 1.013.506 1.519.885 7.597 6.571 11.396 11.373 14.814 15.923l3.165 4.17-1.012.758-3.166-4.17c-3.545-4.676-7.217-9.352-14.813-15.797-.38-.252-.76-.505-1.267-.758-1.899-1.011-4.304-.505-5.697 1.264-.887 1.011-1.393 2.275-1.266 3.538.126 1.39.759 2.401 1.646 3.412 15.573 13.522 19.625 22.747 20.258 24.516 1.266 2.401 4.178 3.412 6.584 2.275 1.646-.758 2.658-2.275 2.785-4.17l1.266.126c-.126 2.275-1.519 4.297-3.545 5.055-.886.505-1.773.632-2.659.632Z" fill="black"/><path d="M411.364 290.905c0 16.05 10.636 30.961 26.842 35.511l35.325 10.109 20.638 5.94c.507-23.253 6.584-45.999 17.979-66.345l2.406-4.549.126-.253-55.963-16.049c-19.625-5.56-40.262 5.687-45.833 25.274-1.013 3.538-1.52 6.95-1.52 10.362Z" fill="white"/><path d="m494.169 343.097-20.765-5.94-35.325-10.109c-16.079-4.676-27.348-19.461-27.348-36.142 0-3.412.506-6.951 1.519-10.363 5.698-19.84 26.589-31.34 46.594-25.653l55.963 16.049c.126 0 .38.126.38.379.126.126.126.379 0 .506l-.127.252-2.406 4.55c-11.268 20.093-17.346 42.966-17.852 66.092 0 .252-.127.379-.253.505-.127-.126-.254-.126-.38-.126Zm-45.707-88.586c-15.827 0-30.514 10.362-34.946 26.285a34.365 34.365 0 0 0-1.519 10.11c0 16.175 10.889 30.581 26.336 34.878l35.325 10.11 19.878 5.686a144.018 144.018 0 0 1 17.979-65.839l2.152-4.044-55.203-15.796c-3.292-.885-6.71-1.39-10.002-1.39ZM321.343 417.908s54.317 12.384 106.228 12.005c51.658-.379 70.65-11.879 69.257-21.104-1.393-9.098-48.239-31.213-48.239-31.213l-93.314 11.752-33.932 28.56Z" fill="black"/><path d="M425.292 430.545c-50.645 0-103.569-11.879-104.076-12.005-.253 0-.379-.253-.506-.505 0-.253 0-.506.253-.632l33.932-28.434c.127-.126.254-.126.38-.126l93.314-11.753h.38c1.899.885 47.353 22.368 48.619 31.72.38 2.148-.506 4.675-2.279 6.697-3.798 4.423-17.979 14.786-67.485 14.912-1.012.126-1.772.126-2.532.126Zm-102.683-13.016c8.23 1.769 57.862 12.005 104.836 11.753 34.059-.253 58.875-5.687 66.598-14.659 1.646-1.896 2.279-3.918 2.026-5.687-1.14-7.203-34.692-24.642-47.733-30.835l-92.934 11.753-32.793 27.675Z" fill="black"/><path d="m321.343 417.908 37.477-12.89c18.865-6.445 38.49-10.615 58.369-11.373 25.702-1.138 60.141-5.181 79.386 15.164l-27.602-129.151c-1.392-16.554-15.826-28.812-32.413-27.548l-90.528 7.455c-16.586 1.391-28.868 15.797-27.601 32.351l2.912 125.992Z" fill="white"/><path d="M321.343 418.414c-.127 0-.253 0-.38-.127-.127-.126-.253-.253-.253-.505l-2.912-125.866c-1.393-16.807 11.268-31.592 28.108-32.982l90.528-7.456c8.23-.632 16.08 1.895 22.41 7.203 6.204 5.307 10.003 12.637 10.762 20.977l27.602 129.025a.696.696 0 0 1-.38.632c-.253.126-.506.126-.759-.127-17.22-18.197-47.1-16.68-71.03-15.417-2.659.127-5.191.253-7.85.379-18.612.759-38.237 4.55-58.242 11.374l-37.351 12.763c-.127.127-.127.127-.253.127Zm117.623-165.673c-.886 0-1.646.001-2.406.127l-90.528 7.456c-16.206 1.39-28.234 15.543-26.968 31.719l2.912 124.98 36.718-12.637c20.004-6.824 39.756-10.741 58.495-11.373 2.532-.126 5.064-.253 7.85-.379 23.676-1.264 52.797-2.78 70.65 14.28l-27.222-127.003c-.633-7.961-4.305-15.038-10.256-20.093-5.444-4.675-12.155-7.077-19.245-7.077Z" fill="black"/><path d="M282.726 348.025s33.426 26.917 73.942 17.945l-9.369-28.307-45.328-15.67-19.245 26.032Z" fill="black"/><path d="M339.953 368.371c-32.412 0-57.229-19.588-57.608-19.84-.254-.253-.254-.632-.127-.885l19.118-26.159c.127-.252.507-.252.76-.252l45.328 15.67c.126.126.379.252.379.379l9.37 28.307v.505c-.127.127-.253.253-.38.253a72.05 72.05 0 0 1-16.84 2.022Zm-56.342-20.472c4.178 3.159 35.325 25.4 72.296 17.565l-8.99-27.422-44.568-15.417-18.738 25.274Z" fill="black"/><path d="M287.284 384.546h46.72c7.47-44.609 26.082-79.487 26.715-80.498 6.078-11.121 2.026-25.021-8.989-31.214-11.142-6.192-25.07-2.021-31.274 8.973-.253.505-1.266 2.148-2.532 4.928-6.837 13.269-24.31 51.18-30.64 97.811Z" fill="white"/><path d="M334.004 385.178h-46.721c-.126 0-.379-.126-.506-.253-.127-.126-.127-.379-.127-.505 6.204-45.873 23.424-83.784 30.514-98.064 1.013-1.769 1.646-3.285 2.153-4.17.253-.379.379-.632.379-.758 3.039-5.434 8.23-9.478 14.308-11.374 6.077-1.642 12.408-1.137 17.979 2.022 11.395 6.319 15.446 20.852 9.242 32.099-.253.379-19.118 35.131-26.588 80.245 0 .505-.38.758-.633.758Zm-45.961-1.264h45.454c7.597-44.988 26.462-79.866 26.715-80.245 5.825-10.741 1.9-24.39-8.736-30.455-5.191-2.907-11.268-3.665-17.093-1.896-5.697 1.643-10.508 5.434-13.547 10.742-.127.126-.253.379-.38.758-.506.884-1.266 2.148-2.152 4.17-6.964 14.027-24.057 51.559-30.261 96.926Z" fill="black"/><path d="m356.667 365.843 14.561-59.773c4.938-20.346-7.597-40.944-27.982-45.746-20.384-4.929-41.022 7.582-45.833 27.928l-14.561 59.773 4.305-.126c24.31-.759 48.366 5.434 69.51 17.944Z" fill="white"/><path d="M356.668 366.475c-.127 0-.253 0-.38-.126-21.018-12.511-44.948-18.577-69.257-17.819l-4.305.127c-.253 0-.38-.127-.507-.253-.126-.126-.126-.379-.126-.505l14.56-59.774c2.406-10.109 8.483-18.45 17.473-24.01 8.736-5.308 19.118-6.951 29.121-4.55 10.129 2.401 18.485 8.467 24.056 17.44a38.331 38.331 0 0 1 4.558 29.065l-14.56 59.773c0 .253-.127.379-.38.379-.127.253-.127.253-.253.253Zm-65.079-19.208c22.663 0 44.947 6.066 64.699 17.692l14.307-58.889c2.406-9.604.886-19.714-4.431-28.181-5.191-8.467-13.421-14.532-23.17-16.807-9.75-2.401-19.752-.885-28.235 4.423-8.483 5.181-14.561 13.395-16.84 23.126l-14.433 58.889 3.418-.127c1.646 0 3.039-.126 4.685-.126Z" fill="black"/><path d="M352.868 224.308a8.34 8.34 0 0 0 8.357-8.34c0-4.676-3.799-8.341-8.357-8.341s-8.356 3.791-8.356 8.341a8.34 8.34 0 0 0 8.356 8.34Z" fill="white"/><path d="M352.868 224.814c-4.938 0-8.99-4.044-8.99-8.973 0-4.928 4.052-8.972 8.99-8.972 4.938 0 8.989 4.044 8.989 8.972 0 5.055-3.925 8.973-8.989 8.973Zm0-16.808c-4.305 0-7.85 3.539-7.85 7.835 0 4.297 3.545 7.835 7.85 7.835s7.85-3.538 7.85-7.835c0-4.296-3.545-7.835-7.85-7.835Z" fill="black"/><path d="M394.019 276.752c-10.129-.126-18.106-8.467-17.979-18.45l.507-29.571c0-2.022 1.772-3.791 3.925-3.791l28.867.506c2.026 0 3.799 1.769 3.799 3.917l-.507 29.571c-.253 9.857-8.609 17.945-18.612 17.818Z" fill="white"/><path d="M394.146 277.257h-.253c-4.938 0-9.749-2.021-13.295-5.686-3.545-3.665-5.317-8.341-5.191-13.395l.507-29.571c0-2.275 2.025-4.423 4.558-4.423l28.867.505c2.279 0 4.432 2.022 4.432 4.55l-.507 29.57c-.253 10.236-8.862 18.45-19.118 18.45Zm-13.674-51.812c-1.773 0-3.292 1.517-3.292 3.16l-.507 29.571c-.126 4.675 1.646 9.098 4.938 12.51 3.292 3.412 7.724 5.308 12.408 5.308h.254c9.622 0 17.599-7.709 17.852-17.313l.506-29.571c0-1.769-1.519-3.285-3.165-3.285l-28.994-.38Z" fill="black"/><path d="M410.479 226.962c.633.379 1.393.632 2.026.758h.127v-.253c.506-2.274.886-4.675.886-7.076.126-3.539-.507-7.077-1.519-10.363-3.672 1.138-6.458 4.55-6.458 8.594-.126 3.664 1.899 6.697 4.938 8.34Z" fill="black"/><path d="M412.631 228.226c-1.14-.127-1.773-.38-2.406-.885-3.292-1.769-5.318-5.181-5.191-8.846 0-4.17 2.785-8.088 6.964-9.225h.506c.127.126.253.253.253.379 1.14 3.665 1.646 7.33 1.52 10.615 0 2.654-.507 5.181-.887 7.077v.126c-.126.506-.379.759-.759.759Zm-1.013-17.44c-3.292 1.264-5.445 4.423-5.445 7.962-.126 3.159 1.646 6.192 4.559 7.835.379.253.886.379 1.392.505.38-1.769.76-4.17.76-6.571.127-3.159-.38-6.319-1.266-9.731Z" fill="black"/><path d="M414.151 208.512c-.38 0-.76 0-1.266.126v-8.214c0-16.934-13.801-30.582-30.641-30.582-16.966 0-30.64 13.775-30.64 30.582l.127 20.978c0 6.192 1.646 12.384 5.317 17.565 5.445 7.835 14.561 13.016 24.816 13.269 3.292 0 6.584-.379 9.623-1.39 10.382-3.159 18.486-11.626 21.144-22.241v-.253c.254-1.011.38-1.769.507-2.78h.633c4.685.126 8.356-3.665 8.483-8.214.38-4.929-3.419-8.72-8.103-8.846Z" fill="white"/><path d="M382.117 252.741c-10.129-.252-19.625-5.181-25.323-13.521-3.545-4.929-5.444-11.247-5.444-17.945l-.127-20.977c0-17.187 14.054-31.214 31.274-31.214 17.219 0 31.273 14.027 31.273 31.214v7.582h.633c4.938.126 8.989 4.296 8.863 9.225-.127 2.401-1.14 4.676-2.786 6.318-1.646 1.643-4.051 2.528-6.33 2.528l-.38 2.275v.252c-2.532 10.742-10.889 19.461-21.398 22.747-3.292 1.011-6.584 1.516-10.255 1.516Zm.253-82.267c-16.586 0-30.007 13.395-30.007 29.95l.126 20.977c0 6.445 1.773 12.385 5.191 17.187 5.571 7.961 14.814 12.763 24.437 13.016 3.545 0 6.71-.505 9.369-1.39 10.256-3.159 18.106-11.5 20.765-21.736v-.252c.253-.885.379-1.643.506-2.654 0-.253.253-.506.633-.506h.633c2.026 0 4.052-.758 5.444-2.148 1.52-1.517 2.28-3.412 2.406-5.434.127-4.297-3.292-7.961-7.723-8.088-.38 0-.633 0-1.14.127-.126 0-.38 0-.506-.127-.127-.126-.253-.252-.253-.505v-8.214c.126-16.808-13.295-30.203-29.881-30.203Z" fill="black"/><path d="M413.138 212.808c2.279 0 4.178 1.896 4.178 4.297 0 2.275-1.899 4.17-4.305 4.17" fill="white"/><path d="M413.011 221.781v-1.264c2.026 0 3.672-1.643 3.672-3.538 0-2.022-1.646-3.665-3.545-3.665v-1.264c2.659 0 4.811 2.148 4.811 4.929-.126 2.78-2.279 4.802-4.938 4.802Z" fill="black"/><path d="M421.24 196.633c.126-.253.253-.379.379-.506a16.079 16.079 0 0 0 2.912-10.867c-.633-6.066-4.937-11.374-10.635-13.396-3.419-1.263-6.584-1.263-9.369-.379-1.52-6.318-7.217-11.247-14.054-11.247a14.26 14.26 0 0 0-10.383 4.423c-7.343-3.791-30.387-13.522-37.857 6.951-8.736 23.884 31.147 28.307 47.733 17.439h.507c.633 0 1.139 0 1.646-.127l.759.379c1.14 6.824 6.458 12.132 13.168 13.269.506 1.517.886 2.907.886 4.676 0 11.879-7.47 22.747-16.966 23.631-9.496.885-14.18-3.791-18.992-2.401-7.597 2.149-15.067.885-18.485-1.895-3.292-2.78 2.785 26.917 21.271 27.296 14.94.253 23.043 1.39 32.792-10.615 1.773-2.149 3.292-4.802 4.432-7.33 1.899-4.676 2.912-9.73 2.912-14.785v-4.929c0-4.802 1.14-9.477 2.912-13.9.507-1.011 1.519-2.022 2.406-3.16a57.355 57.355 0 0 1 2.026-2.527Z" fill="#3F2AFF"/><path d="M365.405 210.534c.127-1.39-.886-2.654-2.152-2.781-1.393-.126-2.533.885-2.659 2.275-.127 1.39.886 2.654 2.152 2.78 1.393.127 2.532-.884 2.659-2.274Zm-6.839-7.835-.886-.885s4.178-3.917 9.749-.632l-.633 1.138c-4.685-2.907-7.977.126-8.23.379Zm30.134 9.983c.127-1.39-.886-2.654-2.153-2.78-1.392-.126-2.532.885-2.658 2.275-.127 1.39.886 2.653 2.152 2.78 1.393.126 2.532-.885 2.659-2.275Zm-6.837-7.961-.886-.885s4.178-3.918 9.749-.632l-.633 1.137c-4.684-2.906-7.976.253-8.23.38Zm-7.85 31.592c-1.139 0-2.405-.253-3.798-1.011l.633-1.137c5.191 2.78 7.977-1.643 8.103-1.896l1.14.632c-.254 0-2.406 3.412-6.078 3.412Zm-.633-11.12h-.633c-2.279-.253-4.052-2.275-3.925-4.55l1.646-12.005 1.266.126-1.646 12.006c-.127 1.642 1.139 3.033 2.785 3.159h.507v1.264Z" fill="black"/><path d="m260.061 398.068-48.24 37.532-.253.253-2.406 1.895c-.379.38-.886.632-1.266 1.011.127.885.253 1.643.38 2.401.127.38.127.759.253 1.138.633 3.665 1.52 7.456 2.279 11.5.254 1.516.633 2.78 1.013 4.296h-70.903l-1.393-8.214c-1.013-5.939-1.139-12.005-.506-17.945 1.899-18.702 11.522-36.268 26.589-48.02.506-.38 1.139-.885 1.645-1.264l50.519-39.175c5.571-4.423 12.155-6.824 18.739-7.203.886-.127 1.646-.127 2.532-.127h.38c8.989.127 17.979 3.665 24.563 10.489a25.269 25.269 0 0 1 2.405 2.78c11.522 15.165 8.863 36.901-6.33 48.653Z" fill="white"/><path d="M211.821 458.473h-70.903c-.253 0-.633-.253-.633-.505l-1.393-8.214c-1.012-5.813-1.139-11.879-.506-18.071 1.899-19.082 11.648-36.774 26.842-48.4.253-.253.506-.38.886-.632.253-.253.507-.379.76-.632l50.518-39.175c5.571-4.423 12.155-6.95 19.119-7.33.886-.126 1.646-.126 2.532-.126h.38c9.496.126 18.359 3.918 24.943 10.742a25.177 25.177 0 0 1 2.405 2.78c11.775 15.417 8.863 37.785-6.33 49.537l-48.24 37.532-.253.253-2.406 1.896c-.126.126-.379.379-.633.505-.126.126-.253.126-.379.253 0 .252.126.632.126.884.127.379.127.885.253 1.264 0 .126.127.379.127.506 0 .126 0 .252.127.505.506 3.033 1.139 5.939 1.772 9.099l.507 2.274c.253 1.264.506 2.275.759 3.539l.127.758c0 .126 0 .379-.127.505-.126.127-.126.253-.38.253Zm-70.523-1.137h69.637c-.253-1.264-.633-2.275-.886-3.539l-.507-2.274c-.759-3.159-1.392-6.192-1.772-9.099 0-.126-.127-.379-.127-.505 0-.127 0-.253-.126-.506-.127-.505-.127-1.011-.254-1.39 0-.379-.126-.758-.126-1.264 0-.252 0-.379.126-.505.254-.253.507-.379.76-.632.253-.126.38-.253.507-.379l2.658-2.148 48.24-37.533c14.814-11.499 17.599-32.856 6.077-47.768-.759-1.011-1.646-1.769-2.405-2.653-6.331-6.572-14.814-10.236-24.183-10.363h-.38c-.887 0-1.646 0-2.406.127-6.71.379-13.041 2.78-18.485 7.076l-50.519 39.175c-.253.127-.506.379-.76.632a3.828 3.828 0 0 1-.886.632c-14.814 11.5-24.436 28.939-26.335 47.642-.633 5.939-.507 11.879.506 17.818l1.646 7.456Z" fill="black"/><path d="m195.996 452.787-1.139-.506c2.152-5.434 10.002-9.225 13.421-10.741-2.279-.632-6.964-1.011-12.915 2.022l-.633-1.138c8.989-4.802 15.194-1.643 15.573-1.643.254.127.38.379.38.632s-.126.506-.38.506c-.253.252-11.775 4.423-14.307 10.868Z" fill="black"/><path d="m355.149 367.486-3.039 65.839-.886 17.187v1.516l-.254 5.94H210.557l.253-4.297.886-17.818v-.379l1.646-35.637 1.773-38.796c.633-12.51 9.876-22.494 21.651-24.642.759-.126 1.519-.253 2.152-.253h.127c1.139-.126 2.279-.126 3.418-.126l21.144 1.011 35.579 1.643 4.811.252 11.015.506 11.269.505 4.051.253c1.773.127 3.546.379 5.192.885.886.252 1.646.505 2.405.758.507.126 1.013.379 1.646.632.76.379 1.646.758 2.279 1.137 8.23 4.423 13.801 13.648 13.295 23.884Z" fill="white"/><path d="M351.097 458.473H210.556c-.126 0-.379-.126-.506-.253-.127-.126-.127-.252-.127-.505l.254-4.297.886-17.818v-.379l3.545-74.432c.633-12.638 9.749-23 22.157-25.148.76-.127 1.52-.253 2.279-.253h.127c1.139-.126 2.279-.126 3.418-.126l87.617 4.17c2.025.126 3.798.379 5.317.884.38.127.887.253 1.266.38.38.126.887.252 1.267.379l1.139.379c.127.126.38.126.507.253.379.252.886.379 1.266.631.38.127.759.379 1.266.506 8.736 4.928 14.18 14.532 13.674 24.642l-3.039 65.839-.886 17.187v1.516l-.253 5.94c-.127.252-.38.505-.633.505Zm-139.908-1.137h139.275l.253-6.824.886-17.187 3.039-65.839c.506-9.604-4.685-18.829-12.915-23.378-.379-.127-.759-.38-1.139-.506-.38-.253-.886-.379-1.266-.632-.127 0-.38-.126-.507-.252-.38-.127-.759-.253-1.013-.38a15.627 15.627 0 0 1-1.266-.379c-.38-.126-.759-.252-1.266-.379-1.519-.505-3.165-.758-5.064-.884l-4.052-.253-26.969-1.264-56.722-2.654c-1.14 0-2.153 0-3.292.127h-.253c-.76 0-1.52.126-2.026.252-11.902 2.022-20.638 11.879-21.271 24.011l-3.545 74.432v.379l-.887 21.61Z" fill="black"/><path d="M420.48 457.715h-73.056c1.393-2.148 2.532-4.549 3.799-6.571.126-.127.126-.253.253-.506-.127-.126-.127-.253-.253-.379-.254-.379-.507-.632-.634-1.011l-34.945-54.213c-10.382-16.049-5.697-37.532 10.383-47.894 4.304-2.654 8.736-4.423 13.421-5.055 1.645-.253 3.545-.379 5.317-.379 11.395 0 22.537 5.56 29.248 15.796l34.565 53.707c9.496 13.775 13.548 30.329 11.902 46.505Z" fill="white"/><path d="M420.48 458.347h-73.055c-.254 0-.38-.127-.507-.379-.127-.253-.127-.506 0-.632.76-1.264 1.519-2.528 2.153-3.918.506-1.011 1.012-1.769 1.645-2.654 0 0 0-.126.127-.126 0 0 0-.126-.127-.126-.126-.127-.126-.253-.253-.253-.126-.253-.38-.506-.506-.758l-34.819-53.961c-10.509-16.301-5.697-38.164 10.509-48.779 4.305-2.654 8.863-4.549 13.674-5.181 1.646-.253 3.545-.379 5.445-.379 12.028 0 23.17 5.939 29.754 16.049l34.565 53.708c9.243 13.648 13.548 30.329 11.902 46.883.126.253-.127.506-.507.506Zm-71.916-1.138h71.41c1.519-16.049-2.659-32.224-11.775-45.493l-34.566-53.708c-6.33-9.73-17.219-15.543-28.741-15.543-1.772 0-3.672.126-5.191.379-4.685.758-8.989 2.401-13.168 4.928-15.7 10.236-20.384 31.34-10.129 47.137l34.946 54.213s0 .126.126.126c0 .126.127.379.38.505.127.127.127.253.253.38 0 0 .127.126.127.252.253.253.253.506.126.759 0 .126 0 .126-.126.126 0 .126-.127.253-.253.379-.507.885-1.013 1.643-1.52 2.654-.759.884-1.266 1.895-1.899 2.906Z" fill="black"/><path d="M356.541 453.292c-3.798 0-6.077-1.137-6.331-1.264a.694.694 0 0 1-.379-.632c0-.252.126-.505.379-.505.127 0 13.295-4.802 16.207-12.132l1.139.506c-2.532 6.445-11.648 10.741-15.32 12.258 2.532.758 8.103 1.39 14.941-2.275l.633 1.137c-4.432 2.275-8.357 2.907-11.269 2.907Zm-110.28-161.123a11.472 11.472 0 0 0 11.522-11.499c0-6.445-5.191-11.5-11.522-11.5a11.472 11.472 0 0 0-11.522 11.5c0 6.318 5.191 11.499 11.522 11.499Zm64.573 24.011c8.863 0 15.953-7.077 15.953-15.923s-7.09-15.923-15.953-15.923-15.954 7.077-15.954 15.923 7.091 15.923 15.954 15.923Z" fill="black"/><path d="M310.833 316.685c-9.116 0-16.586-7.456-16.586-16.554 0-9.099 7.47-16.555 16.586-16.555s16.587 7.456 16.587 16.555c0 9.098-7.471 16.554-16.587 16.554Zm0-31.845c-8.356 0-15.32 6.95-15.32 15.291 0 8.34 6.964 15.29 15.32 15.29 8.357 0 15.321-6.95 15.321-15.29 0-8.341-6.964-15.291-15.321-15.291Z" fill="black"/><path d="M318.305 329.322c5.444 0 9.749-4.296 9.749-9.73s-4.305-9.731-9.749-9.731c-5.445 0-9.749 4.297-9.749 9.731 0 5.307 4.304 9.73 9.749 9.73Z" fill="black"/><path d="M318.305 329.828c-5.698 0-10.383-4.676-10.383-10.363 0-5.686 4.685-10.362 10.383-10.362 5.697 0 10.382 4.676 10.382 10.362-.127 5.813-4.685 10.363-10.382 10.363Zm0-19.461c-4.938 0-9.117 4.17-9.117 9.098 0 4.929 4.179 9.099 9.117 9.099 4.938 0 9.116-4.17 9.116-9.099 0-4.928-4.178-9.098-9.116-9.098Z" fill="black"/><path d="M320.835 341.959a7.936 7.936 0 0 0 7.977-7.961 7.936 7.936 0 0 0-7.977-7.961 7.936 7.936 0 0 0-7.977 7.961 7.936 7.936 0 0 0 7.977 7.961Z" fill="black"/><path d="M320.837 342.591c-4.811 0-8.483-3.791-8.483-8.467 0-4.675 3.798-8.466 8.483-8.466 4.811 0 8.483 3.791 8.483 8.466 0 4.676-3.798 8.467-8.483 8.467Zm0-15.922c-4.052 0-7.343 3.285-7.343 7.329s3.291 7.33 7.343 7.33 7.344-3.286 7.344-7.33c0-4.044-3.292-7.329-7.344-7.329Z" fill="black"/><path d="M318.809 353.965c3.672 0 6.584-2.907 6.584-6.572 0-3.664-2.912-6.571-6.584-6.571-3.672 0-6.584 2.907-6.584 6.571 0 3.665 3.039 6.572 6.584 6.572Z" fill="black"/><path d="M318.809 354.596c-4.051 0-7.217-3.159-7.217-7.203 0-4.044 3.166-7.203 7.217-7.203 4.052 0 7.217 3.159 7.217 7.203 0 4.044-3.165 7.203-7.217 7.203Zm0-13.142a5.938 5.938 0 0 0-5.951 5.939 5.939 5.939 0 0 0 5.951 5.94 5.939 5.939 0 0 0 5.951-5.94c.127-3.285-2.659-5.939-5.951-5.939Z" fill="black"/><path d="M315.772 360.03c2.025 0 3.798-1.642 3.798-3.791 0-2.148-1.646-3.791-3.798-3.791-2.026 0-3.799 1.643-3.799 3.791 0 2.149 1.773 3.791 3.799 3.791Z" fill="#FEBCB4"/><path d="M312.353 368.118c2.659 0 4.938-2.148 4.938-4.929 0-2.653-2.152-4.928-4.938-4.928-2.658 0-4.937 2.148-4.937 4.928.126 2.781 2.279 4.929 4.937 4.929Z" fill="black"/><path d="M312.353 368.75c-3.039 0-5.444-2.401-5.444-5.434 0-3.033 2.405-5.434 5.444-5.434s5.444 2.401 5.444 5.434c0 3.033-2.405 5.434-5.444 5.434Zm0-9.731c-2.279 0-4.305 1.896-4.305 4.297 0 2.275 1.899 4.297 4.305 4.297a4.266 4.266 0 0 0 4.305-4.297 4.266 4.266 0 0 0-4.305-4.297Z" fill="black"/><path d="M241.955 302.279a8.206 8.206 0 0 0 8.23-8.214 8.206 8.206 0 0 0-8.23-8.214 8.206 8.206 0 0 0-8.23 8.214 8.206 8.206 0 0 0 8.23 8.214Z" fill="white"/><path d="M241.955 302.911c-4.938 0-8.863-4.044-8.863-8.846 0-4.929 4.052-8.846 8.863-8.846 4.938 0 8.863 4.044 8.863 8.846 0 4.802-4.052 8.846-8.863 8.846Zm0-16.555c-4.305 0-7.723 3.412-7.723 7.709 0 4.296 3.418 7.709 7.723 7.709s7.724-3.413 7.724-7.709c0-4.297-3.546-7.709-7.724-7.709Z" fill="black"/><path d="M280.952 354.217c-9.876-.379-17.599-8.593-17.219-18.45l1.139-29.065c.127-1.896 1.646-3.539 3.672-3.412l32.16-4.044-1.266 37.785c-.507 9.857-8.61 17.565-18.486 17.186Z" fill="white"/><path d="M281.712 354.849h-.76c-10.129-.379-18.106-8.972-17.852-19.082l1.139-29.065c.127-1.138.507-2.149 1.393-2.907s1.772-1.137 2.912-1.137l32.033-4.044c.127 0 .38 0 .507.126.126.127.253.253.253.506l-1.266 37.785c-.507 10.109-8.483 17.818-18.359 17.818Zm-13.295-51.054c-.886 0-1.519.253-1.899.758-.633.506-.886 1.264-1.013 2.022l-1.139 29.066c-.38 9.477 7.09 17.565 16.586 17.944 9.496.379 17.473-6.95 17.979-16.681l1.266-37.026-31.4 3.917h-.38Z" fill="black"/><path d="M298.045 305.944c.633.379 1.392.631 2.026.884h.126v-.253c.633-2.148.886-4.549 1.013-6.95.127-3.538-.253-6.95-1.266-10.11-3.672 1.011-6.331 4.423-6.457 8.214-.38 3.412 1.646 6.572 4.558 8.215Z" fill="black"/><path d="M300.197 307.334h-.38c-.759-.253-1.519-.506-2.152-.885-3.292-1.769-5.191-5.181-4.811-8.719.126-4.171 2.912-7.835 6.963-8.72.38-.126.633.126.76.379 1.013 3.033 1.393 6.571 1.266 10.363-.126 2.906-.506 5.054-1.013 6.95v.126c0 .253-.253.506-.633.506Zm-.633-17.187c-3.165 1.138-5.318 4.171-5.444 7.583-.38 3.033 1.393 6.065 4.178 7.582.38.253.886.505 1.393.632.506-1.769.759-3.791.886-6.445a32.125 32.125 0 0 0-1.013-9.352Z" fill="black"/><path d="M279.179 328.817c-2.912.884-6.204 1.263-9.369 1.263-16.713-.632-29.881-14.659-29.248-31.34.633-16.681 14.688-29.823 31.4-29.191 12.408.505 22.791 8.214 27.096 18.955 1.012-.379 1.899-.505 3.038-.505 4.558.126 8.103 4.044 7.977 8.467-.127 4.549-4.052 8.087-8.483 7.961h-.633l-1.393 30.708" fill="white"/><path d="M300.197 335.009h-1.266l1.393-30.708c0-.379.253-.632.633-.632h.633c2.026.126 4.052-.758 5.444-2.022 1.52-1.39 2.279-3.286 2.406-5.181.126-4.297-3.165-7.835-7.344-7.961-1.139 0-1.899.126-2.785.505-.38.126-.633 0-.76-.379-4.305-10.868-14.814-18.071-26.589-18.577-16.459-.631-30.26 12.258-30.893 28.56-.633 16.302 12.281 30.203 28.614 30.835 3.292 0 6.458-.379 9.117-1.264l.379 1.264c-2.785.884-6.077 1.263-9.496 1.263-17.092-.631-30.513-14.911-29.88-31.971.633-17.06 14.94-30.456 32.033-29.824 12.028.506 22.79 7.835 27.475 18.829a9.037 9.037 0 0 1 2.659-.379c4.938.127 8.609 4.297 8.483 9.099-.127 2.275-1.14 4.549-2.786 6.066-1.646 1.643-4.051 2.401-6.33 2.401l-1.14 30.076Z" fill="black"/><path d="M300.832 292.043c2.279.126 4.051 1.895 3.924 4.296-.126 2.275-1.899 4.044-4.304 3.918" fill="white"/><path d="M300.705 300.763h-.253l.126-1.264c1.899.126 3.545-1.39 3.672-3.286 0-1.011-.253-1.769-.886-2.527-.633-.632-1.52-1.138-2.406-1.138l.127-1.263c1.392.126 2.405.632 3.292 1.516.886.885 1.266 2.022 1.266 3.412-.38 2.78-2.406 4.55-4.938 4.55Zm-43.935-1.643c.126-1.39-.76-2.528-1.9-2.654-1.266-.126-2.279.885-2.405 2.148-.127 1.39.759 2.528 1.899 2.654 1.266.253 2.279-.758 2.406-2.148Zm-6.077-7.077-.886-.885s3.925-3.538 8.989-.505l-.633 1.137c-4.178-2.654-7.343.126-7.47.253Zm27.349 9.351c.126-1.39-.76-2.527-1.9-2.654-1.266-.126-2.279.885-2.405 2.149-.127 1.39.759 2.527 1.899 2.654 1.139.126 2.279-.885 2.406-2.149Zm-5.951-7.329-.886-.885s3.925-3.538 8.989-.505l-.633 1.137c-4.178-2.654-7.344.126-7.47.253Zm-3.799 27.928-.126-1.264c5.317-.632 5.064-5.434 5.064-5.687l1.266-.126c-.126.126.253 6.192-6.204 7.077Zm-4.813-9.984c-.633 0-2.152-.126-3.165-1.137-.633-.632-.886-1.39-.76-2.275.127-.884.507-1.642 1.14-2.021.886-.632 1.899-.759 2.658-.759l1.013-9.604 1.267.127-1.013 10.236c0 .126-.127.379-.254.379-.126.126-.253.126-.506.126 0 0-1.519-.253-2.279.505-.38.253-.633.759-.633 1.264 0 .632.126 1.011.38 1.39.633.758 2.026.759 2.405.759l.127 1.263c-.127-.253-.253-.253-.38-.253Zm-13.927-59.394c-10.256-1.769-19.878 4.929-21.651 15.038-1.773 10.236 4.938 19.841 15.067 21.61 10.256 1.769 19.878-4.929 21.651-15.038" fill="black"/><path d="M246.261 290.147c-1.139 0-2.152-.126-3.418-.253-10.509-1.895-17.473-11.878-15.574-22.367 1.899-10.489 11.902-17.439 22.411-15.544l-.254 1.264c-9.749-1.643-19.245 4.802-21.017 14.659-1.646 9.731 4.811 19.208 14.687 20.978 9.749 1.642 19.245-4.803 21.017-14.659l1.267.252c-1.773 9.099-9.876 15.67-19.119 15.67Z" fill="black"/><path d="M257.15 280.417c.38.758.76 1.39 1.14 2.022 5.191 8.34 14.94 13.774 25.576 12.763 14.94-1.39 25.955-14.659 24.689-29.444-1.393-14.912-15.826-14.786-30.893-13.522-11.269 1.011-18.866-2.527-22.158 7.456" fill="black"/><path d="M281.459 296.087c-9.496 0-18.612-4.929-23.803-13.143-.254-.379-.38-.758-.634-1.137-.253-.379-.379-.758-.633-1.138l1.14-.505c.127.379.38.758.506 1.011.254.379.38.758.633 1.137 5.192 8.341 15.067 13.396 24.943 12.385 7.091-.632 13.548-4.044 18.106-9.478 4.558-5.434 6.71-12.258 6.077-19.335-1.392-14.406-14.94-14.406-30.26-12.89-2.912.253-5.445.253-7.977.127-6.964-.127-11.522-.253-13.801 6.824l-1.266-.379c2.532-7.962 8.103-7.835 14.941-7.709 2.279 0 4.937.126 7.85-.126 15.193-1.391 30.133-1.391 31.4 14.153.633 7.33-1.646 14.659-6.331 20.219-4.811 5.687-11.522 9.225-18.865 9.857-.38.127-1.267.127-2.026.127Z" fill="black"/><path d="M289.182 253.5c-1.013-11.121-10.889-19.335-21.904-18.324-11.142 1.011-19.372 10.868-18.359 21.862.254 2.022.76 4.044 1.52 5.813.633 1.517 1.392 2.78 2.279 4.17 1.139 1.517 2.279 2.78 3.671 3.918" fill="black"/><path d="M255.884 271.318c-1.393-1.137-2.533-2.401-3.799-4.044-1.013-1.39-1.646-2.653-2.405-4.296-.76-1.769-1.267-3.918-1.52-5.94-1.013-11.499 7.47-21.483 18.992-22.62 11.522-1.011 21.524 7.582 22.537 18.956l-1.266.126c-1.013-10.868-10.509-18.703-21.398-17.818-10.888 1.011-18.738 10.488-17.852 21.356.253 1.896.76 3.918 1.519 5.687.633 1.516 1.393 2.78 2.153 4.044 1.139 1.516 2.279 2.78 3.545 3.791l-.506.758Zm50.77 24.137c8.483 0 15.32-6.824 15.32-15.291s-6.837-15.291-15.32-15.291-15.32 6.824-15.32 15.291 6.837 15.291 15.32 15.291Z" fill="black"/><path d="M306.654 296.087c-8.736 0-15.953-7.203-15.953-15.923 0-8.72 7.217-15.923 15.953-15.923 8.737 0 15.954 7.203 15.954 15.923 0 8.72-7.217 15.923-15.954 15.923Zm0-30.708c-8.229 0-14.813 6.571-14.813 14.785s6.584 14.785 14.813 14.785c8.23 0 14.814-6.571 14.814-14.785s-6.584-14.785-14.814-14.785Z" fill="black"/><path d="M285.257 272.582c2.786 2.401 6.204 3.917 9.623 4.17 4.938.379 10.256-1.516 13.801-5.56 6.077-6.824 5.444-17.439-1.52-23.505-6.837-6.066-17.472-5.434-23.55 1.516" fill="black"/><path d="M296.019 277.257h-1.393c-3.545-.252-7.09-1.769-10.002-4.296l.886-1.011c2.659 2.274 5.951 3.791 9.243 4.044 5.064.379 10.129-1.643 13.294-5.308 2.786-3.159 4.305-7.329 4.052-11.5-.253-4.296-2.153-8.214-5.318-11.12-3.165-2.907-7.343-4.297-11.522-4.044-4.305.253-8.23 2.148-11.142 5.307l-1.013-.884c3.039-3.539 7.344-5.434 11.902-5.813 4.685-.253 8.99 1.263 12.408 4.296 3.419 3.033 5.445 7.33 5.824 11.879.254 4.676-1.266 8.973-4.304 12.385-3.039 4.043-7.724 6.065-12.915 6.065Z" fill="black"/><path d="M369.962 464.16c-.633 2.401-3.292 3.917-6.204 3.412-3.165-.506-5.318-3.159-4.938-5.94 0-.126 1.393-9.856-.253-22.493-.38-2.781 1.899-5.055 4.938-5.182 3.038-.126 5.95 2.022 6.33 4.929 1.646 14.027.38 24.516.254 24.768 0 .253-.127.38-.127.506Z" fill="white"/><path d="M364.771 468.33c-.38 0-.886 0-1.266-.126-3.419-.506-5.824-3.539-5.444-6.698v-.126c.253-2.401 1.139-11.374-.254-22.242a5.517 5.517 0 0 1 1.14-3.917c1.139-1.264 2.659-1.896 4.431-2.022 3.419-.126 6.584 2.275 6.964 5.308 1.646 13.395.507 23.631.253 24.895 0 .252 0 .379-.126.505v.253c-.507 2.654-2.786 4.17-5.698 4.17Zm-1.013-33.741h-.253c-1.519 0-2.659.632-3.545 1.643-.76.885-1.013 1.769-.886 2.906 1.392 11.121.633 20.093.253 22.494v.127c-.38 2.401 1.646 4.928 4.558 5.181 2.532.506 4.938-.885 5.444-2.906 0-.127 0-.38.127-.38v-.252c.253-.885 1.393-11.247-.253-24.643-.38-2.274-2.786-4.17-5.445-4.17Z" fill="black"/><path d="M359.581 463.402c-.633 2.401-3.292 3.917-6.204 3.412-3.166-.506-5.318-3.16-4.938-5.94 0-.126 1.392-9.857-.254-22.494-.379-2.78 1.9-5.055 4.938-5.181 3.166-.126 5.951 2.022 6.331 4.928 1.646 14.028.38 24.516.253 24.769-.126.126-.126.379-.126.506Z" fill="white"/><path d="M354.516 467.446c-.38 0-.887 0-1.266-.127-3.419-.505-5.825-3.538-5.445-6.697v-.127c.254-2.401 1.14-11.373-.253-22.241a5.512 5.512 0 0 1 1.14-3.918c1.139-1.263 2.658-1.895 4.431-2.021 3.419-.127 6.584 2.274 6.964 5.307 1.646 14.154.38 24.642.253 25.021-.127.253-.127.38-.127.38v.126c-.633 2.78-2.912 4.297-5.697 4.297Zm-1.14-33.741h-.253c-1.519 0-2.659.631-3.545 1.642-.76.885-1.013 1.77-.886 2.907 1.392 11.121.633 20.093.253 22.494v.126c-.38 2.401 1.646 4.929 4.558 5.181 2.532.506 4.938-.884 5.444-2.906 0-.126 0-.506.253-.885.127-.884 1.393-11.12-.253-24.516-.506-2.148-2.912-4.043-5.571-4.043Z" fill="black"/><path d="M349.071 463.528c-.633 2.401-3.292 3.918-6.204 3.412-3.166-.505-5.318-3.159-4.938-5.939 0-.127 1.393-9.857-.253-22.494-.38-2.781 1.899-5.055 4.938-5.182 3.038-.126 5.95 2.022 6.33 4.929 1.646 14.027.38 24.516.253 24.769 0 .126-.126.379-.126.505Z" fill="white"/><path d="M344.006 467.572c-.38 0-.886 0-1.266-.127-3.419-.505-5.824-3.538-5.445-6.697v-.127c.254-2.401 1.14-11.373-.253-22.241a5.517 5.517 0 0 1 1.14-3.917c1.139-1.264 2.659-1.896 4.431-2.022 3.419-.127 6.584 2.274 6.964 5.307 1.646 13.396.506 23.632.253 24.895 0 .253-.126.379-.126.506v.126c-.633 2.78-2.913 4.297-5.698 4.297Zm-1.14-33.741h-.253c-1.519 0-2.659.632-3.545 1.643-.76.884-1.013 1.769-.886 2.906 1.393 11.121.633 20.093.253 22.494V461c-.38 2.401 1.646 4.929 4.558 5.182 2.532.505 4.938-.885 5.444-2.907 0-.126 0-.253.127-.253v-.505c.253-.885 1.393-11.247-.253-24.642-.253-2.149-2.786-4.044-5.445-4.044Z" fill="black"/><path d="M338.69 464.16c-.634 2.401-3.292 3.917-6.205 3.412-3.165-.506-5.317-3.159-4.937-5.94 0-.126 1.392-9.856-.254-22.493-.379-2.781 1.9-5.055 4.938-5.182 3.166-.126 5.951 2.022 6.331 4.929 1.646 14.027.38 24.516.253 24.768-.126.253-.126.38-.126.506Z" fill="white"/><path d="M333.625 468.33c-.38 0-.887 0-1.266-.126-3.419-.506-5.825-3.539-5.445-6.698v-.126c.253-2.401 1.14-11.374-.253-22.242a5.512 5.512 0 0 1 1.139-3.917c1.14-1.264 2.659-1.896 4.432-2.022 3.418-.126 6.584 2.275 6.964 5.308 1.646 14.153.379 24.642.253 25.021-.127.253-.127.253-.127.379v.127c-.633 2.78-2.912 4.296-5.697 4.296Zm-1.14-33.741h-.253c-1.519 0-2.659.632-3.545 1.643-.76.885-1.013 1.769-.887 2.906 1.393 11.121.634 20.093.254 22.494v.127c-.38 2.401 1.646 4.928 4.558 5.181 2.532.506 4.938-.885 5.444-2.906 0-.253 0-.506.253-.885.127-.885 1.393-11.121-.253-24.516-.38-2.148-2.912-4.044-5.571-4.044Z" fill="black"/><path d="M245.628 457.841c-.127 3.539-.506 5.56-.506 5.813 0 .127-.127.379-.127.632-.633 2.401-3.292 3.918-6.204 3.412-2.026-.379-3.798-1.643-4.558-3.286-.38-.884-.507-1.642-.38-2.527 0 0 .253-1.516.38-3.917.127-1.643.127-3.665.127-5.94 0-3.538-.127-7.961-.76-12.637-.127-1.011.126-1.769.506-2.654.887-1.516 2.406-2.527 4.558-2.654 3.166-.126 5.951 2.022 6.331 4.929.886 7.582.886 14.406.633 18.829Z" fill="white"/><path d="M239.804 468.456c-.38 0-.887 0-1.266-.126-2.153-.379-4.179-1.769-4.938-3.665-.38-1.011-.633-1.895-.38-2.906 0 0 .253-1.517.38-3.918.126-1.643.126-3.665.126-5.939 0-2.907-.126-7.583-.759-12.511-.127-1.264.253-2.148.506-3.033 1.14-1.769 2.912-2.906 4.938-3.033 3.418-.126 6.584 2.275 6.964 5.308 1.013 8.593.886 15.67.633 19.082-.127 2.654-.38 4.675-.507 5.434v.379c0 .126 0 .253-.126.379v.379c-.38 2.654-2.659 4.17-5.571 4.17Zm-.887-33.867h-.253c-1.646.126-3.165 1.011-4.051 2.401-.254.632-.507 1.39-.38 2.275.633 5.054.759 9.73.759 12.763 0 2.275 0 4.423-.126 5.94-.127 2.401-.38 3.917-.38 3.917-.127.758 0 1.516.38 2.148.759 1.517 2.279 2.528 4.051 2.907 2.533.379 4.938-.885 5.445-2.907 0-.252.126-.379.126-.505 0-.127 0-.253.127-.632.127-.885.38-2.654.506-5.308.254-3.412.38-10.362-.633-18.829-.506-2.148-2.912-4.17-5.571-4.17Z" fill="black"/><path d="M235.118 457.841c-.127 3.033-.38 4.929-.506 4.929 0 .126-.127.379-.127.632a6.161 6.161 0 0 1-.38.884c-1.013 1.769-3.292 2.907-5.824 2.528-1.899-.38-3.545-1.517-4.431-2.907-.507-.885-.76-1.896-.634-2.907 0 0 .127-1.137.254-3.032.126-1.643.253-3.918.253-6.698 0-3.538-.127-7.961-.76-12.764-.126-.758 0-1.516.253-2.148.76-1.769 2.406-3.033 4.812-3.159 2.532-.126 4.938 1.39 5.824 3.412.253.505.38 1.011.38 1.516 1.266 8.214 1.139 15.291.886 19.714Z" fill="white"/><path d="M229.294 467.572c-.38 0-.759 0-1.139-.127-2.026-.379-3.925-1.642-4.938-3.159a5.079 5.079 0 0 1-.76-3.285s.127-1.138.253-3.033c.127-1.643.254-3.791.254-6.698 0-2.907-.127-7.582-.76-12.637-.127-.758 0-1.643.253-2.401.886-2.022 2.786-3.412 5.191-3.539 2.786-.126 5.318 1.391 6.458 3.792.253.631.379 1.137.379 1.642 1.013 6.319 1.267 12.89.887 19.841-.127 2.527-.254 4.296-.507 4.928 0 .126 0 .253-.126.379v.506c-.127.379-.254.632-.38 1.011-.76 1.642-2.786 2.78-5.065 2.78Zm-1.013-33.741h-.253c-2.026.126-3.545 1.137-4.305 2.78-.253.758-.253 1.39-.253 1.769.633 5.308.76 9.857.76 12.89 0 2.907-.127 5.181-.253 6.698-.127 1.895-.254 3.033-.254 3.033-.126.884.127 1.769.507 2.527.759 1.39 2.152 2.275 4.051 2.654 2.153.379 4.305-.632 5.192-2.149.126-.252.253-.379.253-.758 0-.126 0-.379.126-.505 0-.127 0-.253.127-.379.127-.379.253-1.896.38-4.802.38-6.824.126-13.269-.886-19.714 0-.506-.127-.885-.38-1.264-.633-1.643-2.659-2.78-4.812-2.78Zm5.825 28.56c0 .126 0 .126 0 0 0 .126 0 .126 0 0Z" fill="black"/><path d="M224.737 457.841c-.127 3.033-.38 4.929-.507 5.055 0 .126-.126.379-.126.632 0 .126-.127.253-.127.379-.886 2.148-3.292 3.538-6.077 3.033-1.773-.379-3.292-1.39-4.178-2.654-.633-1.011-1.013-2.022-.76-3.286 0 0 .127-1.263.253-3.159.127-1.643.253-3.917.253-6.571 0-3.538-.126-7.961-.759-12.764-.127-.631 0-1.263.126-1.769.633-1.895 2.406-3.412 4.938-3.538 2.532-.126 4.685 1.264 5.698 3.033.38.632.506 1.137.633 1.769.886 8.34.886 15.417.633 19.84Z" fill="white"/><path d="M219.039 467.698c-.38 0-.886 0-1.266-.126a7.574 7.574 0 0 1-4.558-2.906c-.886-1.264-1.14-2.402-.886-3.792 0 0 .126-1.263.253-3.033.126-1.516.253-3.791.253-6.571 0-2.906-.127-7.582-.76-12.637-.126-.758 0-1.39.127-2.022.76-2.275 2.785-3.917 5.444-4.044 2.533-.126 4.938 1.264 6.331 3.286.38.758.633 1.264.76 2.022 1.013 9.351.886 16.554.633 19.966-.127 2.022-.253 4.55-.507 5.182v.505c0 .253-.126.379-.126.506v.126c-1.013 2.275-3.166 3.538-5.698 3.538Zm-.886-33.867h-.253c-2.026.126-3.799 1.39-4.305 3.033-.127.505-.253 1.137-.127 1.643.633 5.307.76 9.857.76 12.89 0 2.78-.127 5.054-.253 6.571-.127 1.895-.254 3.159-.254 3.159-.253 1.011 0 1.896.633 2.907.76 1.263 2.026 2.022 3.799 2.401 2.279.379 4.684-.632 5.318-2.528 0-.126.126-.252.126-.252 0-.253.127-.38.127-.506s0-.253.126-.379c0-.126.254-1.643.38-4.929.253-3.412.38-10.488-.633-19.713-.126-.632-.253-1.138-.506-1.643-1.14-1.643-3.039-2.654-4.938-2.654Z" fill="black"/><path d="M214.354 457.841c-.126 3.539-.506 5.561-.506 5.813 0 .127-.127.379-.127.632-.759 2.401-3.292 3.918-6.204 3.412-3.165-.505-5.318-3.159-4.938-5.939 0 0 .254-1.517.38-3.918.127-1.643.127-3.538.127-5.813 0-2.022-.127-4.423-.253-6.95-.127-1.39-.254-2.78-.38-4.297 0-.505-.127-1.011-.127-1.643-.38-2.78 1.899-5.054 4.938-5.181 1.646-.126 3.165.506 4.305 1.517l.253.252c.38.379.76.759 1.013 1.138.38.632.76 1.39.76 2.022 1.013 7.708 1.013 14.532.759 18.955Z" fill="white"/><path d="M208.656 468.456c-.379 0-.759 0-1.266-.126-3.418-.505-5.824-3.538-5.444-6.698 0 0 .253-1.516.38-3.917.126-1.643.126-3.539.126-5.813 0-1.769-.126-4.044-.253-6.192v-.759c-.126-1.39-.253-2.78-.38-4.296v-.758c0-.253-.126-.632-.126-1.011-.127-1.39.253-2.654 1.139-3.792 1.14-1.263 2.659-1.895 4.432-2.021 1.772-.127 3.418.505 4.811 1.642l.253.253c.38.379.76.758 1.14 1.264.38.632.886 1.516.886 2.401 1.139 7.835 1.139 14.785.886 18.956-.126 2.653-.38 4.675-.506 5.433v.38c0 .126 0 .252-.127.379v.379c-1.013 2.78-3.292 4.296-5.951 4.296Zm-1.013-33.867h-.379c-1.52 0-2.786.632-3.546 1.643-.759.884-1.012 1.769-.886 2.906 0 .379 0 .632.127.885v.758c.126 1.517.253 2.907.38 4.297v.758c.126 2.148.253 4.423.253 6.192 0 2.275 0 4.297-.127 5.813-.126 2.401-.38 3.918-.38 3.918-.379 2.401 1.646 4.928 4.558 5.181 2.533.505 4.938-.758 5.445-2.907 0-.252 0-.379.126-.505 0-.126 0-.253.127-.632.127-.885.38-2.654.507-5.307.253-4.297.253-11.121-.887-18.83 0-.758-.38-1.39-.633-1.769-.253-.253-.506-.632-.886-1.011l-.253-.253c-1.013-.632-2.153-1.137-3.546-1.137Z" fill="black"/><path d="M259.936 415.381h-2.026c-10.508 0-18.992-8.467-18.992-18.956v-22.241h40.01v22.241c0 10.489-8.483 18.956-18.992 18.956Z" fill="#3F2AFF"/><path d="M265.253 382.019h-26.209v1.263h26.209v-1.263Z" fill="black"/><path fill-rule="evenodd" clip-rule="evenodd" d="m532.154 131.805 14.56-45.62L514.428 50.8l-46.974 10.236-14.433 45.62 32.286 35.384 46.847-10.236Z" fill="#FEBCB4"/><path d="M499.613 124.475c-2.786 0-5.698-.505-8.484-1.39-7.216-2.148-12.914-7.077-16.459-13.774-3.545-6.698-4.178-14.407-1.773-21.483 4.812-14.786 20.638-23 35.325-18.198 14.814 4.802 23.044 20.599 18.232 35.258-3.798 11.878-14.813 19.587-26.841 19.587Zm.126-55.098c-11.522 0-22.03 7.33-25.702 18.703-2.153 6.95-1.646 14.28 1.772 20.725 3.292 6.319 8.863 11.121 15.7 13.143 14.181 4.549 29.375-3.286 33.933-17.566 4.558-14.153-3.292-29.318-17.6-33.867-2.658-.632-5.317-1.138-8.103-1.138Z" fill="black"/><path d="M494.17 123.591c-1.14 0-2.026-.127-3.039-.506-8.356-2.654-11.522-16.933-6.964-31.719 3.039-9.604 8.863-17.692 15.194-20.977 3.039-1.643 6.077-1.896 8.863-1.138 8.483 2.78 11.648 17.06 6.964 31.719-3.039 9.604-8.863 17.692-15.194 20.978-1.899 1.011-3.925 1.643-5.824 1.643Zm11.142-53.455c-1.646 0-3.545.505-5.191 1.39-5.951 3.033-11.522 10.868-14.687 20.22-4.432 14.279-1.646 27.927 6.204 30.328 2.405.758 5.064.506 7.976-1.011 5.951-3.033 11.522-10.868 14.687-20.219 4.558-14.154 1.646-27.802-6.204-30.329-1.013-.253-2.026-.38-2.785-.38Z" fill="black"/><path d="m507.462 69.883-16.712 52.444 1.139.379 16.713-52.444-1.14-.38Z" fill="black"/><path d="m473.658 87.449-.38 1.137 52.671 16.681.38-1.137-52.671-16.681Z" fill="black"/><path fill-rule="evenodd" clip-rule="evenodd" d="M131.297 45.367c-1.772-10.11 4.938-19.714 14.941-21.483l41.149-7.456c10.129-1.769 19.751 4.929 21.524 14.912 1.772 10.11-4.938 19.714-14.94 21.483l-41.15 7.456c-10.002 1.895-19.625-4.802-21.524-14.912Z" fill="white"/><path d="M149.53 61.163c-3.925 0-7.724-1.263-10.889-3.411-4.178-2.907-7.09-7.33-7.977-12.259-1.772-10.362 5.065-20.345 15.447-22.24l41.149-7.457c4.938-.884 10.129.253 14.434 3.16 4.178 2.906 7.09 7.33 7.977 12.258 1.772 10.362-5.065 20.345-15.447 22.24l-41.149 7.457c-1.266.252-2.406.252-3.545.252Zm41.149-44.356c-1.14 0-2.026.127-3.166.253l-41.149 7.456c-4.811.885-8.863 3.538-11.522 7.456-2.658 3.917-3.798 8.593-2.912 13.395.887 4.802 3.546 8.846 7.471 11.5 3.925 2.654 8.609 3.791 13.421 2.906l41.149-7.456c9.749-1.642 16.206-11.12 14.56-20.85-1.772-8.594-9.243-14.66-17.852-14.66Z" fill="black"/><path d="m181.308 35.637-35.072 6.445.254 1.137 35.071-6.445-.253-1.137Z" fill="black"/><path d="M187.259 42.082a6.802 6.802 0 0 0 6.837-6.824 6.802 6.802 0 0 0-6.837-6.824 6.802 6.802 0 0 0-6.837 6.824c0 3.79 3.165 6.824 6.837 6.824Z" fill="black"/><path d="M187.259 42.714c-4.178 0-7.47-3.286-7.47-7.456s3.292-7.456 7.47-7.456 7.47 3.285 7.47 7.456c0 4.17-3.292 7.456-7.47 7.456Zm0-13.648c-3.419 0-6.204 2.78-6.204 6.192 0 3.412 2.785 6.192 6.204 6.192 3.418 0 6.204-2.78 6.204-6.192 0-3.412-2.786-6.193-6.204-6.193Z" fill="black"/><path fill-rule="evenodd" clip-rule="evenodd" d="M92.554 288.252c1.013-.379 2.025-.885 3.165-1.39 8.103-4.044 13.168-10.236 11.268-13.775-1.772-3.538-10.002-3.159-18.105.885-.886.505-1.646.885-2.406 1.39a23.56 23.56 0 0 0-1.266-2.527c-4.178-8.088-10.509-13.017-14.18-11.247-3.672 1.769-3.166 9.73 1.139 17.818.506 1.011 1.14 2.022 1.646 2.906-1.013.38-2.026.885-3.165 1.391-8.104 4.043-13.168 10.236-11.269 13.774 1.773 3.538 10.002 3.159 18.106-.885.886-.505 1.646-.884 2.405-1.39.38.885.76 1.643 1.266 2.528 4.179 8.087 10.51 13.016 14.181 11.247 3.672-1.77 3.165-9.731-1.14-17.819-.38-1.011-1.012-2.022-1.645-2.906Z" fill="#FEBCB4"/></svg>